<svg xmlns="http://www.w3.org/2000/svg" width="23.555" height="19.76" viewBox="0 0 23.555 19.76">
  <g id="Component_325_30" data-name="Component 325 – 30" transform="translate(0.736)">
    <g id="Component_321_3" data-name="Component 321 – 3">
      <g id="Ellipse_179" data-name="Ellipse 179" transform="translate(4.113)" fill="none" stroke="#161616" stroke-width="1.5">
        <circle cx="4.5" cy="4.5" r="4.5" stroke="none"/>
        <circle cx="4.5" cy="4.5" r="3.75" fill="none"/>
      </g>
      <path id="Path_204" data-name="Path 204" d="M2628.887-246.912s.794-4.116,1.28-5.489a2.382,2.382,0,0,1,.614-1.067,3.161,3.161,0,0,1,2.842-1.022c2.142.095,4.286,0,4.286,0" transform="translate(-2628.887 265)" fill="none" stroke="#161616" stroke-width="1.5"/>
      <g id="settings1" transform="translate(-40.859 -59.267)">
        <g id="Group_1347" data-name="Group 1347" transform="translate(51.654 67.4)">
          <g id="Group_1346" data-name="Group 1346" transform="translate(0 0)">
            <path id="Path_205" data-name="Path 205" d="M62.089,72.61l-.169-.945-.038.295.784-1.036.111-.147a.347.347,0,0,0,.046-.244.408.408,0,0,0-.106-.22l-1.156-1.437-.161-.2a.368.368,0,0,0-.373-.1l-1.258.5-.178.072.295.038-.709-.372.176.229q-.178-.6-.355-1.2l-.05-.17a.392.392,0,0,0-.369-.281H56.488a.391.391,0,0,0-.369.281q-.178.6-.355,1.2l-.05.17.176-.229-.709.372.295-.038-1.258-.5-.178-.072a.371.371,0,0,0-.373.1l-1.156,1.437-.161.2a.432.432,0,0,0-.106.22.346.346,0,0,0,.046.244l.784,1.036.111.147-.038-.295-.169.945.176-.229L52,72.959c-.054.027-.109.054-.162.082a.391.391,0,0,0-.176.433q.178.852.355,1.7l.05.239a.391.391,0,0,0,.369.281l1.328.117.192.017-.331-.19c.163.225.327.451.489.676-.018-.064-.034-.129-.052-.193-.05.409-.1.819-.148,1.227-.006.057-.014.116-.02.174a.37.37,0,0,0,.19.331l1.582.755.225.107a.4.4,0,0,0,.465-.06l.842-.886.12-.126-.271.112h.979l-.271-.112.842.886.12.126a.394.394,0,0,0,.465.06l1.582-.755.225-.107a.37.37,0,0,0,.19-.331c-.05-.409-.1-.819-.148-1.227-.006-.057-.014-.116-.02-.174-.018.064-.034.129-.052.193l.49-.676-.331.19,1.328-.117.192-.017a.393.393,0,0,0,.369-.281q.178-.852.355-1.7l.05-.239a.392.392,0,0,0-.176-.433l-1.154-.577c-.054-.027-.109-.054-.162-.082a.383.383,0,1,0-.386.661l1.154.577c.054.027.109.054.162.082l-.176-.433q-.178.852-.355,1.7l-.05.239.369-.281c-.506.045-1.013.086-1.517.135a.422.422,0,0,0-.333.19l-.027.037-.123.169c-.1.135-.2.271-.294.406a.378.378,0,0,0-.1.257c0,.024.006.049.009.073.017.143.034.285.051.428.036.3.073.6.109.9.064-.11.126-.221.19-.331l-1.582.755-.225.107.465.06-.534-.562-.332-.349a.5.5,0,0,0-.384-.215c-.3-.005-.6,0-.893,0a.451.451,0,0,0-.341.112c-.017.015-.031.033-.047.05l-.292.308-.623.656.465-.06L54.7,77.3l-.225-.107c.064.11.126.221.19.331l.092-.764c.019-.162.04-.323.059-.485a.461.461,0,0,0-.043-.359c-.152-.225-.318-.442-.479-.662a.424.424,0,0,0-.335-.192l-.029,0-.134-.011-.48-.042-.873-.078.369.281q-.178-.852-.355-1.7l-.05-.239-.176.433.71-.355.46-.23c.143-.072.286-.128.326-.312.063-.294.106-.593.158-.888a.448.448,0,0,0-.032-.346c-.017-.026-.037-.05-.056-.074l-.276-.365-.562-.742c-.02.155-.04.309-.06.465l1.156-1.437.161-.2-.373.1.682.273c.249.1.5.212.748.3.175.061.365-.072.517-.151l.438-.23a.43.43,0,0,0,.23-.258c.009-.027.015-.054.024-.08.042-.14.083-.281.125-.42l.257-.865-.369.281h2.093l-.369-.281c.073.244.144.488.217.733.047.158.093.315.14.474a.568.568,0,0,0,.23.393c.229.13.467.25.7.368a.482.482,0,0,0,.466-.028l.453-.181.812-.324-.373-.1,1.156,1.437.161.2c-.02-.155-.04-.309-.06-.465l-.641.847c-.083.11-.178.217-.252.332a.509.509,0,0,0-.026.381l.054.3c.033.189.068.378.1.566a.383.383,0,0,0,.471.267.378.378,0,0,0,.229-.176A.485.485,0,0,0,62.089,72.61Z" transform="translate(-51.654 -67.4)" fill="#161616" stroke="#161616" stroke-width="0.5"/>
            <path id="Path_206" data-name="Path 206" d="M335.78,337.481a1.73,1.73,0,0,1-.24-.016l.1.014a1.836,1.836,0,0,1-.479-.131l.089.037a1.848,1.848,0,0,1-.3-.162c-.025-.016-.048-.033-.073-.051-.053-.038.023.023.03.023a.212.212,0,0,1-.037-.031c-.043-.036-.085-.074-.125-.114s-.078-.081-.114-.125l-.026-.031c-.027-.033.057.077.023.03l-.052-.073a1.836,1.836,0,0,1-.167-.306l.037.089a1.887,1.887,0,0,1-.131-.479c0,.033.009.065.014.1a1.941,1.941,0,0,1,0-.479c0,.033-.009.065-.014.1a1.838,1.838,0,0,1,.131-.479l-.037.089a1.847,1.847,0,0,1,.162-.3c.016-.025.033-.048.051-.073.038-.053-.023.023-.023.03a.214.214,0,0,1,.031-.037c.036-.043.074-.085.114-.125s.081-.078.125-.114l.031-.026c.033-.027-.077.057-.03.023l.073-.052a1.842,1.842,0,0,1,.306-.167l-.089.037a1.888,1.888,0,0,1,.479-.131l-.1.014a1.941,1.941,0,0,1,.479,0l-.1-.014a1.839,1.839,0,0,1,.479.131l-.089-.037a1.845,1.845,0,0,1,.3.162c.025.016.048.033.073.051.053.038-.023-.023-.03-.023a.215.215,0,0,1,.037.031c.043.036.085.074.125.114s.078.081.114.125l.026.031c.027.033-.057-.077-.023-.03l.052.073a1.836,1.836,0,0,1,.167.306l-.037-.089a1.889,1.889,0,0,1,.131.479c0-.033-.009-.065-.014-.1a1.944,1.944,0,0,1,0,.479c0-.033.009-.065.014-.1a1.839,1.839,0,0,1-.131.479l.037-.089a1.848,1.848,0,0,1-.162.3c-.016.025-.033.048-.051.073-.038.053.023-.025.023-.03a.21.21,0,0,1-.031.037c-.036.043-.074.085-.114.125s-.081.078-.125.114l-.031.026c-.033.027.077-.057.03-.023l-.073.052a1.844,1.844,0,0,1-.306.167l.089-.037a1.885,1.885,0,0,1-.479.131l.1-.014a2.215,2.215,0,0,1-.24.016.37.37,0,0,0,0,.741,2.193,2.193,0,0,0,1.258-.4,2.287,2.287,0,0,0,.822-1.078,2.211,2.211,0,0,0-.658-2.417,2.27,2.27,0,0,0-1.277-.516,2.2,2.2,0,0,0-2.14,1.258,2.286,2.286,0,0,0-.165,1.4,2.209,2.209,0,0,0,1.779,1.717,2.444,2.444,0,0,0,.38.035.371.371,0,0,0,0-.742Z" transform="translate(-329.927 -330.306)" fill="#161616"/>
          </g>
        </g>
      </g>
    </g>
  </g>
</svg>
