<svg xmlns="http://www.w3.org/2000/svg" width="48" height="48" viewBox="0 0 48 48">
  <g id="Group_2431" data-name="Group 2431" transform="translate(-250 -380)">
    <g id="Component_361_32" data-name="Component 361 – 32" transform="translate(250 380)">
      <circle id="Ellipse_256" data-name="Ellipse 256" cx="24" cy="24" r="24" fill="#fcfdff"/>
    </g>
    <g id="Group_2430" data-name="Group 2430" transform="translate(4 -4.992)">
      <g id="Group_2396" data-name="Group 2396" transform="translate(269.542 408.936)">
        <g id="Group_2395" data-name="Group 2395" transform="translate(0 0)">
          <path id="Path_420" data-name="Path 420" d="M2.295,0V2.7s.3,1.229,1.223,1.241S5,3.944,5,3.944s1.087-.276,1.168-1,0-2.94,0-2.94.7,0,1.641,1.09A3.957,3.957,0,0,1,8.6,4.563c-.276,1.291-.318,1.42-1.119,2.15S6.226,7.764,6.169,8.855s.28,9.421.28,9.421a.514.514,0,0,1-.481.434,2.416,2.416,0,0,1-.687,0H3.1s-.458.024-.431-.7-.28-9.158-.28-9.158a2.72,2.72,0,0,0-.454-1.467A5.466,5.466,0,0,1,.053,4.563,4.434,4.434,0,0,1,2.295,0Z" transform="translate(3.265 15.098) rotate(-112)" fill="#0078d3"/>
        </g>
      </g>
      <path id="Path_432" data-name="Path 432" d="M-1560.241-5682.735h-10.071v-22.273h18.9v12.535" transform="translate(1828 6104)" fill="none" stroke="#223d77" stroke-width="1.5"/>
      <path id="Path_433" data-name="Path 433" d="M-1565.451-5698.68h10.284" transform="translate(1827.819 6103.765)" fill="none" stroke="#223d77" stroke-width="1.5"/>
      <path id="Path_434" data-name="Path 434" d="M-1565.451-5698.68h10.284" transform="translate(1827.819 6109.542)" fill="none" stroke="#223d77" stroke-width="1.5"/>
      <path id="Path_435" data-name="Path 435" d="M-1565.451-5698.68h4.333" transform="translate(1827.819 6114.356)" fill="none" stroke="#223d77" stroke-width="1.5"/>
    </g>
  </g>
</svg>
