<svg xmlns="http://www.w3.org/2000/svg" width="48" height="48" viewBox="0 0 48 48">
  <g id="Group_2098" data-name="Group 2098" transform="translate(-809 -63)">
    <circle id="Ellipse_211" data-name="Ellipse 211" cx="24" cy="24" r="24" transform="translate(809 63)" fill="#e88c34"/>
    <g id="Group_1724" data-name="Group 1724" transform="translate(0 1)">
      <rect id="Rectangle_1058" data-name="Rectangle 1058" width="32" height="32" transform="translate(817 70)" fill="#3c1a1a" opacity="0"/>
      <g id="Group_1721" data-name="Group 1721" transform="translate(-4 -1.266)">
        <g id="Path_251" data-name="Path 251" transform="translate(823 80)" fill="none">
          <path d="M2,0A33.14,33.14,0,0,0,7.917-.354C10.378-.82,17.31-3.729,17.31-3.729c.316,0,1.431-.112,1.864.734.6,1.139.339,4.4.339,5.191v5.1c0,1.1.523,5.574-.927,5.7-1.923.74-6.669-3.717-10.669-3.717A46.852,46.852,0,0,1,2,9,2,2,0,0,1,0,7V2A2,2,0,0,1,2,0Z" stroke="none"/>
          <path d="M 17.62219619750977 -2.233366966247559 C 16.18929290771484 -1.637700080871582 10.54164695739746 0.6754388809204102 8.196487426757812 1.12021541595459 C 6.488717079162598 1.44410514831543 4.40175724029541 1.51209545135498 2.951738357543945 1.51209545135498 C 2.445659637451172 1.51209545135498 2.092901229858398 1.503294944763184 1.98504638671875 1.500216484069824 C 1.716228485107422 1.508145332336426 1.499998092651367 1.729292869567871 1.499998092651367 1.999995708465576 L 1.499998092651367 6.999995231628418 C 1.499998092651367 7.27569580078125 1.724296569824219 7.499995231628418 1.999998092651367 7.499995231628418 L 2.107156753540039 7.500285625457764 L 2.211227416992188 7.514945507049561 C 2.229726791381836 7.517545700073242 4.104767799377441 7.775385856628418 7.916987419128418 7.775385856628418 C 10.38444709777832 7.775385856628418 12.8382568359375 9.079225540161133 15.00320720672607 10.22957515716553 C 16.05363273620605 10.78771877288818 17.3431568145752 11.47292137145996 17.96801376342773 11.56478404998779 C 18.01750946044922 11.35862159729004 18.07578277587891 10.99718856811523 18.09687805175781 10.39731597900391 C 18.12379837036133 9.631585121154785 18.0796070098877 8.784085273742676 18.04733657836914 8.165266036987305 C 18.02845764160156 7.803205490112305 18.01354789733887 7.51722526550293 18.01354789733887 7.294925689697266 L 18.01354789733887 2.197265625 C 18.01354789733887 2.02853536605835 18.02227783203125 1.800355911254883 18.0333366394043 1.511475563049316 C 18.05692672729492 0.8948354721069336 18.08924674987793 0.05032539367675781 18.05934715270996 -0.7537145614624023 C 18.02601623535156 -1.649958610534668 17.92844009399414 -2.058818817138672 17.87869262695312 -2.213266372680664 C 17.82769012451172 -2.22280216217041 17.74617767333984 -2.232358932495117 17.62219619750977 -2.233366966247559 M 17.60044479370117 -3.733450889587402 C 18.06341552734375 -3.733450889587402 18.83152198791504 -3.663305282592773 19.17431831359863 -2.994144439697266 C 19.77822685241699 -1.854824066162109 19.51354789733887 1.408605575561523 19.51354789733887 2.197265625 L 19.51354789733887 7.294925689697266 C 19.51354789733887 8.399496078491211 20.03625679016113 12.86913585662842 18.58617782592773 12.99218559265137 C 16.66296577453613 13.73242568969727 11.91698741912842 9.275385856628418 7.916987419128418 9.275385856628418 C 3.916988372802734 9.275385856628418 1.999998092651367 8.999995231628418 1.999998092651367 8.999995231628418 C 0.8954277038574219 8.999995231628418 -1.9073486328125e-06 8.104565620422363 -1.9073486328125e-06 6.999995231628418 L -1.9073486328125e-06 1.999995708465576 C -1.9073486328125e-06 0.8954257965087891 0.8954277038574219 -4.76837158203125e-06 1.999998092651367 -4.76837158203125e-06 C 1.999998092651367 -5.7220458984375e-06 5.455691337585449 0.113286018371582 7.916987419128418 -0.3535146713256836 C 10.37829780578613 -0.8203144073486328 17.31005668640137 -3.728514671325684 17.31005668640137 -3.728514671325684 C 17.37628936767578 -3.728514671325684 17.47763252258301 -3.733450889587402 17.60044479370117 -3.733450889587402 Z" stroke="none" fill="#fafafa"/>
        </g>
        <path id="Path_252" data-name="Path 252" d="M-1307.614,19979.539s3.435.914,3.47,3.676-3.47,3.555-3.47,3.555" transform="translate(2149 -19898.484)" fill="none" stroke="#fafafa" stroke-width="1.5"/>
        <g id="Path_253" data-name="Path 253" transform="translate(823.409 87.393)" fill="none">
          <path d="M1.261,0,5.043.247c.7,0,1.261.229,1.261.815l3.75,8.213a1.174,1.174,0,0,1-1.261,1.062H5.043A1.174,1.174,0,0,1,3.782,9.275L0,1.062A1.174,1.174,0,0,1,1.261,0Z" stroke="none"/>
          <path d="M 1.872751235961914 1.543152809143066 L 5.231872081756592 8.837894439697266 L 8.204898834228516 8.837879180908203 L 4.966041564941406 1.74512767791748 L 1.872751235961914 1.543152809143066 M 1.260655403137207 -3.814697265625e-06 L 5.042625427246094 0.2469358444213867 C 5.738875389099121 0.2469358444213867 6.303285598754883 0.4756660461425781 6.303285598754883 1.06242561340332 L 10.05371570587158 9.275465965270996 C 10.05371570587158 9.862225532531738 9.489295959472656 10.33789539337158 8.793055534362793 10.33789539337158 L 5.042625427246094 10.33789539337158 C 4.346385478973389 10.33789539337158 3.781975269317627 9.862225532531738 3.781975269317627 9.275465965270996 L -4.76837158203125e-06 1.06242561340332 C -4.76837158203125e-06 0.4756660461425781 0.5644159317016602 -3.814697265625e-06 1.260655403137207 -3.814697265625e-06 Z" stroke="none" fill="#fafafa"/>
        </g>
        <line id="Line_182" data-name="Line 182" y2="8" transform="translate(828.5 80.5)" fill="none" stroke="#fafafa" stroke-width="1.5"/>
        <line id="Line_183" data-name="Line 183" y1="1.734" x2="3" transform="translate(847.5 77.766)" fill="none" stroke="#fafafa" stroke-width="1.5"/>
        <line id="Line_184" data-name="Line 184" x2="3" transform="translate(849 84.467)" fill="none" stroke="#fafafa" stroke-width="1.5"/>
        <line id="Line_185" data-name="Line 185" x2="3" y2="2.141" transform="translate(847.5 88.5)" fill="none" stroke="#fafafa" stroke-width="1.5"/>
      </g>
    </g>
  </g>
</svg>
