<svg xmlns="http://www.w3.org/2000/svg" width="83" height="20" viewBox="0 0 83 20">
  <g id="Group_1903" data-name="Group 1903" transform="translate(-629 -210)">
    <g id="Rectangle_1082" data-name="Rectangle 1082" transform="translate(629 210)" fill="#fff" stroke="#707070" stroke-width="1">
      <rect width="83" height="20" rx="10" stroke="none"/>
      <rect x="0.5" y="0.5" width="82" height="19" rx="9.5" fill="none"/>
    </g>
    <path id="Path_275" data-name="Path 275" d="M2.688-1.308V-3.624H6.744V-4.908H2.688V-7.092H7.26V-8.4H1.128V0h6.3V-1.308ZM14.676,0,12.168-3.276l2.4-3.132h-1.62l-1.572,2.1L9.8-6.408H8.136l2.388,3.156L8.028,0H9.684L11.34-2.22,12.984,0Zm4.656-6.48a2.642,2.642,0,0,0-2.124.912v-.84H15.78V2.328h1.5V-.78a2.633,2.633,0,0,0,2.052.864A3.121,3.121,0,0,0,22.584-3.2,3.118,3.118,0,0,0,19.332-6.48ZM19.164-1.2a1.873,1.873,0,0,1-1.908-2,1.873,1.873,0,0,1,1.908-2,1.864,1.864,0,0,1,1.9,2A1.864,1.864,0,0,1,19.164-1.2Zm7.212-5.28a4.506,4.506,0,0,0-2.712.792L24.252-4.6A3.172,3.172,0,0,1,26.2-5.232c1.068,0,1.6.516,1.6,1.392v.1H26.136c-1.944,0-2.664.84-2.664,1.908,0,1.116.924,1.92,2.388,1.92A2.271,2.271,0,0,0,27.876-.78V0h1.416V-3.756C29.292-5.6,28.224-6.48,26.376-6.48Zm-.2,5.472c-.768,0-1.224-.348-1.224-.888,0-.468.276-.852,1.3-.852h1.548V-2A1.633,1.633,0,0,1,26.172-1.008ZM34.848-6.48a2.786,2.786,0,0,0-2.208.9v-.828H31.212V0h1.5V-3.24A1.7,1.7,0,0,1,34.5-5.172c.96,0,1.524.552,1.524,1.692V0h1.5V-3.672A2.5,2.5,0,0,0,34.848-6.48ZM44.268-8.9v3.288A2.624,2.624,0,0,0,42.2-6.48,3.109,3.109,0,0,0,38.964-3.2,3.118,3.118,0,0,0,42.2.084a2.642,2.642,0,0,0,2.124-.912V0h1.44V-8.9ZM42.384-1.2a1.873,1.873,0,0,1-1.908-2,1.873,1.873,0,0,1,1.908-2,1.873,1.873,0,0,1,1.908,2A1.873,1.873,0,0,1,42.384-1.2Z" transform="translate(641 224)" fill="#6b747c"/>
    <g id="Component_319_382" data-name="Component 319 – 382" transform="translate(712 230) rotate(180)">
      <g id="Ellipse_222" data-name="Ellipse 222" fill="#fff" stroke="#6b747c" stroke-width="1">
        <circle cx="10" cy="10" r="10" stroke="none"/>
        <circle cx="10" cy="10" r="9.5" fill="none"/>
      </g>
      <rect id="Rectangle_915" data-name="Rectangle 915" width="16" height="16" transform="translate(18 2) rotate(90)" fill="none"/>
      <path id="Path_44" data-name="Path 44" d="M-4267.785,8892.161l4.079,4.744,3.931-4.744" transform="translate(8903.918 4273.839) rotate(90)" fill="none" stroke="#6c757d" stroke-width="1.5"/>
    </g>
  </g>
</svg>
