<svg xmlns="http://www.w3.org/2000/svg" width="88" height="20" viewBox="0 0 88 20">
  <g id="Group_1907" data-name="Group 1907" transform="translate(-7750 -1760)">
    <g id="Group_1904" data-name="Group 1904" transform="translate(7041 1530)">
      <g id="Rectangle_1083" data-name="Rectangle 1083" transform="translate(709 230)" fill="#fff" stroke="#707070" stroke-width="1">
        <rect width="88" height="20" rx="10" stroke="none"/>
        <rect x="0.5" y="0.5" width="87" height="19" rx="9.5" fill="none"/>
      </g>
      <path id="Path_277" data-name="Path 277" d="M5.016.12a4.263,4.263,0,0,0,3.336-1.4l-1.008-.96a2.92,2.92,0,0,1-2.244,1A2.868,2.868,0,0,1,2.1-4.2a2.868,2.868,0,0,1,3-2.952,2.95,2.95,0,0,1,2.244.984l1.008-.948a4.255,4.255,0,0,0-3.324-1.4A4.281,4.281,0,0,0,.528-4.2,4.277,4.277,0,0,0,5.016.12ZM12.348.084A3.232,3.232,0,0,0,15.768-3.2a3.222,3.222,0,0,0-3.42-3.276A3.226,3.226,0,0,0,8.94-3.2,3.235,3.235,0,0,0,12.348.084Zm0-1.284a1.864,1.864,0,0,1-1.9-2,1.864,1.864,0,0,1,1.9-2,1.866,1.866,0,0,1,1.908,2A1.866,1.866,0,0,1,12.348-1.2ZM17.208,0h1.5V-8.9h-1.5Zm3.468,0h1.5V-8.9h-1.5Zm5.916-6.48a4.506,4.506,0,0,0-2.712.792L24.468-4.6a3.172,3.172,0,0,1,1.944-.636c1.068,0,1.6.516,1.6,1.392v.1H26.352c-1.944,0-2.664.84-2.664,1.908,0,1.116.924,1.92,2.388,1.92A2.271,2.271,0,0,0,28.092-.78V0h1.416V-3.756C29.508-5.6,28.44-6.48,26.592-6.48Zm-.2,5.472c-.768,0-1.224-.348-1.224-.888,0-.468.276-.852,1.3-.852h1.548V-2A1.633,1.633,0,0,1,26.388-1.008ZM34.98-6.48a2.642,2.642,0,0,0-2.124.912v-.84H31.428V2.328h1.5V-.78A2.633,2.633,0,0,0,34.98.084,3.121,3.121,0,0,0,38.232-3.2,3.118,3.118,0,0,0,34.98-6.48ZM34.812-1.2a1.873,1.873,0,0,1-1.908-2,1.873,1.873,0,0,1,1.908-2,1.864,1.864,0,0,1,1.9,2A1.864,1.864,0,0,1,34.812-1.2ZM41.64.084c1.8,0,2.9-.78,2.9-1.98,0-2.508-3.96-1.356-3.96-2.652,0-.42.432-.72,1.344-.72a3.508,3.508,0,0,1,1.836.48l.576-1.14a5.1,5.1,0,0,0-2.4-.552c-1.728,0-2.82.792-2.82,2,0,2.556,3.96,1.4,3.96,2.628,0,.444-.4.708-1.344.708A4.312,4.312,0,0,1,39.5-1.776l-.576,1.14A5.091,5.091,0,0,0,41.64.084ZM51.864-3.168a3.125,3.125,0,0,0-3.24-3.312A3.187,3.187,0,0,0,45.312-3.2,3.254,3.254,0,0,0,48.852.084,3.248,3.248,0,0,0,51.432-.96l-.8-.924a2.3,2.3,0,0,1-1.74.7,1.939,1.939,0,0,1-2.076-1.536H51.84C51.852-2.868,51.864-3.048,51.864-3.168ZM48.624-5.28a1.744,1.744,0,0,1,1.812,1.56H46.8A1.771,1.771,0,0,1,48.624-5.28Z" transform="translate(733 244)" fill="#6b747c"/>
      <g id="Component_319_385" data-name="Component 319 – 385" transform="translate(709 230)">
        <g id="Ellipse_222" data-name="Ellipse 222" fill="#fff" stroke="#6b747c" stroke-width="1">
          <circle cx="10" cy="10" r="10" stroke="none"/>
          <circle cx="10" cy="10" r="9.5" fill="none"/>
        </g>
        <rect id="Rectangle_915" data-name="Rectangle 915" width="16" height="16" transform="translate(18 2) rotate(90)" fill="none"/>
        <path id="Path_44" data-name="Path 44" d="M-4267.785,8892.161l4.079,4.744,3.931-4.744" transform="translate(-8884.148 -4253.721) rotate(-90)" fill="none" stroke="#6c757d" stroke-width="1.5"/>
      </g>
    </g>
  </g>
</svg>
