<svg xmlns="http://www.w3.org/2000/svg" width="48" height="48" viewBox="0 0 48 48">
  <g id="Group_2415" data-name="Group 2415" transform="translate(-250 -376.602)">
    <g id="Component_361_36" data-name="Component 361 – 36" transform="translate(250 376.602)">
      <circle id="Ellipse_256" data-name="Ellipse 256" cx="24" cy="24" r="24" fill="#fcfdff"/>
    </g>
    <g id="Group_2400" data-name="Group 2400" transform="translate(2 2)">
      <g id="Group_2398" data-name="Group 2398" transform="translate(258.139 384.425)">
        <path id="Path_424" data-name="Path 424" d="M-358.928-5672.346s-6.813-8.04.328-17.377c8.706-9.166,18.855-1.664,18.855-1.664" transform="translate(361.861 5695.295)" fill="none" stroke="#223d77" stroke-width="1.5"/>
        <path id="Path_425" data-name="Path 425" d="M3.311,0,3.619,3.67,0,4.238" transform="matrix(0.995, -0.105, 0.105, 0.995, 18.073, 0.379)" fill="none" stroke="#223d77" stroke-width="1.5"/>
      </g>
      <g id="Group_2399" data-name="Group 2399" transform="translate(285 412.119) rotate(180)">
        <path id="Path_424-2" data-name="Path 424" d="M3.174,22.043a13.86,13.86,0,0,1,0-17.541C11.88-4.664,22.356,3,22.356,3" transform="translate(0 0)" fill="none" stroke="#223d77" stroke-width="1.5"/>
        <path id="Path_425-2" data-name="Path 425" d="M3.237,0l.3,3.588L0,4.144" transform="translate(18.818)" fill="none" stroke="#223d77" stroke-width="1.5"/>
      </g>
      <path id="Path_449" data-name="Path 449" d="M-351.828-5680.894l3.8,4.485,9.062-10.349" transform="translate(617.368 6079.36)" fill="none" stroke="#0078d3" stroke-width="3"/>
    </g>
  </g>
</svg>
