<svg id="Component_323_20" data-name="Component 323 – 20" xmlns="http://www.w3.org/2000/svg" width="24" height="24" viewBox="0 0 24 24">
  <g id="ico" transform="translate(1.5 3.75)">
    <g id="_66_folder_archive_file" data-name="66 folder, archive, file">
      <path id="Path_174" data-name="Path 174" d="M20.75,6.5H12.5V8h8.25a.75.75,0,0,1,.75.75v9a.75.75,0,0,1-.75.75H20V11.75A2.25,2.25,0,0,0,17.75,9.5H11V7.25A2.25,2.25,0,0,0,8.75,5H4.25A2.25,2.25,0,0,0,2,7.25v12A2.25,2.25,0,0,0,4.25,21.5h13.5A2.25,2.25,0,0,0,19.865,20h.885A2.25,2.25,0,0,0,23,17.75v-9A2.25,2.25,0,0,0,20.75,6.5ZM18.5,19.25a.75.75,0,0,1-.75.75H4.25a.75.75,0,0,1-.75-.75v-12a.75.75,0,0,1,.75-.75h4.5a.75.75,0,0,1,.75.75v3a.75.75,0,0,0,.75.75h7.5a.75.75,0,0,1,.75.75Z" transform="translate(-2 -5)" fill="#161616"/>
    </g>
  </g>
  <g id="Rectangle_632" data-name="Rectangle 632" fill="none" stroke="#707070" stroke-width="1" opacity="0">
    <rect width="24" height="24" stroke="none"/>
    <rect x="0.5" y="0.5" width="23" height="23" fill="none"/>
  </g>
</svg>
