<svg id="Component_320_48" data-name="Component 320 – 48" xmlns="http://www.w3.org/2000/svg" width="24" height="24" viewBox="0 0 24 24">
  <g id="graph" transform="translate(1.895 2.211)">
    <path id="Path_177" data-name="Path 177" d="M22.172,34.234a.3.3,0,0,1-.321.264H1.321a.269.269,0,1,1,0-.529H3.289V28.2a.3.3,0,0,1,.321-.264H4.883A.3.3,0,0,1,5.2,28.2V33.97H8.281V25.6A.3.3,0,0,1,8.6,25.34H9.871a.3.3,0,0,1,.321.264V33.97h3.078V29.08a.3.3,0,0,1,.321-.264h1.269a.3.3,0,0,1,.321.264v4.89h3.078V23.864a.3.3,0,0,1,.321-.264h1.253a.3.3,0,0,1,.321.264V33.97h1.7A.3.3,0,0,1,22.172,34.234Z" transform="translate(-1 -14.744)" fill="#161616"/>
    <path id="Path_178" data-name="Path 178" d="M6.8,11.057a1.373,1.373,0,0,1,2.46-.844l2.582-2.3a1.476,1.476,0,0,1-.058-.4,1.376,1.376,0,1,1,2.749,0,1.354,1.354,0,0,1-.176.667l2.817,2.246h0a1.367,1.367,0,0,1,.962-.4,1.383,1.383,0,0,1,.436.071l3.561-4.562a1.37,1.37,0,1,1,.994.433,1.334,1.334,0,0,1-.455-.08l-3.545,4.562a1.354,1.354,0,0,1,.391.962,1.376,1.376,0,1,1-2.749,0,1.315,1.315,0,0,1,.067-.423L13.915,8.658a1.363,1.363,0,0,1-1.745-.183L9.523,10.829a1.338,1.338,0,0,1,.019.228,1.376,1.376,0,0,1-2.752,0Z" transform="translate(-4.933 -3.23)" fill="#161616"/>
  </g>
  <g id="Rectangle_633" data-name="Rectangle 633" fill="none" stroke="#707070" stroke-width="1" opacity="0">
    <rect width="24" height="24" stroke="none"/>
    <rect x="0.5" y="0.5" width="23" height="23" fill="none"/>
  </g>
</svg>
