<?xml version="1.0" encoding="UTF-8"?><svg xmlns="http://www.w3.org/2000/svg" viewBox="0 0 36.22 36.23"><defs><style>.d{fill:#1c9fda;}</style></defs><g id="a"/><g id="b"><g id="c"><g><path class="d" d="M33.48,0H2.75C1.24,0,0,1.24,0,2.75V26.98c0,1.51,1.24,2.74,2.75,2.74H14.07v2.92h-.77c-1.68,0-3.05,1.37-3.05,3.05,0,.31,.24,.55,.55,.55h14.63c.31,0,.55-.25,.55-.55,0-1.68-1.37-3.05-3.05-3.05h-.77v-2.92h11.31c1.52,0,2.75-1.22,2.75-2.74V2.75c0-1.51-1.23-2.75-2.75-2.75ZM1.1,2.75c0-.91,.74-1.64,1.65-1.64h30.72c.91,0,1.65,.73,1.65,1.64V24.5h-2.99V11.7c0-.31-.25-.54-.55-.54s-.55,.23-.55,.54v12.8h-2.75V13.34c0-.29-.24-.54-.55-.54s-.55,.24-.55,.54v11.16h-2.75v-7.87c0-.29-.24-.54-.55-.54s-.55,.25-.55,.54v7.87h-2.75V15.54c0-.29-.25-.54-.55-.54s-.55,.24-.55,.54v8.96h-2.75v-6.76c0-.31-.24-.55-.55-.55s-.55,.24-.55,.55v6.76h-2.75v-5.67c0-.29-.25-.55-.55-.55s-.55,.26-.55,.55v5.67h-2.75v-7.87c0-.29-.25-.54-.55-.54s-.55,.25-.55,.54v7.87h-2.75v-4.56c0-.31-.24-.55-.55-.55s-.55,.24-.55,.55v4.56H1.1V2.75ZM24.8,35.14H11.42c.24-.81,.99-1.4,1.87-1.4h9.64c.88,0,1.63,.59,1.86,1.4Zm-3.74-2.51h-5.9v-2.92h5.9v2.92Zm14.07-5.65c0,.9-.74,1.64-1.65,1.64H2.75c-.91,0-1.65-.75-1.65-1.64v-1.37H35.13v1.37Z"/><path class="d" d="M19.77,11.78l-3.8,2.15-3.56,1.03-3.65-2.09c-.2-.12-.46-.08-.63,.07l-3.85,3.29c-.23,.2-.26,.54-.07,.77,.12,.13,.27,.2,.42,.2,.12,0,.25-.05,.36-.13l3.55-3.05,3.52,2c.13,.08,.28,.1,.42,.07l3.84-1.11s.08-.03,.12-.05l3.65-2.09,3.62,1.04c.18,.05,.37,0,.51-.11l3.79-3.24,1.16-.49,.42,.99,1.97-2.62-3.26-.39,.43,1.01-1.24,.52s-.1,.05-.14,.08l-3.63,3.11-3.56-1.01c-.15-.05-.29-.03-.42,.05Z"/><path class="d" d="M16.17,4.77h3.87c.31,0,.55-.24,.55-.55,0-.29-.25-.54-.55-.54h-3.87c-.3,0-.55,.24-.55,.54,0,.31,.25,.55,.55,.55Z"/><path class="d" d="M4.64,4.77H13.45c.3,0,.55-.24,.55-.55,0-.29-.25-.54-.55-.54H4.64c-.3,0-.55,.24-.55,.54,0,.31,.25,.55,.55,.55Z"/><path class="d" d="M20.04,8.13c.31,0,.55-.25,.55-.55s-.25-.54-.55-.54h-6.61c-.3,0-.55,.24-.55,.54,0,.31,.24,.55,.55,.55h6.61Z"/><path class="d" d="M4.64,8.13h6.07c.3,0,.55-.25,.55-.55s-.24-.54-.55-.54H4.64c-.3,0-.55,.24-.55,.54,0,.31,.25,.55,.55,.55Z"/><path class="d" d="M9.3,10.95c0,.31,.25,.54,.55,.54h5.25c.3,0,.55-.23,.55-.54s-.25-.55-.55-.55h-5.25c-.3,0-.55,.25-.55,.55Z"/><path class="d" d="M4.64,11.48h2.49c.3,0,.55-.23,.55-.54s-.25-.55-.55-.55h-2.49c-.3,0-.55,.25-.55,.55s.25,.54,.55,.54Z"/></g></g></g></svg>