<svg id="Component_364_1" data-name="Component 364 – 1" xmlns="http://www.w3.org/2000/svg" width="24" height="24" viewBox="0 0 24 24">
  <g id="Group_2454" data-name="Group 2454" transform="translate(-16 -341)">
    <g id="Group_1386" data-name="Group 1386">
      <rect id="Rectangle_801" data-name="Rectangle 801" width="24" height="24" transform="translate(16 341)" fill="none" opacity="0.608"/>
      <g id="Ellipse_266" data-name="Ellipse 266" transform="translate(20 346)" fill="#fff" stroke="#161616" stroke-width="1">
        <circle cx="1" cy="1" r="1" stroke="none"/>
        <circle cx="1" cy="1" r="0.5" fill="none"/>
      </g>
      <g id="Ellipse_267" data-name="Ellipse 267" transform="translate(23 346)" fill="#fff" stroke="#161616" stroke-width="1">
        <circle cx="1" cy="1" r="1" stroke="none"/>
        <circle cx="1" cy="1" r="0.5" fill="none"/>
      </g>
      <g id="Ellipse_268" data-name="Ellipse 268" transform="translate(26 346)" fill="#fff" stroke="#161616" stroke-width="1">
        <circle cx="1" cy="1" r="1" stroke="none"/>
        <circle cx="1" cy="1" r="0.5" fill="none"/>
      </g>
      <path id="Path_466" data-name="Path 466" d="M6.312-4.8H4.188V-6.9H2.9v2.1H.78v1.2H2.9v2.1H4.188V-3.6H6.312Z" transform="translate(24.22 360)" fill="#161616"/>
      <line id="Line_284" data-name="Line 284" x2="20" transform="translate(17.5 349.5)" fill="none" stroke="#161616" stroke-width="1"/>
    </g>
  </g>
  <path id="Path_467" data-name="Path 467" d="M-1853.9-262.142l-1.682,2.065-2.657-7.75,7.49,3.551-2.245,1.412,1.928,2.23-.854.734Z" transform="translate(1874.374 282.28)" stroke="#707070" stroke-width="0.1"/>
  <path id="Path_468" data-name="Path 468" d="M-1859.587-262.731h-14.718v-18.493h20.388v12.266" transform="translate(1876 284)" fill="none" stroke="#161616" stroke-width="1.5"/>
</svg>
