<svg xmlns="http://www.w3.org/2000/svg" width="48" height="48" viewBox="0 0 48 48">
  <g id="Group_2417" data-name="Group 2417" transform="translate(-250 -451.602)">
    <g id="Group_2416" data-name="Group 2416">
      <circle id="Ellipse_263" data-name="Ellipse 263" cx="24" cy="24" r="24" transform="translate(250 451.602)" fill="#fcfdff"/>
      <g id="Group_2412" data-name="Group 2412" transform="translate(4.337 1)">
        <path id="Path_450" data-name="Path 450" d="M-355.294-5608.252v-3.889s.045-1.46,1.263-1.382,14.423,0,14.423,0,1.688-.113,1.688,1.886v16.435a1.548,1.548,0,0,1-1.688,1.462h-14s-1.682.215-1.682-1.15v-.333" transform="translate(618.84 6081.334)" fill="none" stroke="#223d77" stroke-width="1.5"/>
        <path id="Path_451" data-name="Path 451" d="M-343.879-5614.09v-1.226s.1-1.147-1.392-1.147H-359.65a1.548,1.548,0,0,0-1.669,1.826c.128,1.958,0,16.332,0,16.332s-.314,1.647,1.669,1.647h3.961" transform="translate(620 6079.801)" fill="none" stroke="#223d77" stroke-width="1.5"/>
        <path id="Path_452" data-name="Path 452" d="M-356.689-5600.566h13.143" transform="translate(619.108 6077.105)" fill="none" stroke="#0078d3" stroke-width="2"/>
        <path id="Path_453" data-name="Path 453" d="M-342.946-5605.106l3.432,3.928-3.432,3.682" transform="translate(615.636 6077.841)" fill="none" stroke="#0078d3" stroke-width="2"/>
      </g>
    </g>
  </g>
</svg>
