<svg xmlns="http://www.w3.org/2000/svg" viewBox="0 0 512 512"><!--!Font Awesome Free 6.5.1 by @fontawesome - https://fontawesome.com License - https://fontawesome.com/license/free Copyright 2024 Fonticons, Inc.--><path d="M48 256C48 141.1 141.1 48 256 48c63.1 0 119.6 28.1 157.8 72.4c8.6 10.1 23.8 11.2 33.8 2.6s11.2-23.8 2.6-33.8C403.3 34.6 333.7 0 256 0C114.6 0 0 114.6 0 256l0 40c0 13.3 10.7 24 24 24s24-10.7 24-24l0-40zm458.5-52.9c-2.7-13-15.5-21.3-28.4-18.5s-21.3 15.5-18.5 28.4c2.9 13.9 4.5 28.3 4.5 43.1l0 40c0 13.3 10.7 24 24 24s24-10.7 24-24l0-40c0-18.1-1.9-35.8-5.5-52.9zM256 80c-19.3 0-37.9 3.2-55.3 9.1c-12.5 4.3-19.2 17.8-14.9 30.4s17.8 19.2 30.4 14.9C228.5 130.2 242 128 256 128c70.7 0 128 57.3 128 128l0 40c0 13.3 10.7 24 24 24s24-10.7 24-24l0-40c0-97.2-78.8-176-176-176zM150.7 148.7c-9.1-10.6-25.3-11.4-33.9-.3C93.7 176 80 214.5 80 256l0 40c0 13.3 10.7 24 24 24s24-10.7 24-24l0-40c0-31.1 10.2-59.8 27.4-83c7.7-10.5 6.9-24.7-4.7-30.3zM256 160c-53 0-96 43-96 96l0 40c0 13.3 10.7 24 24 24s24-10.7 24-24l0-40c0-26.5 21.5-48 48-48s48 21.5 48 48l0 136c0 13.3 10.7 24 24 24s24-10.7 24-24l0-136c0-53-43-96-96-96zm-21.4 233.4c1.8-12.2-7.5-24.1-21-25.7s-24.1 7.5-25.7 21C185.1 410.3 167.1 432 144 432c-26.5 0-48-28.7-48-64l0-40c0-13.3-10.7-24-24-24s-24 10.7-24 24l0 40c0 53 43 96 96 96c40.1 0 74.7-24.8 87.6-60.6zM280 392l0 72c0 13.3 10.7 24 24 24s24-10.7 24-24l0-72c0-13.3-10.7-24-24-24s-24 10.7 24 24zm121-11.2c4.3 12.5 17.8 19.2 30.3 14.9C467 382.7 496 344.4 496 296l0-40c0-13.3-10.7-24-24-24s-24 10.7-24 24l0 40c0 30.1-17.1 56.2-42.2 69c-12 6.2-16.7 20.9-4.8 31.8z"/></svg>
