<svg id="Component_346_8" data-name="Component 346 – 8" xmlns="http://www.w3.org/2000/svg" width="16" height="16" viewBox="0 0 16 16">
  <rect id="Rectangle_1066" data-name="Rectangle 1066" width="16" height="16" fill="none"/>
  <g id="Group_1801" data-name="Group 1801" transform="translate(-387 -580)">
    <path id="Path_261" data-name="Path 261" d="M-17433,12273.216a3.467,3.467,0,0,0,2.377-.763c1.457-.957,4.387-2.838,4.387-2.838a.657.657,0,0,0,0-.894,1.993,1.993,0,0,0-1.484-.891c-.711-.036-10.545,0-10.545,0a1.721,1.721,0,0,0-1.617,1.235c.047.083-.092.226.207.549,1.16.866,4.742,3.054,5.439,3.4A1.649,1.649,0,0,0-17433,12273.216Z" transform="translate(17828 -11685)" fill="#9aa7b4"/>
    <path id="Path_262" data-name="Path 262" d="M-17439.588,12276.833l3.795-2.868s.172-.35.791-.117a4.443,4.443,0,0,0,1.834.546,7.854,7.854,0,0,0,2.166-.546.61.61,0,0,1,.7,0c.369.255,3.9,2.985,3.9,2.985s.311.3-.137.742a2.289,2.289,0,0,1-1.137.536h-10.713a2.666,2.666,0,0,1-1.207-.536A.6.6,0,0,1-17439.588,12276.833Z" transform="translate(17828 -11685)" fill="#9aa7b4"/>
    <path id="Path_263" data-name="Path 263" d="M-17439.537,12271.05l3.168,2.031-3.168,2.392s-.559.262-.529-.337,0-3.811,0-3.811a.492.492,0,0,1,.188-.275A.529.529,0,0,1-17439.537,12271.05Z" transform="translate(17828 -11685)" fill="#9aa7b4"/>
    <path id="Path_264" data-name="Path 264" d="M-17429.576,12273.063l3.08-2s.514-.2.566.165,0,3.974,0,3.974-.135.517-.566.249S-17429.576,12273.063-17429.576,12273.063Z" transform="translate(17828 -11685)" fill="#9aa7b4"/>
  </g>
</svg>
