<?xml version="1.0" encoding="UTF-8"?>
<!-- Uploaded to: SVG Repo, www.svgrepo.com, Generator: SVG Repo Mixer Tools -->
<!--
  MariaDB brand seal — wordmark stripped so only the sea-lion glyph
  remains, matching the icon-only treatment of the other engines in
  the datasource dropdown. The original SVG_Repo source bundles the
  "MariaDB" lettering as a #A57242 path; that path has been removed
  and the viewBox cropped to the seal extents.
-->
<svg width="800px" height="800px" viewBox="-10 -180.5 240 340" version="1.1" xmlns="http://www.w3.org/2000/svg" xmlns:xlink="http://www.w3.org/1999/xlink" preserveAspectRatio="xMidYMid">
    <g>
        <path d="M222.340741,0.00397152498 C218.827447,0.116232266 219.938538,1.12853844 212.347044,2.99674427 C204.681026,4.8832936 195.31685,4.30480945 187.061728,7.76692817 C162.418726,18.101743 157.474437,53.4246735 135.071605,66.0780393 C118.326044,75.5367652 101.431321,76.2911751 86.2419753,81.0508788 C76.2598716,84.1810319 65.3403654,90.6003235 56.2962963,98.3940887 C49.2762074,104.445802 49.0929114,109.766822 41.7580247,117.357052 C33.9124148,125.475728 10.5762765,117.494242 0,129.920015 C3.40701235,133.364953 4.90067437,134.329864 11.6148148,133.436064 C10.2247411,136.070765 2.03054143,138.291101 3.6345679,142.166928 C5.32234746,146.245128 25.1324871,149.009701 43.1407407,138.137299 C51.5274272,133.073871 58.2074596,125.775672 71.2691358,124.033595 C88.1714568,121.780795 107.64264,125.478585 127.209877,128.300262 C124.308543,136.951165 118.48345,142.704212 113.817284,149.594089 C112.372306,151.150316 116.719553,151.324762 121.679012,150.384212 C130.600454,148.178187 137.02986,146.40199 143.762963,142.482978 C152.034607,137.667649 153.288072,125.322141 163.437037,122.650879 C169.091793,131.342237 184.471426,133.395306 194.014815,126.443471 C185.64077,124.073101 183.326366,106.248548 186.153086,98.3940887 C188.830657,90.959343 191.476344,79.0664047 194.17284,69.2385331 C197.067852,58.6837479 198.135884,45.3804077 201.639506,40.0039652 C206.910767,31.9150099 212.735305,29.1372393 217.792057,24.5759514 C222.848796,20.0146635 227.47734,15.5746121 227.325446,5.13744787 C227.276522,1.7756938 225.538326,-0.0982135614 222.340741,0.00397152498 L222.340741,0.00397152498 Z" fill="#002B64">
</path>
        <path d="M215.447072,6.20596027 C216.291556,9.08453804 217.612642,10.4056245 223.324286,10.934059 C222.489916,18.1753825 217.659417,22.1361134 212.243595,25.9362911 C207.47757,29.2788294 202.256435,32.4974763 198.901254,37.7186121 C195.463901,43.0674319 193.281896,61.3730121 187.95204,79.4510368 C183.345304,95.0714615 176.388425,110.516163 164.239486,117.283412 C162.970232,114.088785 164.401304,108.192568 161.876701,106.254553 C160.243358,110.913121 158.396365,115.358039 156.233323,119.489437 C149.104514,133.114958 138.549728,143.317032 120.911644,146.432015 C129.280632,135.107333 137.283002,123.412242 137.456198,103.893032 C131.566301,105.167343 131.691457,119.079837 125.639743,122.799106 C121.759921,123.221348 117.829531,123.21882 113.873857,122.98115 C97.6289185,122.007718 80.9642667,117.125387 65.7673481,122.001397 C55.4198914,125.322444 46.9573531,133.156676 38.1952,136.956854 C27.8970469,141.423264 20.0982123,143.260143 7.27419259,141.423264 C5.64590617,139.229881 16.6595951,136.399343 16.0009481,131.637111 C10.982084,131.082128 8.06810864,132.298286 3.70536296,130.316024 C4.18702222,129.428558 4.89497284,128.689002 5.7862321,128.073338 C13.7822815,122.538681 36.4948543,126.766158 42.573116,120.797881 C46.3252543,117.116538 48.7866469,113.263264 51.3352691,109.517447 C53.8067753,105.882879 56.3617185,102.349447 60.2541827,99.1649331 C61.6915753,97.9892294 63.2541235,96.8274319 64.9127506,95.6934467 C71.5459951,91.1537134 79.7519012,87.036222 87.8275951,84.1980985 C98.828642,80.3309183 109.976336,80.0123405 121.701768,75.5320245 C128.94562,72.7634319 136.822835,69.3437775 143.243694,64.5587899 C144.768316,63.4210121 146.210765,62.2086467 147.544494,60.9090516 C165.879151,43.0358269 169.513719,11.5080047 198.118716,8.57000965 C201.57756,8.21477014 204.409363,8.32981212 206.987062,8.25143187 C209.957926,8.16293804 212.587457,7.81781212 215.447072,6.20596027 Z M180.57527,107.112892 C180.916603,112.576754 184.088475,123.417248 186.888672,126.051836 C181.404584,127.385564 171.957235,125.182068 169.533769,121.313623 C170.779003,115.728399 177.25928,110.622305 180.57527,107.112892 Z" fill="#C49A6C" fill-rule="nonzero">
</path>
        <path d="M216.84004,12.2250323 C215.762944,14.4841533 213.701038,17.3968644 213.701038,23.1476989 C213.692188,24.1350372 212.951369,24.8113829 212.938727,23.2892891 C212.994351,17.6686668 214.482312,15.2388792 216.062559,12.0455162 C216.797058,10.7370718 217.239527,11.2768841 216.84004,12.2250323 Z M215.755359,11.3742273 C214.48484,13.5296841 211.425482,17.4613384 210.919803,23.1906816 C210.826253,24.1729631 210.02728,24.7810421 210.148643,23.2627409 C210.699833,17.669931 213.144791,14.1693681 215.000633,11.1264446 C215.842588,9.88879523 216.238282,10.4652693 215.755359,11.3742273 Z M214.766756,10.2465631 C213.31925,12.2869779 208.610114,17.0087557 207.625304,22.6761533 C207.448317,23.6457928 206.601304,24.1868693 206.850351,22.6837384 C207.869295,17.1554026 211.928633,12.8103557 214.033522,9.93683473 C214.976613,8.77250881 215.321739,9.38058782 214.766756,10.2465631 Z M213.884346,8.98868659 L213.408121,9.49522682 C211.30253,11.752654 206.411009,17.2586676 204.78086,22.2981582 C204.467339,23.2336644 203.553324,23.6508495 204.012228,22.1970224 C205.797275,16.8671656 210.713739,11.1264446 213.20168,8.57782239 C214.300267,7.55761498 214.555635,8.20867671 213.884346,8.98868659 Z M188.609245,20.3993335 C189.700248,15.7129533 193.344929,13.5777236 199.63684,14.098573 C201.155142,21.0933779 192.65847,23.9150668 188.609245,20.3993335 Z" fill="#002B64">
</path>
    </g>
</svg>