<?xml version="1.0" encoding="UTF-8"?><svg xmlns="http://www.w3.org/2000/svg" viewBox="0 0 34.3 37.42"><defs><style>.d{fill:#1c9fda;}</style></defs><g id="a"/><g id="b"><g id="c"><g><g><path class="d" d="M17.15,29.07c-1.83,0-3.33-1.49-3.33-3.33s1.49-3.33,3.33-3.33,3.33,1.49,3.33,3.33-1.49,3.33-3.33,3.33Zm0-5.47c-1.18,0-2.14,.96-2.14,2.14s.96,2.14,2.14,2.14,2.14-.96,2.14-2.14-.96-2.14-2.14-2.14Z"/><path class="d" d="M23,37.42H11.3c-.33,0-.59-.27-.59-.59v-3.96c0-1.96,1.59-3.55,3.55-3.55h.18c.43,0,.82,.17,1.08,.48,.41,.48,1,.76,1.63,.76s1.22-.28,1.63-.76c.26-.3,.65-.48,1.08-.48h.18c1.96,0,3.55,1.59,3.55,3.55v3.96c0,.33-.27,.59-.59,.59Zm-11.11-1.18h10.51v-3.37c0-1.31-1.06-2.37-2.37-2.37h-.18c-.07,0-.14,.02-.17,.06-.63,.75-1.56,1.18-2.54,1.18s-1.9-.43-2.54-1.18c-.03-.03-.1-.06-.17-.06h-.18c-1.31,0-2.37,1.06-2.37,2.37v3.37Z"/></g><path class="d" d="M27.86,29.05c-1.83,0-3.33-1.49-3.33-3.33s1.49-3.33,3.33-3.33,3.33,1.49,3.33,3.33-1.49,3.33-3.33,3.33Zm0-5.47c-1.18,0-2.14,.96-2.14,2.14s.96,2.14,2.14,2.14,2.14-.96,2.14-2.14-.96-2.14-2.14-2.14Z"/><path class="d" d="M25.77,30.75c-.17,0-.34-.07-.45-.21-.03-.03-.1-.06-.17-.06h-.18c-.17,0-.34,.02-.51,.05-.32,.07-.63-.13-.71-.45-.07-.32,.13-.64,.45-.71,.25-.05,.5-.08,.76-.08h.18c.43,0,.82,.17,1.08,.48,.21,.25,.18,.62-.07,.83-.11,.09-.25,.14-.38,.14Z"/><path class="d" d="M33.71,37.41h-10.71c-.33,0-.59-.27-.59-.59s.27-.59,.59-.59h10.12v-3.37c0-1.31-1.06-2.37-2.37-2.37h-.18c-.07,0-.14,.02-.17,.06-.63,.75-1.56,1.18-2.54,1.18s-1.9-.43-2.54-1.18c-.21-.25-.18-.62,.07-.83,.25-.21,.62-.18,.83,.07,.41,.48,1,.76,1.63,.76s1.22-.28,1.63-.76c.26-.3,.65-.48,1.08-.48h.18c1.96,0,3.55,1.59,3.55,3.55v3.96c0,.33-.27,.59-.59,.59Z"/><path class="d" d="M6.44,29.03c-1.83,0-3.33-1.49-3.33-3.33s1.49-3.33,3.33-3.33,3.33,1.49,3.33,3.33-1.49,3.33-3.33,3.33Zm0-5.47c-1.18,0-2.14,.96-2.14,2.14s.96,2.14,2.14,2.14,2.14-.96,2.14-2.14-.96-2.14-2.14-2.14Z"/><path class="d" d="M8.53,30.73c-.14,0-.27-.05-.38-.14-.25-.21-.28-.58-.07-.83,.26-.3,.65-.48,1.08-.48h.18c.26,0,.51,.03,.76,.08,.32,.07,.52,.38,.45,.7s-.38,.52-.7,.45c-.17-.04-.34-.05-.51-.05h-.18c-.07,0-.14,.02-.17,.06-.12,.14-.28,.21-.45,.21Z"/><path class="d" d="M11.3,37.39H.59c-.33,0-.59-.27-.59-.59v-3.96c0-1.96,1.59-3.55,3.55-3.55h.18c.43,0,.82,.17,1.08,.48,.41,.48,1,.76,1.63,.76s1.22-.28,1.63-.76c.21-.25,.58-.28,.83-.07,.25,.21,.28,.58,.07,.83-.63,.75-1.56,1.18-2.54,1.18s-1.9-.43-2.54-1.18c-.03-.03-.1-.06-.17-.06h-.18c-1.31,0-2.37,1.06-2.37,2.37v3.37H11.3c.33,0,.59,.27,.59,.59s-.27,.59-.59,.59Z"/><path class="d" d="M30.59,21.69c-.08,0-.16-.02-.24-.05-.3-.13-.44-.48-.31-.78,.77-1.77,1.16-3.66,1.16-5.61,0-7.75-6.31-14.06-14.06-14.06S3.09,7.49,3.09,15.25c0,1.89,.37,3.72,1.09,5.45,.13,.3-.02,.65-.32,.78-.3,.13-.65-.02-.78-.32-.79-1.87-1.19-3.86-1.19-5.9C1.9,6.84,8.74,0,17.15,0s15.25,6.84,15.25,15.25c0,2.11-.42,4.16-1.26,6.08-.1,.22-.31,.36-.54,.36Z"/><path class="d" d="M24.96,15.84c-.33,0-.59-.27-.59-.59,0-7.75-3.24-14.06-7.22-14.06s-7.22,6.31-7.22,14.06c0,.33-.27,.59-.59,.59s-.59-.27-.59-.59C8.74,6.7,12.44,0,17.15,0s8.41,6.7,8.41,15.25c0,.33-.27,.59-.59,.59Z"/><path class="d" d="M31.8,15.84c-.33,0-.59-.27-.59-.59,0-3.98-6.31-7.22-14.06-7.22S3.09,11.27,3.09,15.25c0,.33-.27,.59-.59,.59s-.59-.27-.59-.59c0-4.71,6.7-8.41,15.25-8.41s15.25,3.69,15.25,8.41c0,.33-.27,.59-.59,.59Z"/><path class="d" d="M17.15,15.84c-.33,0-.59-.27-.59-.59V.59c0-.33,.27-.59,.59-.59s.59,.27,.59,.59V15.25c0,.33-.27,.59-.59,.59Z"/><path class="d" d="M31.8,15.84H2.49c-.33,0-.59-.27-.59-.59s.27-.59,.59-.59H31.8c.33,0,.59,.27,.59,.59s-.27,.59-.59,.59Z"/><path class="d" d="M8.53,22.1c-.08,0-.17-.02-.25-.05-.21-.1-.35-.31-.35-.54v-2.88c0-1.09,.89-1.97,1.97-1.97h3.98c1.09,0,1.97,.89,1.97,1.97s-.89,1.97-1.97,1.97h-3.43l-1.55,1.35c-.11,.1-.25,.15-.39,.15Zm1.38-4.26c-.44,0-.79,.35-.79,.79v1.57l.73-.64c.11-.09,.25-.15,.39-.15h3.65c.44,0,.79-.35,.79-.79s-.35-.79-.79-.79h-3.98Z"/><path class="d" d="M26.98,22.47c-.14,0-.28-.05-.39-.15l-1.55-1.35h-3.43c-1.09,0-1.97-.89-1.97-1.97s.89-1.97,1.97-1.97h3.98c1.09,0,1.97,.89,1.97,1.97v2.88c0,.23-.14,.44-.35,.54-.08,.04-.16,.05-.25,.05Zm-5.37-4.26c-.44,0-.79,.35-.79,.79s.35,.79,.79,.79h3.65c.14,0,.28,.05,.39,.15l.73,.64v-1.57c0-.44-.35-.79-.79-.79h-3.98Z"/></g></g></g></svg>