<svg id="Component_346_3" data-name="Component 346 – 3" xmlns="http://www.w3.org/2000/svg" width="48" height="48" viewBox="0 0 48 48">
  <circle id="Ellipse_213" data-name="Ellipse 213" cx="24" cy="24" r="24" fill="#0161aa"/>
  <g id="Group_1726" data-name="Group 1726" transform="translate(-809 -176)">
    <rect id="Rectangle_1059" data-name="Rectangle 1059" width="32" height="32" transform="translate(817 184)" fill="#fff" opacity="0"/>
    <g id="Group_1725" data-name="Group 1725" transform="translate(-3347.5 -19150.805)">
      <g id="Group_1716" data-name="Group 1716" transform="translate(4166.5 19336.805)">
        <g id="Group_1250" data-name="Group 1250" transform="translate(0 0)">
          <rect id="Rectangle_690" data-name="Rectangle 690" width="28" height="28" fill="none"/>
          <g id="Group_1249" data-name="Group 1249" transform="translate(3.357 0.934)">
            <path id="Path_181" data-name="Path 181" d="M5171-371.3a2.712,2.712,0,0,0,2.716,2.65,2.681,2.681,0,0,0,2.65-2.65" transform="translate(-5162.445 393.921)" fill="none" stroke="#fff" stroke-width="1.5"/>
          </g>
        </g>
      </g>
      <g id="Group_1723" data-name="Group 1723">
        <path id="Path_248" data-name="Path 248" d="M4181.967,19340.678s-8.043.107-7.816,8.971a8.341,8.341,0,0,1-1.031,4.414s-2.889,2.982-2.271,4.344,21.576,1.207,21.957.219c.871-1.449-2.17-3.33-2.793-5.117a11.578,11.578,0,0,1-.572-4.561c.033-1.467.063-6.041-5.963-8.049A7.139,7.139,0,0,0,4181.967,19340.678Z" transform="translate(-0.688 -0.508)" fill="none" stroke="#fff" stroke-width="1.5"/>
        <path id="Path_249" data-name="Path 249" d="M4183.526,19337.652v2.689" transform="translate(-2.359 -0.197)" fill="none" stroke="#fff" stroke-width="1.5"/>
        <path id="Path_250" data-name="Path 250" d="M4180.22,19364a2.779,2.779,0,0,0,2.91,2.705,2.619,2.619,0,0,0,2.706-2.705" transform="translate(-1.988 -3.588)" fill="none" stroke="#fff" stroke-width="1.5"/>
      </g>
    </g>
  </g>
</svg>
