<svg xmlns="http://www.w3.org/2000/svg" xmlns:xlink="http://www.w3.org/1999/xlink" width="32" height="32" viewBox="0 0 32 32">
  <defs>
    <clipPath id="clip-path">
      <rect id="Rectangle_689" data-name="Rectangle 689" width="23" height="13" transform="translate(0.402 3)" fill="#fff"/>
    </clipPath>
  </defs>
  <g id="Group_1252" data-name="Group 1252" transform="translate(-1116 -10)">
    <g id="Group_1250" data-name="Group 1250" transform="translate(50)">
      <rect id="Rectangle_690" data-name="Rectangle 690" width="32" height="32" transform="translate(1066 10)" fill="none"/>
      <g id="Group_1249" data-name="Group 1249" transform="translate(1)">
        <path id="Path_180" data-name="Path 180" d="M5182.2-385.643a7.355,7.355,0,0,1,0,1.376c.232,1.388-.04,4.12,3.554,7.272,1.488,3.07-1.337,2.338-8.813,2.338H5162.7s-3.083.023-1.437-2.866,2.735-1.457,3.489-7.655" transform="translate(-4092 409.04)" fill="none" stroke="#fff" stroke-width="1.5"/>
        <path id="Path_181" data-name="Path 181" d="M5171-371.3s.154,3.035,3.059,2.985a3.018,3.018,0,0,0,2.984-2.985" transform="translate(-4092.586 408.24)" fill="none" stroke="#fff" stroke-width="1.5"/>
        <g id="Mask_Group_1" data-name="Mask Group 1" transform="translate(1069.598 8)" clip-path="url(#clip-path)">
          <g id="Rectangle_688" data-name="Rectangle 688" transform="translate(2.402 5)" fill="none" stroke="#fff" stroke-width="1.5">
            <rect width="19" height="22" rx="9.5" stroke="none"/>
            <rect x="0.75" y="0.75" width="17.5" height="20.5" rx="8.75" fill="none"/>
          </g>
        </g>
        <line id="Line_96" data-name="Line 96" y1="1.885" transform="translate(1081.714 11.299)" fill="none" stroke="#fff" stroke-linecap="round" stroke-width="1.5"/>
      </g>
    </g>
  </g>
</svg>
