<svg id="Component_347_14" data-name="Component 347 – 14" xmlns="http://www.w3.org/2000/svg" width="16" height="16" viewBox="0 0 16 16">
  <rect id="Rectangle_1064" data-name="Rectangle 1064" width="16" height="16" fill="#fff"/>
  <g id="phone" transform="translate(1.891 1)">
    <g id="phone-2" data-name="phone" transform="translate(-52.747 -52.5)" opacity="0.999">
      <g id="Group_339" data-name="Group 339" transform="translate(52.747 52.5)">
        <path id="Path_13" data-name="Path 13" d="M56.344,52.933l.125.125,1.089,1.089a1.535,1.535,0,0,1,0,2.138l-1.04.982a31.778,31.778,0,0,0,4.622,4.622l1.04-.982a1.465,1.465,0,0,1,2.08,0l1.213,1.213a1.465,1.465,0,0,1,0,2.08l-1.04,1.1c-2.716,2.716-13.983-8.609-11.267-11.325l1.04-1.04A1.535,1.535,0,0,1,56.344,52.933Z" transform="translate(-52.747 -52.5)" fill="#9aa7b4" fill-rule="evenodd"/>
      </g>
    </g>
  </g>
</svg>
