<?xml version="1.0" encoding="UTF-8"?><svg xmlns="http://www.w3.org/2000/svg" viewBox="0 0 42.21 40.73"><defs><style>.d{fill:none;stroke:#1e9fda;stroke-miterlimit:2.61;stroke-width:.75px;}</style></defs><g id="a"/><g id="b"><g id="c"><g><rect class="d" x="14.53" y=".38" width="14.38" height="21.37"/><rect class="d" x="16.75" y="3.94" width="3.98" height="2.98"/><rect class="d" x="1.89" y="12.44" width="9.08" height="13.31"/><rect class="d" x="31.7" y="12.44" width="9.08" height="13.31"/><rect class="d" x="3.51" y="14.59" width="2.67" height="2"/><rect class="d" x="33.3" y="14.59" width="2.67" height="2"/><line class="d" x1="3.33" y1="17.91" x2="9.56" y2="17.91"/><line class="d" x1="16.47" y1="9.51" x2="27.02" y2="9.51"/><line class="d" x1="32.94" y1="17.91" x2="39.17" y2="17.91"/><line class="d" x1="3.33" y1="19.83" x2="9.56" y2="19.83"/><line class="d" x1="16.47" y1="12.27" x2="27.02" y2="12.27"/><line class="d" x1="32.94" y1="19.83" x2="39.17" y2="19.83"/><line class="d" x1="3.33" y1="21.75" x2="9.56" y2="21.75"/><line class="d" x1="16.47" y1="15.21" x2="27.02" y2="15.21"/><line class="d" x1="32.94" y1="21.75" x2="39.17" y2="21.75"/><line class="d" x1="18.45" y1="37.93" x2="24.68" y2="37.93"/><line class="d" x1="3.33" y1="23.67" x2="9.56" y2="23.67"/><line class="d" x1="16.47" y1="17.6" x2="27.02" y2="17.6"/><line class="d" x1="32.94" y1="23.67" x2="39.17" y2="23.67"/><line class="d" x1="18.45" y1="39.85" x2="24.68" y2="39.85"/><line class="d" x1="7.51" y1="14.59" x2="9.65" y2="14.59"/><line class="d" x1="23.52" y1="3.93" x2="26.96" y2="3.93"/><line class="d" x1="37.23" y1="14.59" x2="39.37" y2="14.59"/><line class="d" x1="7.51" y1="16.31" x2="9.65" y2="16.31"/><line class="d" x1="23.52" y1="6.64" x2="26.96" y2="6.64"/><line class="d" x1="37.23" y1="16.31" x2="39.37" y2="16.31"/><polygon class="d" points="18.56 30.86 16.47 30.86 21.69 24.51 26.79 30.83 24.76 30.83 24.76 35.62 18.59 35.62 18.56 30.86"/><polygon class="d" points="2.88 33.79 .79 33.79 6.01 40.13 11.11 33.82 9.08 33.82 9.08 29.03 2.91 29.03 2.88 33.79"/><polygon class="d" points="33.19 33.79 31.11 33.79 36.32 40.13 41.43 33.82 39.4 33.82 39.4 29.03 33.22 29.03 33.19 33.79"/></g></g></g></svg>