<?xml version="1.0" encoding="UTF-8"?><svg xmlns="http://www.w3.org/2000/svg" viewBox="0 0 40.47 36.65"><defs><style>.d{fill:#1e9fda;}</style></defs><g id="a"/><g id="b"><g id="c"><g><path class="d" d="M20.34,12.57c-2.77,0-5.64-.88-5.64-2.35,0-.46,.31-.92,.86-1.25,.11-.07,.24-.06,.35,0,.93,.58,2.67,.96,4.43,.96s3.5-.38,4.43-.96c.11-.07,.24-.07,.35,0,.52,.32,.81,.76,.81,1.25,0,1.34-2.41,2.35-5.6,2.35Zm-4.6-2.93c-.24,.18-.38,.39-.38,.57,0,.8,2.13,1.69,4.97,1.69s4.93-.89,4.93-1.69c0-.2-.12-.4-.33-.57-1.07,.59-2.8,.95-4.6,.95s-3.53-.36-4.6-.95Z"/><path class="d" d="M20.34,10.59c-2.77,0-5.64-.88-5.64-2.35,0-.47,.31-.92,.86-1.25,.11-.06,.24-.06,.35,0,.93,.58,2.67,.96,4.43,.96s3.5-.38,4.43-.96c.11-.07,.24-.07,.35,0,.52,.31,.81,.77,.81,1.25,0,1.53-2.88,2.35-5.6,2.35Zm-4.6-2.93c-.24,.18-.38,.39-.38,.58,0,.8,2.13,1.69,4.97,1.69s4.93-.89,4.93-1.69c0-.2-.12-.4-.33-.57-1.07,.59-2.8,.95-4.6,.95s-3.53-.36-4.6-.95Z"/><path class="d" d="M20.34,8.62c-2.77,0-5.64-.88-5.64-2.35,0-.47,.31-.92,.86-1.25,.11-.06,.24-.06,.35,0,.93,.58,2.68,.96,4.43,.96s3.5-.38,4.43-.96c.11-.07,.24-.07,.35,0,.52,.31,.81,.77,.81,1.25,0,1.53-2.88,2.35-5.6,2.35Zm-4.6-2.93c-.24,.18-.38,.39-.38,.58,0,.8,2.13,1.69,4.97,1.69s4.93-.89,4.93-1.69c0-.2-.12-.4-.33-.57-1.07,.59-2.8,.95-4.6,.95s-3.53-.36-4.6-.95Z"/><path class="d" d="M20.34,6.64c-2.77,0-5.64-.88-5.64-2.35,0-.47,.31-.92,.86-1.25,.11-.07,.25-.06,.36,0,.88,.6,2.54,.95,4.42,.95s3.54-.36,4.42-.95c.11-.07,.25-.08,.36,0,.52,.31,.81,.77,.81,1.25,0,1.53-2.88,2.35-5.6,2.35Zm-4.6-2.92c-.24,.18-.37,.39-.37,.57,0,.8,2.13,1.69,4.97,1.69s4.93-.89,4.93-1.69c0-.2-.12-.4-.33-.57-1.02,.59-2.71,.94-4.6,.94s-3.58-.35-4.6-.94Z"/><path class="d" d="M20.34,4.66c-2.73,0-5.64-.81-5.64-2.31s2.87-2.35,5.64-2.35c3.19,0,5.6,1.01,5.6,2.35,0,1.5-2.88,2.31-5.6,2.31Zm0-4c-2.85,0-4.97,.89-4.97,1.69s2.13,1.64,4.97,1.64,4.93-.87,4.93-1.64-2.11-1.69-4.93-1.69Z"/><path class="d" d="M10.55,29.97c-.1,0-.19-.04-.26-.12-.12-.14-.1-.35,.05-.47l9.66-7.9V10.26c0-.18,.15-.33,.33-.33s.33,.15,.33,.33v11.22l9.67,7.9c.14,.12,.16,.32,.05,.47-.12,.14-.32,.16-.47,.05l-9.58-7.82-9.58,7.82c-.06,.05-.14,.08-.21,.08Z"/><path class="d" d="M5.64,36.65c-2.73,0-5.64-.81-5.64-2.31,0-.61,.45-1,.84-1.28,.11-.08,.26-.08,.38,0,.88,.6,2.54,.95,4.43,.95s3.55-.36,4.43-.95c.12-.08,.27-.07,.38,0,.34,.24,.79,.64,.79,1.28,0,1.5-2.88,2.31-5.6,2.31Zm-4.59-2.92c-.33,.27-.38,.46-.38,.6,0,.78,2.13,1.65,4.97,1.65s4.93-.87,4.93-1.65c0-.16-.04-.35-.34-.6-1.02,.59-2.71,.94-4.59,.94s-3.57-.35-4.59-.94Z"/><path class="d" d="M5.64,34.67c-2.73,0-5.64-.81-5.64-2.31,0-.62,.48-1.03,.84-1.28,.11-.08,.26-.08,.38,0,.89,.6,2.54,.95,4.43,.95s3.55-.36,4.43-.95c.11-.08,.26-.08,.38,0,.34,.24,.79,.63,.79,1.28,0,1.5-2.88,2.31-5.6,2.31Zm-4.59-2.92c-.33,.27-.38,.47-.38,.61,0,.78,2.13,1.64,4.97,1.64s4.93-.87,4.93-1.64c0-.16-.04-.35-.34-.61-1.02,.59-2.71,.94-4.59,.94s-3.57-.35-4.59-.94Z"/><path class="d" d="M5.64,32.69c-2.73,0-5.64-.81-5.64-2.31,0-.61,.45-1.01,.84-1.28,.11-.08,.26-.08,.38,0,.89,.6,2.54,.95,4.43,.95s3.55-.36,4.43-.95c.11-.08,.26-.08,.38,0,.34,.24,.79,.63,.79,1.28,0,1.5-2.88,2.31-5.6,2.31Zm-4.59-2.92c-.33,.27-.38,.46-.38,.61,0,.78,2.13,1.64,4.97,1.64s4.93-.87,4.93-1.64c0-.16-.04-.35-.34-.61-1.02,.59-2.71,.94-4.59,.94s-3.57-.35-4.59-.94Z"/><path class="d" d="M5.64,30.72c-2.73,0-5.64-.81-5.64-2.31,0-.45,.29-.89,.84-1.28,.12-.08,.27-.08,.38,0,.85,.6,2.59,.99,4.42,.99s3.53-.39,4.43-1c.11-.08,.27-.08,.38,0,.65,.47,.79,.95,.79,1.28,0,1.5-2.88,2.31-5.6,2.31Zm-4.59-2.91c-.24,.21-.38,.42-.38,.6,0,.78,2.13,1.65,4.97,1.65s4.93-.87,4.93-1.65c0-.2-.12-.41-.34-.6-1.05,.61-2.77,.98-4.59,.98s-3.58-.37-4.59-.98Z"/><path class="d" d="M5.64,28.78c-2.77,0-5.64-.88-5.64-2.35s2.91-2.31,5.64-2.31,5.6,.81,5.6,2.31c0,1.34-2.41,2.35-5.6,2.35Zm0-4c-2.85,0-4.97,.87-4.97,1.65s2.13,1.69,4.97,1.69,4.93-.89,4.93-1.69-2.02-1.65-4.93-1.65Z"/><path class="d" d="M34.83,36.65c-2.71,0-5.6-.81-5.6-2.31,0-.61,.45-1,.84-1.28,.11-.08,.26-.08,.38,0,.87,.59,2.55,.95,4.38,.95s3.54-.35,4.43-.95c.11-.08,.27-.08,.38,0,.39,.28,.84,.67,.84,1.28,0,1.5-2.91,2.31-5.64,2.31Zm-4.55-2.92c-.33,.27-.38,.46-.38,.6,0,.78,2.02,1.65,4.93,1.65s4.98-.87,4.98-1.65c0-.15-.05-.33-.38-.6-1.02,.59-2.71,.94-4.59,.94s-3.53-.35-4.55-.94Z"/><path class="d" d="M34.83,34.67c-2.71,0-5.6-.81-5.6-2.31,0-.62,.48-1.03,.84-1.28,.11-.08,.26-.08,.38,0,.87,.59,2.55,.95,4.38,.95s3.54-.36,4.43-.95c.11-.08,.26-.07,.38,0,.36,.25,.84,.66,.84,1.28,0,1.5-2.91,2.31-5.64,2.31Zm-4.55-2.92c-.34,.27-.38,.47-.38,.61,0,.78,2.02,1.64,4.93,1.64s4.98-.87,4.98-1.64c0-.14-.05-.33-.38-.61-1.02,.59-2.71,.94-4.59,.94s-3.53-.35-4.55-.94Z"/><path class="d" d="M34.83,32.69c-2.71,0-5.6-.81-5.6-2.31,0-.62,.45-1.01,.84-1.28,.11-.08,.26-.08,.38,0,.87,.59,2.55,.95,4.38,.95s3.54-.36,4.43-.95c.11-.08,.26-.08,.38,0,.39,.27,.84,.67,.84,1.28,0,1.5-2.91,2.31-5.64,2.31Zm-4.55-2.92c-.33,.27-.38,.46-.38,.61,0,.78,2.02,1.64,4.93,1.64s4.98-.87,4.98-1.64c0-.15-.05-.34-.38-.61-1.02,.59-2.71,.94-4.59,.94s-3.53-.35-4.55-.94Z"/><path class="d" d="M34.83,30.72c-2.71,0-5.6-.81-5.6-2.31,0-.33,.14-.82,.79-1.28,.11-.08,.26-.08,.38,0,.9,.61,2.63,1,4.42,1s3.56-.38,4.47-1c.12-.08,.28-.08,.39,.01,.51,.4,.78,.84,.78,1.27,0,1.5-2.91,2.31-5.64,2.31Zm-4.59-2.92c-.22,.2-.34,.41-.34,.6,0,.78,2.02,1.65,4.93,1.65s4.98-.87,4.98-1.65c0-.17-.13-.38-.35-.6-1.05,.61-2.78,.98-4.62,.98s-3.54-.37-4.59-.98Z"/><path class="d" d="M34.83,28.78c-3.19,0-5.6-1.01-5.6-2.35,0-1.5,2.88-2.31,5.6-2.31s5.64,.81,5.64,2.31-2.87,2.35-5.64,2.35Zm0-4c-2.91,0-4.93,.87-4.93,1.65s2.11,1.69,4.93,1.69,4.98-.89,4.98-1.69-2.13-1.65-4.98-1.65Z"/></g></g></g></svg>