<?xml version="1.0" encoding="UTF-8"?><svg xmlns="http://www.w3.org/2000/svg" viewBox="0 0 42.24 42.24"><defs><style>.d{fill:#209fda;}.e{fill:#1e9fda;}</style></defs><g id="a"/><g id="b"><g id="c"><g><path class="e" d="M21.12,42.24C9.47,42.24,0,32.76,0,21.12S9.47,0,21.12,0s21.12,9.47,21.12,21.12-9.47,21.12-21.12,21.12ZM21.12,1.33C10.21,1.33,1.33,10.21,1.33,21.12s8.88,19.79,19.79,19.79,19.79-8.88,19.79-19.79S32.03,1.33,21.12,1.33Z"/><circle class="d" cx="20.15" cy="16.24" r="1.25"/><circle class="d" cx="33.02" cy="25.87" r="1.25"/><path class="d" d="M17.64,14.7c-2.87-.86-5.79-.98-8.4-.76v1.43c2.74-.08,5.75,.2,8.13,.78l.27-1.44Z"/><polygon class="d" points="6.06 9.71 7.42 8.19 7.42 11.95 6.06 11.95 6.06 9.71"/><g><path class="d" d="M15.8,27.35l.06,.11c.03-.39,.13-.87,.28-1.42,.69-2.19,2.04-5,3.62-7.73-.6-.11-1.11-.48-1.42-.99-1.04,1.83-1.93,3.73-2.54,5.57-.76,1.89-1.28,3.63-1.48,4.96-.74-.11-1.48-.21-2.21-.32l2.07,4.66,3.83-3.6-2.31-.61c.02-.2,.06-.42,.11-.65Z"/><path class="d" d="M25.32,5.58c.41,.62,.83,1.24,1.24,1.86-1.85,1.26-4.14,3.74-6.21,6.71,.61,.06,1.14,.37,1.48,.83,1.99-2.99,4.03-5.45,5.37-6.22h-.15c.07-.05,.15-.11,.22-.15l1.54,1.82,1.6-5.01-5.1,.14Z"/></g><polygon class="d" points="8.44 34.93 11.43 34.93 11.77 36.41 10.01 36.41 8.44 34.93"/><circle class="d" cx="6.88" cy="14.63" r="1.25"/><g><path class="d" d="M13.94,32.85c-2.7-4.12-5.1-9.04-5.36-11.73l2.32-.57-3.77-3.66-2.14,4.63c.74-.09,1.48-.19,2.22-.28,.61,2.44,2.63,7.74,5.47,12.27,.32-.35,.76-.58,1.25-.65Z"/><path class="d" d="M16.11,35.88c-.22,.43-.57,.78-1.01,.97,.95,1.14,1.97,2.13,3.02,2.88h2.26c-1.11-.31-2.65-1.81-4.27-3.86Z"/></g><g><path class="d" d="M31.26,26.74c-3.59,3.11-8.52,5.99-14.5,7.54v1.32c6.95-1.65,12.13-4.87,15.54-7.81-.46-.21-.83-.58-1.04-1.04Z"/><path class="d" d="M25.54,19.71c1.75,.84,3.88,2.89,5.75,5.26,.23-.47,.61-.85,1.1-1.05-2.13-2.47-4.52-4.31-6.28-5.47l1-2-5.08,.49,2.21,4.77,1.31-2Z"/><path class="d" d="M33.4,27.96c1.12,1.79,1.97,3.55,2.3,4.93l1.03-1.24c-.46-1.6-1.13-3.08-1.93-4.43-.34,.4-.83,.67-1.39,.73Z"/><path class="d" d="M38.74,18.7l-4.95,1.77,1.87,1.48c-.45,.66-.99,1.33-1.59,2.01,.46,.22,.83,.59,1.04,1.05,.83-.95,1.42-1.78,1.75-2.39,.63,.39,1.27,.78,1.9,1.18l-.03-5.1Z"/></g><circle class="d" cx="14.23" cy="34.93" r="1.25"/></g></g></g></svg>