<svg id="Component_347_57" data-name="Component 347 – 57" xmlns="http://www.w3.org/2000/svg" width="20" height="20" viewBox="0 0 20 20">
  <g id="Rectangle_1185" data-name="Rectangle 1185" fill="#ffffff" stroke="#ffffff" stroke-width="1" opacity="0">
    <rect width="20" height="20" stroke="none"/>
    <rect x="0.5" y="0.5" width="19" height="19" fill="none"/>
  </g>
  <path id="icons8-refresh" d="M9.984,3A7.745,7.745,0,0,0,4.8,5.009a.717.717,0,0,0-.241.667A.69.69,0,0,0,5,6.218a.642.642,0,0,0,.665-.146A6.438,6.438,0,0,1,9.984,4.4a6.779,6.779,0,0,1,6.623,6.29H14.643l2.662,4.193,2.662-4.193H17.937A8.163,8.163,0,0,0,9.984,3ZM2.662,7.892,0,12.086H2.031a8.163,8.163,0,0,0,7.953,7.688,7.745,7.745,0,0,0,5.187-2.009.717.717,0,0,0,.241-.667.69.69,0,0,0-.441-.542.642.642,0,0,0-.665.146,6.438,6.438,0,0,1-4.322,1.674,6.779,6.779,0,0,1-6.623-6.29H5.325Z" transform="translate(0.033 -1)" fill="#ffffff"/>
</svg>
