<?xml version="1.0" encoding="UTF-8"?><svg xmlns="http://www.w3.org/2000/svg" viewBox="0 0 44 44"><defs><style>.d{stroke-dasharray:0 0 1.99 1.99;}.d,.e{fill:none;stroke:#1e9fda;stroke-miterlimit:10;stroke-width:1.5px;}</style></defs><g id="a"/><g id="b"><g id="c"><g><circle class="e" cx="22" cy="22" r="21.25" transform="translate(-3.43 39.93) rotate(-80.18)"/><path class="e" d="M38.83,22c0,9.3-7.54,16.83-16.83,16.83S5.17,31.3,5.17,22,12.71,5.17,22,5.17"/><path class="d" d="M22,5.17c9.3,0,16.83,7.54,16.83,16.83"/><circle class="e" cx="22" cy="22" r="2.17"/><line class="e" x1="22" y1="8.5" x2="22" y2="10.19"/><line class="e" x1="31.56" y1="12.46" x2="30.37" y2="13.66"/><line class="e" x1="35.51" y1="22.03" x2="33.82" y2="22.03"/><line class="e" x1="31.52" y1="31.58" x2="30.33" y2="30.38"/><line class="e" x1="21.95" y1="35.51" x2="21.95" y2="33.82"/><line class="e" x1="12.4" y1="31.5" x2="13.6" y2="30.31"/><line class="e" x1="8.5" y1="21.92" x2="10.19" y2="21.93"/><line class="e" x1="12.52" y1="12.38" x2="13.71" y2="13.59"/><line class="e" x1="21.95" y1="11.57" x2="21.95" y2="19.84"/><line class="e" x1="24.17" y1="21.91" x2="29.09" y2="21.91"/></g></g></g></svg>