<?xml version="1.0" encoding="UTF-8"?><svg xmlns="http://www.w3.org/2000/svg" viewBox="0 0 38.1 34.48"><defs><style>.d{fill:#1e9fda;}</style></defs><g id="a"/><g id="b"><g id="c"><g><path class="d" d="M33.86,13.33c.25-.62,.37-1.27,.37-1.92,0-2.91-2.36-5.28-5.26-5.28-.98,0-1.93,.27-2.75,.79-.96-4.01-4.58-6.92-8.76-6.92-4.98,0-9.02,4.06-9.02,9.03,0,.29,0,.57,.04,.86C3.9,9.41,0,13.04,0,17.55c0,3.77,2.75,6.92,6.35,7.58,.14,1.1,.76,2.05,1.66,2.62-1.02,.65-1.7,1.78-1.7,3.07,0,2.02,1.65,3.67,3.66,3.67H28.06c2.01,0,3.66-1.65,3.66-3.67,0-1.29-.68-2.42-1.7-3.07,.87-.57,1.47-1.46,1.64-2.5h.33c3.37,0,6.11-2.74,6.11-6.12,0-2.66-1.74-5-4.24-5.79Zm-3.3,17.48c0,1.39-1.12,2.5-2.5,2.5H9.97c-1.38,0-2.5-1.11-2.5-2.5s1.12-2.5,2.5-2.5H28.06c1.38,0,2.5,1.13,2.5,2.5Zm-2.5-3.65H9.97c-1.38,0-2.5-1.11-2.5-2.5s1.12-2.5,2.5-2.5H28.06c1.38,0,2.5,1.11,2.5,2.5s-1.12,2.5-2.5,2.5ZM7.47,18.51c0-1.39,1.12-2.5,2.5-2.5H28.06c1.38,0,2.5,1.11,2.5,2.5s-1.12,2.5-2.5,2.5H9.97c-1.38,0-2.5-1.13-2.5-2.5Zm24.52,5.59h-.33c-.17-1.06-.78-1.95-1.64-2.5,1.02-.65,1.7-1.8,1.7-3.08,0-2.02-1.65-3.67-3.66-3.67H9.97c-2.01,0-3.66,1.65-3.66,3.67,0,1.28,.68,2.43,1.7,3.08-.82,.51-1.43,1.37-1.63,2.36-2.98-.62-5.23-3.25-5.23-6.41,0-3.6,2.93-6.55,6.54-6.55,.44,0,.89,.05,1.34,.15,.19,.03,.39-.02,.52-.15,.15-.14,.21-.33,.17-.51-.09-.5-.14-.99-.14-1.46,0-4.34,3.53-7.87,7.87-7.87,3.94,0,7.29,2.95,7.8,6.85,.03,.21,.17,.38,.38,.46,.2,.07,.42,.04,.58-.12,.76-.69,1.74-1.06,2.76-1.06,2.26,0,4.1,1.83,4.1,4.11,0,.7-.18,1.41-.53,2.01-.09,.17-.1,.36-.02,.53,.09,.17,.24,.29,.42,.33,2.32,.45,4.01,2.48,4.01,4.85,0,2.74-2.22,4.97-4.95,4.97Z"/><path class="d" d="M13.61,17.92h-3.64c-.32,0-.57,.26-.57,.58,0,.31,.26,.57,.57,.57h3.64c.33,0,.58-.26,.58-.57,0-.33-.26-.58-.58-.58Z"/><path class="d" d="M13.61,24.09h-3.64c-.32,0-.57,.24-.57,.57s.26,.58,.57,.58h3.64c.33,0,.58-.26,.58-.58s-.26-.57-.58-.57Z"/><path class="d" d="M9.4,30.81c0,.32,.26,.58,.57,.58h3.64c.33,0,.58-.26,.58-.58s-.26-.57-.58-.57h-3.64c-.32,0-.57,.26-.57,.57Z"/><path class="d" d="M21.2,18.1c-.11,.1-.17,.26-.17,.41,0,.14,.06,.29,.17,.39,.1,.12,.25,.17,.41,.17,.15,0,.3-.05,.4-.17,.11-.1,.17-.26,.17-.39,0-.15-.06-.31-.17-.41-.21-.22-.6-.22-.81,0Z"/><path class="d" d="M24.54,17.92c-.32,0-.57,.26-.57,.58,0,.31,.26,.57,.57,.57s.57-.26,.57-.57c0-.33-.26-.58-.57-.58Z"/><path class="d" d="M27.07,18.1c-.11,.1-.17,.26-.17,.41,0,.14,.06,.29,.17,.39,.1,.12,.26,.17,.41,.17s.3-.05,.4-.15c.11-.12,.17-.27,.17-.41,0-.15-.06-.31-.17-.41-.21-.22-.6-.22-.81,0Z"/><path class="d" d="M21.2,24.25c-.11,.12-.17,.26-.17,.41s.06,.31,.17,.41c.11,.1,.25,.15,.41,.15,.15,0,.3-.05,.4-.15,.11-.1,.17-.26,.17-.41s-.06-.29-.17-.41c-.21-.21-.6-.21-.81,0Z"/><path class="d" d="M24.54,24.08c-.32,0-.57,.26-.57,.58s.26,.57,.57,.57,.57-.24,.57-.57-.26-.58-.57-.58Z"/><path class="d" d="M27.07,24.25c-.11,.12-.17,.26-.17,.41s.06,.31,.17,.41c.1,.1,.26,.15,.41,.15s.3-.05,.4-.15c.11-.1,.17-.26,.17-.41s-.06-.29-.17-.41c-.21-.21-.6-.21-.81,0Z"/><path class="d" d="M21.61,31.39c.15,0,.3-.05,.4-.17,.11-.1,.17-.24,.17-.41,0-.14-.06-.29-.17-.41-.21-.21-.6-.21-.81,0-.11,.12-.17,.26-.17,.41,0,.17,.06,.31,.17,.41,.11,.12,.25,.17,.41,.17Z"/><path class="d" d="M24.54,31.39c.32,0,.57-.26,.57-.58s-.26-.57-.57-.57-.57,.26-.57,.57c0,.32,.26,.58,.57,.58Z"/><path class="d" d="M27.48,31.39c.15,0,.29-.05,.4-.17,.11-.1,.17-.24,.17-.41,0-.14-.06-.29-.17-.41-.21-.21-.6-.21-.81,0-.11,.12-.17,.28-.17,.41,0,.15,.06,.31,.17,.41,.11,.12,.26,.17,.41,.17Z"/></g></g></g></svg>