<?xml version="1.0" encoding="UTF-8"?><svg xmlns="http://www.w3.org/2000/svg" viewBox="0 0 36.17 29.12"><defs><style>.d{fill:#1c9fda;}</style></defs><g id="a"/><g id="b"><g id="c"><g><g><path class="d" d="M32.25,0H3.91C1.76,0,0,1.76,0,3.91V22.9c0,2.16,1.76,3.91,3.91,3.91H12.36c.37,0,.67-.3,.67-.67s-.3-.67-.67-.67H3.91c-1.41,0-2.56-1.15-2.56-2.56V3.91c0-1.41,1.15-2.56,2.56-2.56h28.34c1.41,0,2.56,1.15,2.56,2.56V22.9c0,1.41-1.15,2.56-2.56,2.56h-7.4c-.37,0-.67,.3-.67,.67s.3,.67,.67,.67h7.4c2.16,0,3.91-1.76,3.91-3.91V3.91c0-2.16-1.76-3.91-3.91-3.91Z"/><path class="d" d="M31.78,3.46H4.39c-.37,0-.67,.3-.67,.67V22.67c0,.37,.3,.67,.67,.67h4.99c.37,0,.67-.3,.67-.67s-.3-.67-.67-.67H5.06V4.81H31.11V22h-3.31c-.37,0-.67,.3-.67,.67s.3,.67,.67,.67h3.98c.37,0,.67-.3,.67-.67V4.14c0-.37-.3-.67-.67-.67Z"/></g><path class="d" d="M17.59,17.44v-2.43c0-.39-.32-.71-.71-.71h-.07c-.53,0-.97,.43-.97,.97l-.07,2.12-.39-.22c-.88-.49-1.43-1.43-1.43-2.43,0-1.54,1.25-2.79,2.79-2.79s2.79,1.25,2.79,2.79c0,1.07-.6,2.03-1.56,2.5l-.39,.19Zm-.78-3.67h.07c.69,0,1.25,.56,1.25,1.25v1.51c.55-.42,.87-1.07,.87-1.78,0-1.24-1.01-2.25-2.25-2.25s-2.25,1.01-2.25,2.25c0,.65,.29,1.27,.77,1.69l.04-1.17c0-.82,.68-1.5,1.51-1.5Z"/><path class="d" d="M20.07,29.12c-.08,0-.16,0-.24,0h-.24c-1.08,0-1.96-.32-2.42-.61-.26-.13-.62-.33-.73-.45-.08-.1-.38-.33-.86-.64-.09-.05-.22-.16-.35-.28-.09-.08-.19-.16-.24-.19l-.05-.04c-.72-.77-1.88-2.21-2.32-2.78-.19-.25-.44-.39-.65-.51-.07-.04-.13-.08-.19-.11-.18-.12-.39-.25-.52-.47-.3-.49-.02-1.11,.37-1.5,.06-.06,.12-.11,.18-.15,.22-.17,.53-.23,.92-.18,.67,.08,1.65,.48,2.2,1.09,.06,.07,.13,.15,.21,.23,.01-1.5,.03-1.88,.04-2l.17-5.29c0-.81,.67-1.48,1.49-1.48h.07c.68,0,1.23,.55,1.23,1.23v4.15c.19-.11,.4-.17,.63-.19,.53-.04,.97,.14,1.25,.51,.23-.11,.55-.18,.96-.11,.41,.07,.72,.31,.89,.67,.27-.07,.55-.07,.81,.03,.78,.28,.84,1.16,.84,1.42v4.46c0,.96-.4,1.85-1.12,2.54l-.06,.16h-.12c-.6,.48-1.34,.52-2.12,.52Zm-4.77-2.6c.08,.05,.17,.14,.27,.22,.09,.08,.22,.19,.28,.22,.25,.16,.8,.52,.99,.74,.05,.05,.35,.22,.59,.34,.4,.26,1.19,.54,2.16,.54h.25c.84,0,1.56,0,2.09-.45l.08-.07c.62-.58,.96-1.35,.96-2.16v-4.46c0-.17-.04-.76-.49-.92-.2-.07-.41-.06-.62,.03l-.04,.02h-.32l-.07-.19c-.08-.31-.27-.49-.56-.54-.39-.07-.66,.05-.81,.16l-.26,.19-.14-.29c-.19-.41-.58-.47-.87-.45-.29,.02-.54,.16-.74,.4l-.47,.57v-5.45c0-.39-.31-.7-.7-.7h-.07c-.53,0-.96,.43-.96,.96l-.17,5.35c-.01,.13-.03,1.66-.03,2.58v.65l-.46-.46c-.25-.25-.48-.5-.67-.72-.44-.49-1.29-.85-1.86-.92-.25-.03-.43,0-.54,.08-.04,.03-.08,.07-.12,.11-.25,.24-.43,.62-.29,.85,.07,.11,.2,.2,.35,.29,.05,.03,.1,.06,.17,.1,.23,.13,.55,.32,.81,.64,.44,.56,1.57,1.96,2.27,2.72Z"/><path class="d" d="M10.46,19.83h-.03c-.15,0-.29-.08-.37-.21-1.18-1.64-1.71-3.67-1.49-5.71,.41-3.79,3.46-6.86,7.25-7.28,.31-.03,.63-.05,.94-.05,4.54,0,8.24,3.7,8.24,8.24,0,1.74-.53,3.39-1.55,4.8-.09,.12-.23,.2-.38,.2-.15,.01-.3-.05-.4-.17l-.5-.55c-.15-.17-.17-.42-.04-.61,.74-1.09,1.14-2.36,1.14-3.67,0-1.8-.72-3.48-2.03-4.72-1.3-1.24-3.01-1.87-4.8-1.78-3.38,.16-6.1,2.93-6.2,6.32-.04,1.38,.35,2.72,1.13,3.86,.13,.19,.12,.44-.04,.61l-.5,.56c-.1,.11-.23,.17-.37,.17Zm12.61-.53h0Zm-6.32-12.18c-.29,0-.59,.02-.88,.05-3.54,.39-6.39,3.25-6.77,6.8-.2,1.88,.28,3.76,1.37,5.29l.44-.49c-.83-1.23-1.25-2.66-1.21-4.15,.11-3.66,3.06-6.67,6.72-6.84,1.94-.09,3.79,.59,5.2,1.93,1.42,1.35,2.2,3.16,2.2,5.11,0,1.41-.42,2.77-1.21,3.94l.45,.5c.92-1.3,1.41-2.83,1.41-4.44,0-4.25-3.45-7.7-7.7-7.7Zm-5.82,11.62h0Z"/><path class="d" d="M20.83,17.37c-.14,0-.28-.06-.37-.17l-.53-.59c-.13-.14-.16-.34-.09-.52,.17-.41,.25-.83,.25-1.26,0-1.4-.88-2.66-2.2-3.14-.74-.27-1.55-.27-2.29,0-1.31,.48-2.2,1.74-2.2,3.14,0,.43,.08,.86,.25,1.26,.07,.18,.04,.38-.09,.52l-.53,.59c-.11,.12-.27,.18-.44,.16-.16-.02-.31-.12-.38-.27-.36-.71-.54-1.47-.54-2.27,0-2.38,1.69-4.47,4.03-4.96,.68-.14,1.4-.14,2.08,0,2.33,.49,4.03,2.57,4.03,4.96,0,.8-.18,1.56-.54,2.27-.07,.15-.22,.25-.38,.27-.02,0-.04,0-.07,0Zm-.03-.52h0Zm.06,0h0Zm-4.11-6.54c-.31,0-.63,.03-.93,.1-2.08,.44-3.6,2.3-3.6,4.43,0,.69,.15,1.36,.46,1.97l.47-.53c-.19-.46-.28-.95-.28-1.45,0-1.62,1.03-3.09,2.55-3.65,.86-.31,1.8-.31,2.66,0,1.53,.56,2.55,2.02,2.55,3.65,0,.49-.09,.98-.28,1.45l.47,.53c.3-.62,.46-1.28,.46-1.97,0-2.13-1.51-3.99-3.6-4.43-.3-.06-.62-.1-.93-.1Z"/></g></g></g></svg>