<svg id="Component_326_30" data-name="Component 326 – 30" xmlns="http://www.w3.org/2000/svg" width="24" height="24" viewBox="0 0 24 24">
  <g id="Rectangle_917" data-name="Rectangle 917" fill="#fff" stroke="#707070" stroke-width="1" opacity="0">
    <rect width="24" height="24" stroke="none"/>
    <rect x="0.5" y="0.5" width="23" height="23" fill="none"/>
  </g>
  <g id="Component_322_31" data-name="Component 322 – 31" transform="translate(1.08 1.968)">
    <path id="Subtraction_2" data-name="Subtraction 2" d="M22.267,21.065H0v-.527H1.325V6.583a.265.265,0,0,1,.265-.264H6.1V.263A.264.264,0,0,1,6.362,0h9.544a.264.264,0,0,1,.265.263V6.319h4.507a.265.265,0,0,1,.265.264V20.538h1.325v.526Zm-6.1-14.219V20.538h4.242V6.846ZM6.627.526h0V20.538H15.64V.526ZM1.855,6.846V20.538H6.1V6.846Z" stroke="#161616" stroke-width="1"/>
    <rect id="Rectangle_779" data-name="Rectangle 779" width="4" height="3" transform="translate(8.92 3.032)" fill="#161616"/>
    <rect id="Rectangle_780" data-name="Rectangle 780" width="4" height="3" transform="translate(8.92 9.032)" fill="#161616"/>
    <rect id="Rectangle_781" data-name="Rectangle 781" width="4" height="3" transform="translate(8.92 15.032)" fill="#161616"/>
  </g>
</svg>
