<?xml version="1.0" encoding="UTF-8"?>
<!--
  Paint palette icon — source: svgrepo.com (Outline / 24×24 set).
  Used by the org-theme settings page header (App Settings → Theme).
  Stroke uses currentColor so the host element's CSS colour wins.
-->
<svg xmlns="http://www.w3.org/2000/svg" viewBox="0 0 24 24" fill="none" stroke="currentColor" stroke-width="1.6" stroke-linecap="round" stroke-linejoin="round" aria-hidden="true">
  <path d="M12 2C6.5 2 2 6.5 2 12s4.5 10 10 10c1.1 0 2-.9 2-2 0-.5-.2-1-.5-1.3-.3-.4-.5-.8-.5-1.2 0-1.1.9-2 2-2h2c2.8 0 5-2.2 5-5 0-4.7-4.5-8.5-10-8.5Z" />
  <circle cx="7.5" cy="11" r="1.3" fill="currentColor" stroke="none" />
  <circle cx="11" cy="7" r="1.3" fill="currentColor" stroke="none" />
  <circle cx="15.5" cy="7.5" r="1.3" fill="currentColor" stroke="none" />
  <circle cx="17.5" cy="12" r="1.3" fill="currentColor" stroke="none" />
</svg>
