<svg xmlns="http://www.w3.org/2000/svg" xmlns:xlink="http://www.w3.org/1999/xlink" width="152" height="30" viewBox="0 0 152 30">
  <defs>
    <clipPath id="clip-path">
      <rect width="146" height="27" fill="none"/>
    </clipPath>
    <clipPath id="clip-path-2">
      <rect id="Rectangle_1279" data-name="Rectangle 1279" width="61" height="26" transform="translate(760 210)" fill="#fff" stroke="#707070" stroke-width="1"/>
    </clipPath>
    <linearGradient id="linear-gradient" x1="0.048" y1="1" x2="1" y2="1" gradientUnits="objectBoundingBox">
      <stop offset="0" stop-color="#f89939"/>
      <stop offset="0.45" stop-color="#f89939"/>
      <stop offset="0.509" stop-color="#19a1db"/>
      <stop offset="1" stop-color="#19a1db"/>
    </linearGradient>
    <clipPath id="clip-path-3">
      <path id="Path_471" data-name="Path 471" d="M0,0H26V24H0Z" transform="translate(820 185)" fill="#fff" stroke="#707070" stroke-width="1"/>
    </clipPath>
    <linearGradient id="linear-gradient-2" x1="0.948" y1="0.378" x2="0.947" y2="0.908" gradientUnits="objectBoundingBox">
      <stop offset="0" stop-color="#1f396f"/>
      <stop offset="1" stop-color="#19a1db"/>
    </linearGradient>
    <clipPath id="clip-path-4">
      <rect id="Rectangle_1281" data-name="Rectangle 1281" width="18" height="23" transform="translate(762 236)" fill="#fff" stroke="#707070" stroke-width="1"/>
    </clipPath>
    <linearGradient id="linear-gradient-3" x1="0.03" y1="0.141" x2="0.031" y2="0.89" gradientUnits="objectBoundingBox">
      <stop offset="0" stop-color="#1f396f"/>
      <stop offset="1" stop-color="#f89939"/>
    </linearGradient>
  </defs>
  <g id="Group_2555" data-name="Group 2555" transform="translate(-19 -10)">
    <rect id="Rectangle_1282" data-name="Rectangle 1282" width="152" height="30" transform="translate(19 10)" fill="#fff" opacity="0.402"/>
    <g id="Repeat_Grid_122" data-name="Repeat Grid 122" transform="translate(23.174 13)" clip-path="url(#clip-path)">
      <g transform="translate(-701 -162)">
        <g id="Group_2554" data-name="Group 2554" transform="translate(1411 -157)">
          <path id="Path_427" data-name="Path 427" d="M-709.372,324.883h3.234v12.574s-1.124,1.187.9,1.254,8.478,0,8.478,0,.537.238.689-1.254,0-12.574,0-12.574h3.31v13.828s-.951,2.723-3.31,2.747-10.071,0-10.071,0-2.84-.331-3.234-2.747S-709.372,324.883-709.372,324.883Z" fill="none"/>
        </g>
        <g id="Component_25_4" data-name="Component 25 – 4" transform="translate(701.006 162.479)">
          <path id="Path_389" data-name="Path 389" d="M24.755-15.75a.373.373,0,0,1,.317.106.373.373,0,0,1,.106.317V-1.758a.373.373,0,0,1-.106.317.373.373,0,0,1-.317.106H22.871a.373.373,0,0,1-.317-.106.373.373,0,0,1-.106-.317V-15.328a.373.373,0,0,1,.106-.317.373.373,0,0,1,.317-.106ZM28.9-11.887v-2.536a.373.373,0,0,1,.106-.317.373.373,0,0,1,.317-.106h1.9a.373.373,0,0,1,.317.106.373.373,0,0,1,.106.317v2.537h3.364a.306.306,0,0,1,.26.086.306.306,0,0,1,.086.26v1.576a.306.306,0,0,1-.086.26.306.306,0,0,1-.26.086H31.655v4.459a1.772,1.772,0,0,0,.327,1.182A1.687,1.687,0,0,0,33.27-3.6h1.864a.306.306,0,0,1,.26.086.306.306,0,0,1,.086.26v1.575a.306.306,0,0,1-.086.26.306.306,0,0,1-.26.086H32.808a7.158,7.158,0,0,1-1.9-.211,2.646,2.646,0,0,1-1.2-.673,2.478,2.478,0,0,1-.624-1.19A7.683,7.683,0,0,1,28.9-5.16V-9.619H27.081a.306.306,0,0,1-.26-.086.306.306,0,0,1-.086-.26v-1.576a.306.306,0,0,1,.086-.26.306.306,0,0,1,.26-.086Zm18.03,0a.306.306,0,0,1,.26.086.306.306,0,0,1,.086.26v1.615a.306.306,0,0,1-.086.26.306.306,0,0,1-.26.086h-5.11a4.108,4.108,0,0,0-1.019.105,1.385,1.385,0,0,0-.641.346,1.324,1.324,0,0,0-.337.653,4.529,4.529,0,0,0-.092,1.007v5.711a.373.373,0,0,1-.108.321.373.373,0,0,1-.323.1H37.421q-.442,0-.442-.423V-7.982A6.018,6.018,0,0,1,37.21-9.76a2.631,2.631,0,0,1,.759-1.211,3.279,3.279,0,0,1,1.4-.692,9.078,9.078,0,0,1,2.181-.221Zm10.417,0a9.1,9.1,0,0,1,2.172.221,3.283,3.283,0,0,1,1.412.692,2.631,2.631,0,0,1,.76,1.211,6.019,6.019,0,0,1,.231,1.778v5.113a3.54,3.54,0,0,1-.068.759.987.987,0,0,1-.231.47.868.868,0,0,1-.432.241,2.929,2.929,0,0,1-.689.068H51.352A5.186,5.186,0,0,1,49.939-1.5a2.185,2.185,0,0,1-.915-.491,1.8,1.8,0,0,1-.49-.846A4.631,4.631,0,0,1,48.4-4.064v-.923a3.642,3.642,0,0,1,.145-1.066,1.8,1.8,0,0,1,.49-.8,2.185,2.185,0,0,1,.915-.491,5.186,5.186,0,0,1,1.413-.164h7.819v-.366a2.819,2.819,0,0,0-.1-.785,1.1,1.1,0,0,0-.327-.528,1.464,1.464,0,0,0-.634-.3,4.607,4.607,0,0,0-1.038-.092H49.049a.306.306,0,0,1-.26-.086.306.306,0,0,1-.086-.26v-1.615a.306.306,0,0,1,.086-.26.306.306,0,0,1,.26-.086Zm1.271,8.438a.549.549,0,0,0,.432-.145.789.789,0,0,0,.125-.509V-5.794H52.144a1.164,1.164,0,0,0-.837.24.951.951,0,0,0-.241.7v.406a1.038,1.038,0,0,0,.241.759,1.164,1.164,0,0,0,.837.241Z" transform="translate(-3.277 23.058)" fill="#21abe2"/>
          <path id="Path_378" data-name="Path 378" d="M-3083.129,393.228l-2.058,1.22v2.471l2.058,1.257,2.178-1.257v-2.471Z" transform="translate(3096.556 -393.162)" fill="#213f78"/>
          <path id="Path_379" data-name="Path 379" d="M-3083.129,393.228l-2.058,1.22v2.471l2.058,1.257,2.178-1.257v-2.471Z" transform="translate(3091.271 -393.162)" fill="#f89a3a"/>
          <path id="Path_380" data-name="Path 380" d="M-3083.129,393.228l-2.058,1.22v2.471l2.058,1.257,2.178-1.257v-2.471Z" transform="translate(3093.913 -388.617)" fill="#1aa1db"/>
          <path id="Path_382" data-name="Path 382" d="M-3071.579,462.264s.751.156.819-1.112,0-11.819,0-11.819a.549.549,0,0,1,.108-.513.549.549,0,0,1,.489-.189h2.049s.436-.147.484.7,0,9.967,0,9.967l-.343,3.112-3.778.3Z" transform="translate(3084.543 -442.7)" fill="#18a3dc"/>
          <path id="Path_381" data-name="Path 381" d="M-3175.918,459.048a3.559,3.559,0,0,1-3.625,3.1h-9.61a1.393,1.393,0,0,1-.516-.945V449.044a.444.444,0,0,0-.072-.435.444.444,0,0,0-.411-.16h-1.96a.549.549,0,0,0-.472.136.549.549,0,0,0-.175.459v12.539a3.989,3.989,0,0,0,1.268,2.606,3.847,3.847,0,0,0,2.6,1.108c1.19.058,9.651,0,9.651,0a3.738,3.738,0,0,0,2.507-1.527,3.63,3.63,0,0,0,.8-2.393A15.964,15.964,0,0,0-3175.918,459.048Z" transform="translate(3192.756 -442.537)" fill="#213f78"/>
        </g>
        <path id="Path_428" data-name="Path 428" d="M-1201.8-8223.516h2.532v15.047s-.342,1.063,1.072,1.162,31.721,0,31.721,0,1.063.235,1.007-1.162.026-2.915,0-3.872.356-1.606-1.007-1.7-6.29,0-6.29,0a1.177,1.177,0,0,1,0-1.919c1.152-1.017,11.463-8.678,11.463-8.678s9.869,7.687,10.783,8.5,1.519,2.058.38,2.1-6.177,0-6.177,0-.942-.262-.877.785,0,4.79,0,4.79-.327,1.161.877,1.162h31.64s1.679.635,1.679-1.795c-3.083-.046-12.5,0-12.5,0v-13.832h10.817v1.826h-8.429v3.582h7.978v2.09h-7.978v4.1h12.071v4.028s.035,2.21-2.992,2.312-32.29,0-32.29,0-2.928.512-3.155-2.312a60.141,60.141,0,0,1,0-6.737s-.539-1.919,1.919-1.919h5.011l-8.761-6.323-8.4,6.487h3.629s2.76-.12,2.9,1.755,0,6.737,0,6.737.114,2.09-2.468,2.312-33.631,0-33.631,0-2.677-.108-2.532-2.312S-1201.8-8223.516-1201.8-8223.516Z" transform="translate(1965 8390)" fill="none"/>
        <path id="Path_429" data-name="Path 429" d="M-1196.648-8223.5h2.9l7.681,9.917v-9.917h2.858v14.237h-2.858l-7.681-9.987v9.987h-2.9Z" transform="translate(1965 8390)" fill="#1f396f"/>
        <path id="Path_430" data-name="Path 430" d="M-1181.99-8223.5h12.293v2.314h-4.677v11.863h-3.106v-11.863h-4.509Z" transform="translate(1965 8390)" fill="#1f396f"/>
        <path id="Path_431" data-name="Path 431" d="M-1148.59-8223.5h3.024v5.407l5.407-5.407h3.629l-7.409,7.409,7.409,7.409h-3.629l-5.407-5.407v5.407h-3.024Z" transform="translate(1965 8390)" fill="#1f396f"/>
        <g id="Mask_Group_15" data-name="Mask Group 15" transform="translate(0 -47)" clip-path="url(#clip-path-2)">
          <path id="Path_433" data-name="Path 433" d="M-1200.915-8223.516h1.646v15.047s-.342,1.063,1.072,1.162,31.721,0,31.721,0,1.063.235,1.007-1.162.026-2.915,0-3.872.356-1.606-1.007-1.7-6.29,0-6.29,0a1.177,1.177,0,0,1,0-1.919c1.152-1.017,11.463-8.678,11.463-8.678s10.125,7.9,10.783,8.5.727,2.071,0,2.1-5.8,0-5.8,0-.942-.262-.877.785,0,4.79,0,4.79-.327,1.161.877,1.162h31.64s1.679.635,1.679-1.795c-3.083-.046-12.5,0-12.5,0v-13.832h10.817v1.826h-8.429v3.582h7.978v2.09h-7.978v4.1h12.071v4.028s.035,2.21-2.992,2.312-32.29,0-32.29,0-2.928.512-3.155-2.312a60.141,60.141,0,0,1,0-6.737s-.539-1.919,1.919-1.919h4.5l-8.249-6.323-8.4,6.487h3.629s2.76-.12,2.9,1.755,0,6.737,0,6.737.114,2.09-2.468,2.312-33.631,0-33.631,0-1.791-.108-1.646-2.312S-1200.915-8223.516-1200.915-8223.516Z" transform="translate(1965 8437)" fill="url(#linear-gradient)"/>
        </g>
        <g id="Mask_Group_18" data-name="Mask Group 18" transform="translate(0 -23)" clip-path="url(#clip-path-3)">
          <path id="Path_432" data-name="Path 432" d="M-1201.8-8223.516h2.532v15.047s-.342,1.063,1.072,1.162,31.721,0,31.721,0,1.063.235,1.007-1.162.026-2.915,0-3.872.356-1.606-1.007-1.7-6.29,0-6.29,0a1.177,1.177,0,0,1,0-1.919c1.152-1.017,11.463-8.678,11.463-8.678s10.125,7.9,10.783,8.5,1.519,2.058.38,2.1-6.177,0-6.177,0-.942-.262-.877.785,0,4.79,0,4.79-.327,1.161.877,1.162h31.64c.728,0,1.4-.1,1.4-1.795-3.083-.046-12.217,0-12.217,0v-13.832h10.817v1.826h-8.429v3.582h7.978v2.09h-7.978v4.1h12.071v4.028s.035,2.21-2.992,2.312-32.29,0-32.29,0-2.928.512-3.155-2.312a60.141,60.141,0,0,1,0-6.737s-.539-1.919,1.919-1.919h5.011l-8.761-6.323-8.4,6.487h3.629s2.76-.12,2.9,1.755,0,6.737,0,6.737.114,2.09-2.468,2.312-33.631,0-33.631,0-2.677-.108-2.532-2.312S-1201.8-8223.516-1201.8-8223.516Z" transform="translate(1965.42 8413)" fill="url(#linear-gradient-2)"/>
        </g>
        <g id="Mask_Group_17" data-name="Mask Group 17" transform="translate(0 -71)" clip-path="url(#clip-path-4)">
          <path id="Path_434" data-name="Path 434" d="M-1201.8-8223.516h2.532v15.047s-.342,1.063,1.072,1.162,31.721,0,31.721,0,1.063.235,1.007-1.162.026-2.915,0-3.872.356-1.606-1.007-1.7-6.29,0-6.29,0a1.177,1.177,0,0,1,0-1.919c1.152-1.017,11.463-8.678,11.463-8.678s10.125,7.9,10.783,8.5,1.519,2.058.38,2.1-6.177,0-6.177,0-.942-.262-.877.785,0,4.79,0,4.79-.327,1.161.877,1.162h31.64s1.679.635,1.679-1.795c-3.083-.046-12.5,0-12.5,0v-13.832h10.817v1.826h-8.429v3.582h7.978v2.09h-7.978v4.1h12.071v4.028s.035,2.21-2.992,2.312-32.29,0-32.29,0-2.928.512-3.155-2.312a60.141,60.141,0,0,1,0-6.737s-.539-1.919,1.919-1.919h5.011l-8.761-6.323-8.4,6.487h3.629s2.76-.12,2.9,1.755,0,6.737,0,6.737.114,2.09-2.468,2.312-33.631,0-33.631,0-2.677-.108-2.532-2.312S-1201.8-8223.516-1201.8-8223.516Z" transform="translate(1965.42 8461)" fill="url(#linear-gradient-3)"/>
        </g>
      </g>
    </g>
  </g>
</svg>
