<svg width="600" height="400" viewBox="0 0 600 400" fill="none" xmlns="http://www.w3.org/2000/svg">
<circle cx="200" cy="200" r="199" fill="#7ABDEF" stroke="black" stroke-width="2"/>
<circle cx="400" cy="200" r="199" fill="white" stroke="black" stroke-width="2"/>
<path d="M38.8919 202.241H41.1419C41.0247 203.319 40.7161 204.284 40.2161 205.135C39.7161 205.987 39.0091 206.663 38.095 207.163C37.181 207.655 36.0404 207.901 34.6732 207.901C33.6732 207.901 32.763 207.714 31.9427 207.339C31.1302 206.964 30.431 206.432 29.845 205.745C29.2591 205.049 28.806 204.217 28.4857 203.249C28.1732 202.272 28.0169 201.186 28.0169 199.991V198.292C28.0169 197.096 28.1732 196.014 28.4857 195.046C28.806 194.069 29.263 193.233 29.8568 192.538C30.4583 191.842 31.181 191.307 32.0247 190.932C32.8685 190.557 33.8177 190.37 34.8724 190.37C36.1615 190.37 37.2513 190.612 38.1419 191.096C39.0325 191.581 39.724 192.253 40.2161 193.112C40.7161 193.964 41.0247 194.952 41.1419 196.077H38.8919C38.7825 195.28 38.5794 194.596 38.2825 194.026C37.9857 193.448 37.5638 193.003 37.0169 192.69C36.47 192.378 35.7552 192.221 34.8724 192.221C34.1146 192.221 33.4466 192.366 32.8685 192.655C32.2982 192.944 31.8177 193.354 31.4271 193.885C31.0443 194.417 30.7552 195.053 30.5599 195.796C30.3646 196.538 30.2669 197.362 30.2669 198.268V199.991C30.2669 200.827 30.3529 201.612 30.5247 202.346C30.7044 203.081 30.974 203.725 31.3333 204.28C31.6927 204.835 32.1497 205.272 32.7044 205.592C33.2591 205.905 33.9154 206.061 34.6732 206.061C35.6341 206.061 36.3997 205.909 36.97 205.604C37.5404 205.299 37.97 204.862 38.2591 204.292C38.556 203.721 38.7669 203.038 38.8919 202.241ZM51.3724 205.499V198.971C51.3724 198.471 51.2708 198.038 51.0677 197.671C50.8724 197.296 50.5755 197.006 50.1771 196.803C49.7786 196.6 49.2865 196.499 48.7005 196.499C48.1536 196.499 47.6732 196.592 47.2591 196.78C46.8529 196.967 46.5325 197.214 46.2982 197.518C46.0716 197.823 45.9583 198.151 45.9583 198.503H43.7904C43.7904 198.049 43.9075 197.6 44.1419 197.155C44.3763 196.71 44.7122 196.307 45.1497 195.948C45.595 195.581 46.1263 195.292 46.7435 195.081C47.3685 194.862 48.0638 194.753 48.8294 194.753C49.7513 194.753 50.5638 194.909 51.2669 195.221C51.9779 195.534 52.5325 196.006 52.931 196.639C53.3372 197.264 53.5404 198.049 53.5404 198.995V204.901C53.5404 205.323 53.5755 205.772 53.6458 206.249C53.724 206.725 53.8372 207.135 53.9857 207.479V207.667H51.724C51.6146 207.417 51.5286 207.085 51.4661 206.671C51.4036 206.249 51.3724 205.858 51.3724 205.499ZM51.7474 199.979L51.7708 201.503H49.5794C48.9622 201.503 48.4115 201.553 47.9271 201.655C47.4427 201.749 47.0365 201.893 46.7083 202.089C46.3802 202.284 46.1302 202.53 45.9583 202.827C45.7865 203.116 45.7005 203.456 45.7005 203.846C45.7005 204.245 45.7904 204.608 45.97 204.936C46.1497 205.264 46.4193 205.526 46.7786 205.721C47.1458 205.909 47.595 206.003 48.1263 206.003C48.7904 206.003 49.3763 205.862 49.8841 205.581C50.3919 205.299 50.7943 204.956 51.0911 204.549C51.3958 204.143 51.5599 203.749 51.5833 203.366L52.5091 204.409C52.4544 204.737 52.306 205.1 52.0638 205.499C51.8216 205.897 51.4974 206.28 51.0911 206.647C50.6927 207.006 50.2161 207.307 49.6615 207.549C49.1146 207.784 48.4974 207.901 47.8099 207.901C46.9505 207.901 46.1966 207.733 45.5482 207.397C44.9075 207.061 44.4075 206.612 44.0482 206.049C43.6966 205.479 43.5208 204.842 43.5208 204.139C43.5208 203.46 43.6536 202.862 43.9193 202.346C44.1849 201.823 44.5677 201.389 45.0677 201.046C45.5677 200.694 46.1693 200.428 46.8724 200.249C47.5755 200.069 48.3607 199.979 49.2279 199.979H51.7474ZM64.3333 204.303C64.3333 203.991 64.263 203.702 64.1224 203.436C63.9896 203.163 63.7122 202.917 63.2904 202.698C62.8763 202.471 62.2513 202.276 61.4154 202.112C60.7122 201.964 60.0755 201.788 59.5052 201.585C58.9427 201.381 58.4622 201.135 58.0638 200.846C57.6732 200.557 57.3724 200.217 57.1615 199.827C56.9505 199.436 56.845 198.979 56.845 198.456C56.845 197.956 56.9544 197.483 57.1732 197.038C57.3997 196.592 57.7161 196.198 58.1224 195.854C58.5365 195.51 59.0325 195.241 59.6107 195.046C60.1888 194.85 60.8333 194.753 61.5443 194.753C62.5599 194.753 63.4271 194.932 64.1458 195.292C64.8646 195.651 65.4154 196.131 65.7982 196.733C66.181 197.327 66.3724 197.987 66.3724 198.714H64.2044C64.2044 198.362 64.099 198.022 63.888 197.694C63.6849 197.358 63.3841 197.081 62.9857 196.862C62.595 196.643 62.1146 196.534 61.5443 196.534C60.9427 196.534 60.4544 196.628 60.0794 196.815C59.7122 196.995 59.4427 197.225 59.2708 197.506C59.1068 197.788 59.0247 198.085 59.0247 198.397C59.0247 198.631 59.0638 198.842 59.1419 199.03C59.2279 199.21 59.3763 199.378 59.5872 199.534C59.7982 199.682 60.095 199.823 60.4779 199.956C60.8607 200.089 61.349 200.221 61.9427 200.354C62.9818 200.589 63.8372 200.87 64.5091 201.198C65.181 201.526 65.681 201.928 66.0091 202.405C66.3372 202.881 66.5013 203.46 66.5013 204.139C66.5013 204.694 66.3841 205.202 66.1497 205.663C65.9232 206.124 65.5911 206.522 65.1536 206.858C64.724 207.186 64.2083 207.444 63.6068 207.631C63.013 207.811 62.345 207.901 61.6029 207.901C60.4857 207.901 59.5404 207.702 58.7669 207.303C57.9935 206.905 57.4075 206.389 57.0091 205.756C56.6107 205.124 56.4115 204.456 56.4115 203.753H58.5911C58.6224 204.346 58.7943 204.819 59.1068 205.171C59.4193 205.514 59.8021 205.76 60.2552 205.909C60.7083 206.049 61.1575 206.12 61.6029 206.12C62.1966 206.12 62.6927 206.042 63.0911 205.885C63.4974 205.729 63.806 205.514 64.0169 205.241C64.2279 204.967 64.3333 204.655 64.3333 204.303ZM74.6107 207.901C73.7279 207.901 72.9271 207.753 72.2083 207.456C71.4974 207.151 70.8841 206.725 70.3685 206.178C69.8607 205.631 69.47 204.983 69.1966 204.233C68.9232 203.483 68.7865 202.663 68.7865 201.772V201.28C68.7865 200.249 68.9388 199.331 69.2435 198.526C69.5482 197.714 69.9622 197.026 70.4857 196.464C71.0091 195.901 71.6029 195.475 72.2669 195.186C72.931 194.897 73.6185 194.753 74.3294 194.753C75.2357 194.753 76.0169 194.909 76.6732 195.221C77.3372 195.534 77.8802 195.971 78.3021 196.534C78.724 197.089 79.0365 197.745 79.2396 198.503C79.4427 199.253 79.5443 200.073 79.5443 200.964V201.936H70.0755V200.167H77.3763V200.003C77.345 199.44 77.2279 198.893 77.0247 198.362C76.8294 197.831 76.5169 197.393 76.0872 197.049C75.6575 196.706 75.0716 196.534 74.3294 196.534C73.8372 196.534 73.3841 196.639 72.97 196.85C72.556 197.053 72.2005 197.358 71.9036 197.764C71.6068 198.171 71.3763 198.667 71.2122 199.253C71.0482 199.839 70.9661 200.514 70.9661 201.28V201.772C70.9661 202.374 71.0482 202.94 71.2122 203.471C71.3841 203.995 71.6302 204.456 71.9505 204.854C72.2786 205.253 72.6732 205.565 73.1341 205.792C73.6029 206.018 74.1341 206.131 74.7279 206.131C75.4935 206.131 76.1419 205.975 76.6732 205.663C77.2044 205.35 77.6693 204.932 78.0677 204.409L79.3802 205.452C79.1068 205.866 78.7591 206.26 78.3372 206.635C77.9154 207.01 77.3958 207.315 76.7786 207.549C76.1693 207.784 75.4466 207.901 74.6107 207.901ZM97.4505 203.354C97.4505 202.956 97.388 202.604 97.263 202.299C97.1458 201.987 96.9349 201.706 96.6302 201.456C96.3333 201.206 95.9193 200.967 95.388 200.741C94.8646 200.514 94.2005 200.284 93.3958 200.049C92.5521 199.799 91.7904 199.522 91.1107 199.217C90.431 198.905 89.849 198.549 89.3646 198.151C88.8802 197.753 88.5091 197.296 88.2513 196.78C87.9935 196.264 87.8646 195.674 87.8646 195.01C87.8646 194.346 88.0013 193.733 88.2747 193.171C88.5482 192.608 88.9388 192.12 89.4466 191.706C89.9622 191.284 90.5755 190.956 91.2865 190.721C91.9974 190.487 92.7904 190.37 93.6654 190.37C94.9466 190.37 96.0325 190.616 96.9232 191.108C97.8216 191.592 98.5052 192.229 98.974 193.018C99.4427 193.799 99.6771 194.635 99.6771 195.526H97.4271C97.4271 194.885 97.2904 194.319 97.0169 193.827C96.7435 193.327 96.3294 192.936 95.7747 192.655C95.22 192.366 94.5169 192.221 93.6654 192.221C92.8607 192.221 92.1966 192.342 91.6732 192.585C91.1497 192.827 90.7591 193.155 90.5013 193.569C90.2513 193.983 90.1263 194.456 90.1263 194.987C90.1263 195.346 90.2005 195.674 90.349 195.971C90.5052 196.26 90.7435 196.53 91.0638 196.78C91.3919 197.03 91.806 197.26 92.306 197.471C92.8138 197.682 93.4193 197.885 94.1224 198.081C95.0911 198.354 95.9271 198.659 96.6302 198.995C97.3333 199.331 97.9115 199.71 98.3646 200.131C98.8255 200.546 99.1654 201.018 99.3841 201.549C99.6107 202.073 99.724 202.667 99.724 203.331C99.724 204.026 99.5833 204.655 99.3021 205.217C99.0208 205.78 98.6185 206.26 98.095 206.659C97.5716 207.057 96.9427 207.366 96.2083 207.585C95.4818 207.796 94.6693 207.901 93.7708 207.901C92.9818 207.901 92.2044 207.792 91.4388 207.573C90.681 207.354 89.9896 207.026 89.3646 206.589C88.7474 206.151 88.2513 205.612 87.8763 204.971C87.5091 204.323 87.3255 203.573 87.3255 202.721H89.5755C89.5755 203.307 89.6888 203.811 89.9154 204.233C90.1419 204.647 90.4505 204.991 90.8411 205.264C91.2396 205.538 91.6888 205.741 92.1888 205.874C92.6966 205.999 93.224 206.061 93.7708 206.061C94.5599 206.061 95.2279 205.952 95.7747 205.733C96.3216 205.514 96.7357 205.202 97.0169 204.796C97.306 204.389 97.4505 203.909 97.4505 203.354ZM107.54 207.901C106.658 207.901 105.857 207.753 105.138 207.456C104.427 207.151 103.814 206.725 103.298 206.178C102.79 205.631 102.4 204.983 102.126 204.233C101.853 203.483 101.716 202.663 101.716 201.772V201.28C101.716 200.249 101.868 199.331 102.173 198.526C102.478 197.714 102.892 197.026 103.415 196.464C103.939 195.901 104.533 195.475 105.197 195.186C105.861 194.897 106.548 194.753 107.259 194.753C108.165 194.753 108.947 194.909 109.603 195.221C110.267 195.534 110.81 195.971 111.232 196.534C111.654 197.089 111.966 197.745 112.169 198.503C112.372 199.253 112.474 200.073 112.474 200.964V201.936H103.005V200.167H110.306V200.003C110.275 199.44 110.158 198.893 109.954 198.362C109.759 197.831 109.447 197.393 109.017 197.049C108.587 196.706 108.001 196.534 107.259 196.534C106.767 196.534 106.314 196.639 105.9 196.85C105.486 197.053 105.13 197.358 104.833 197.764C104.536 198.171 104.306 198.667 104.142 199.253C103.978 199.839 103.896 200.514 103.896 201.28V201.772C103.896 202.374 103.978 202.94 104.142 203.471C104.314 203.995 104.56 204.456 104.88 204.854C105.208 205.253 105.603 205.565 106.064 205.792C106.533 206.018 107.064 206.131 107.658 206.131C108.423 206.131 109.072 205.975 109.603 205.663C110.134 205.35 110.599 204.932 110.997 204.409L112.31 205.452C112.036 205.866 111.689 206.26 111.267 206.635C110.845 207.01 110.326 207.315 109.708 207.549C109.099 207.784 108.376 207.901 107.54 207.901ZM117.173 196.979V207.667H115.005V194.987H117.115L117.173 196.979ZM121.134 194.917L121.122 196.932C120.943 196.893 120.771 196.87 120.607 196.862C120.451 196.846 120.271 196.839 120.068 196.839C119.568 196.839 119.126 196.917 118.743 197.073C118.361 197.229 118.036 197.448 117.771 197.729C117.505 198.01 117.294 198.346 117.138 198.737C116.99 199.12 116.892 199.542 116.845 200.003L116.236 200.354C116.236 199.589 116.31 198.87 116.458 198.198C116.615 197.526 116.853 196.932 117.173 196.417C117.493 195.893 117.9 195.487 118.392 195.198C118.892 194.901 119.486 194.753 120.173 194.753C120.329 194.753 120.509 194.772 120.712 194.811C120.915 194.842 121.056 194.878 121.134 194.917ZM125.493 194.987V207.667H123.314V194.987H125.493ZM123.15 191.624C123.15 191.272 123.255 190.975 123.466 190.733C123.685 190.491 124.005 190.37 124.427 190.37C124.841 190.37 125.158 190.491 125.376 190.733C125.603 190.975 125.716 191.272 125.716 191.624C125.716 191.96 125.603 192.249 125.376 192.491C125.158 192.725 124.841 192.842 124.427 192.842C124.005 192.842 123.685 192.725 123.466 192.491C123.255 192.249 123.15 191.96 123.15 191.624ZM134.236 207.901C133.353 207.901 132.552 207.753 131.833 207.456C131.122 207.151 130.509 206.725 129.993 206.178C129.486 205.631 129.095 204.983 128.822 204.233C128.548 203.483 128.411 202.663 128.411 201.772V201.28C128.411 200.249 128.564 199.331 128.868 198.526C129.173 197.714 129.587 197.026 130.111 196.464C130.634 195.901 131.228 195.475 131.892 195.186C132.556 194.897 133.243 194.753 133.954 194.753C134.861 194.753 135.642 194.909 136.298 195.221C136.962 195.534 137.505 195.971 137.927 196.534C138.349 197.089 138.661 197.745 138.865 198.503C139.068 199.253 139.169 200.073 139.169 200.964V201.936H129.701V200.167H137.001V200.003C136.97 199.44 136.853 198.893 136.65 198.362C136.454 197.831 136.142 197.393 135.712 197.049C135.283 196.706 134.697 196.534 133.954 196.534C133.462 196.534 133.009 196.639 132.595 196.85C132.181 197.053 131.826 197.358 131.529 197.764C131.232 198.171 131.001 198.667 130.837 199.253C130.673 199.839 130.591 200.514 130.591 201.28V201.772C130.591 202.374 130.673 202.94 130.837 203.471C131.009 203.995 131.255 204.456 131.576 204.854C131.904 205.253 132.298 205.565 132.759 205.792C133.228 206.018 133.759 206.131 134.353 206.131C135.118 206.131 135.767 205.975 136.298 205.663C136.829 205.35 137.294 204.932 137.693 204.409L139.005 205.452C138.732 205.866 138.384 206.26 137.962 206.635C137.54 207.01 137.021 207.315 136.404 207.549C135.794 207.784 135.072 207.901 134.236 207.901ZM149.083 204.303C149.083 203.991 149.013 203.702 148.872 203.436C148.74 203.163 148.462 202.917 148.04 202.698C147.626 202.471 147.001 202.276 146.165 202.112C145.462 201.964 144.826 201.788 144.255 201.585C143.693 201.381 143.212 201.135 142.814 200.846C142.423 200.557 142.122 200.217 141.911 199.827C141.701 199.436 141.595 198.979 141.595 198.456C141.595 197.956 141.704 197.483 141.923 197.038C142.15 196.592 142.466 196.198 142.872 195.854C143.286 195.51 143.783 195.241 144.361 195.046C144.939 194.85 145.583 194.753 146.294 194.753C147.31 194.753 148.177 194.932 148.896 195.292C149.615 195.651 150.165 196.131 150.548 196.733C150.931 197.327 151.122 197.987 151.122 198.714H148.954C148.954 198.362 148.849 198.022 148.638 197.694C148.435 197.358 148.134 197.081 147.736 196.862C147.345 196.643 146.865 196.534 146.294 196.534C145.693 196.534 145.204 196.628 144.829 196.815C144.462 196.995 144.193 197.225 144.021 197.506C143.857 197.788 143.775 198.085 143.775 198.397C143.775 198.631 143.814 198.842 143.892 199.03C143.978 199.21 144.126 199.378 144.337 199.534C144.548 199.682 144.845 199.823 145.228 199.956C145.611 200.089 146.099 200.221 146.693 200.354C147.732 200.589 148.587 200.87 149.259 201.198C149.931 201.526 150.431 201.928 150.759 202.405C151.087 202.881 151.251 203.46 151.251 204.139C151.251 204.694 151.134 205.202 150.9 205.663C150.673 206.124 150.341 206.522 149.904 206.858C149.474 207.186 148.958 207.444 148.357 207.631C147.763 207.811 147.095 207.901 146.353 207.901C145.236 207.901 144.29 207.702 143.517 207.303C142.743 206.905 142.158 206.389 141.759 205.756C141.361 205.124 141.161 204.456 141.161 203.753H143.341C143.372 204.346 143.544 204.819 143.857 205.171C144.169 205.514 144.552 205.76 145.005 205.909C145.458 206.049 145.908 206.12 146.353 206.12C146.947 206.12 147.443 206.042 147.841 205.885C148.247 205.729 148.556 205.514 148.767 205.241C148.978 204.967 149.083 204.655 149.083 204.303ZM166.697 192.116L161.048 207.667H158.74L165.243 190.604H166.732L166.697 192.116ZM171.431 207.667L165.771 192.116L165.736 190.604H167.224L173.751 207.667H171.431ZM171.138 201.35V203.202H161.552V201.35H171.138Z" fill="black"/>
<path d="M430.41 202.241H432.66C432.543 203.319 432.234 204.284 431.734 205.135C431.234 205.987 430.527 206.663 429.613 207.163C428.699 207.655 427.559 207.901 426.191 207.901C425.191 207.901 424.281 207.714 423.461 207.339C422.648 206.964 421.949 206.432 421.363 205.745C420.777 205.049 420.324 204.217 420.004 203.249C419.691 202.272 419.535 201.186 419.535 199.991V198.292C419.535 197.096 419.691 196.014 420.004 195.046C420.324 194.069 420.781 193.233 421.375 192.538C421.977 191.842 422.699 191.307 423.543 190.932C424.387 190.557 425.336 190.37 426.391 190.37C427.68 190.37 428.77 190.612 429.66 191.096C430.551 191.581 431.242 192.253 431.734 193.112C432.234 193.964 432.543 194.952 432.66 196.077H430.41C430.301 195.28 430.098 194.596 429.801 194.026C429.504 193.448 429.082 193.003 428.535 192.69C427.988 192.378 427.273 192.221 426.391 192.221C425.633 192.221 424.965 192.366 424.387 192.655C423.816 192.944 423.336 193.354 422.945 193.885C422.562 194.417 422.273 195.053 422.078 195.796C421.883 196.538 421.785 197.362 421.785 198.268V199.991C421.785 200.827 421.871 201.612 422.043 202.346C422.223 203.081 422.492 203.725 422.852 204.28C423.211 204.835 423.668 205.272 424.223 205.592C424.777 205.905 425.434 206.061 426.191 206.061C427.152 206.061 427.918 205.909 428.488 205.604C429.059 205.299 429.488 204.862 429.777 204.292C430.074 203.721 430.285 203.038 430.41 202.241ZM442.891 205.499V198.971C442.891 198.471 442.789 198.038 442.586 197.671C442.391 197.296 442.094 197.006 441.695 196.803C441.297 196.6 440.805 196.499 440.219 196.499C439.672 196.499 439.191 196.592 438.777 196.78C438.371 196.967 438.051 197.214 437.816 197.518C437.59 197.823 437.477 198.151 437.477 198.503H435.309C435.309 198.049 435.426 197.6 435.66 197.155C435.895 196.71 436.23 196.307 436.668 195.948C437.113 195.581 437.645 195.292 438.262 195.081C438.887 194.862 439.582 194.753 440.348 194.753C441.27 194.753 442.082 194.909 442.785 195.221C443.496 195.534 444.051 196.006 444.449 196.639C444.855 197.264 445.059 198.049 445.059 198.995V204.901C445.059 205.323 445.094 205.772 445.164 206.249C445.242 206.725 445.355 207.135 445.504 207.479V207.667H443.242C443.133 207.417 443.047 207.085 442.984 206.671C442.922 206.249 442.891 205.858 442.891 205.499ZM443.266 199.979L443.289 201.503H441.098C440.48 201.503 439.93 201.553 439.445 201.655C438.961 201.749 438.555 201.893 438.227 202.089C437.898 202.284 437.648 202.53 437.477 202.827C437.305 203.116 437.219 203.456 437.219 203.846C437.219 204.245 437.309 204.608 437.488 204.936C437.668 205.264 437.938 205.526 438.297 205.721C438.664 205.909 439.113 206.003 439.645 206.003C440.309 206.003 440.895 205.862 441.402 205.581C441.91 205.299 442.312 204.956 442.609 204.549C442.914 204.143 443.078 203.749 443.102 203.366L444.027 204.409C443.973 204.737 443.824 205.1 443.582 205.499C443.34 205.897 443.016 206.28 442.609 206.647C442.211 207.006 441.734 207.307 441.18 207.549C440.633 207.784 440.016 207.901 439.328 207.901C438.469 207.901 437.715 207.733 437.066 207.397C436.426 207.061 435.926 206.612 435.566 206.049C435.215 205.479 435.039 204.842 435.039 204.139C435.039 203.46 435.172 202.862 435.438 202.346C435.703 201.823 436.086 201.389 436.586 201.046C437.086 200.694 437.688 200.428 438.391 200.249C439.094 200.069 439.879 199.979 440.746 199.979H443.266ZM455.852 204.303C455.852 203.991 455.781 203.702 455.641 203.436C455.508 203.163 455.23 202.917 454.809 202.698C454.395 202.471 453.77 202.276 452.934 202.112C452.23 201.964 451.594 201.788 451.023 201.585C450.461 201.381 449.98 201.135 449.582 200.846C449.191 200.557 448.891 200.217 448.68 199.827C448.469 199.436 448.363 198.979 448.363 198.456C448.363 197.956 448.473 197.483 448.691 197.038C448.918 196.592 449.234 196.198 449.641 195.854C450.055 195.51 450.551 195.241 451.129 195.046C451.707 194.85 452.352 194.753 453.062 194.753C454.078 194.753 454.945 194.932 455.664 195.292C456.383 195.651 456.934 196.131 457.316 196.733C457.699 197.327 457.891 197.987 457.891 198.714H455.723C455.723 198.362 455.617 198.022 455.406 197.694C455.203 197.358 454.902 197.081 454.504 196.862C454.113 196.643 453.633 196.534 453.062 196.534C452.461 196.534 451.973 196.628 451.598 196.815C451.23 196.995 450.961 197.225 450.789 197.506C450.625 197.788 450.543 198.085 450.543 198.397C450.543 198.631 450.582 198.842 450.66 199.03C450.746 199.21 450.895 199.378 451.105 199.534C451.316 199.682 451.613 199.823 451.996 199.956C452.379 200.089 452.867 200.221 453.461 200.354C454.5 200.589 455.355 200.87 456.027 201.198C456.699 201.526 457.199 201.928 457.527 202.405C457.855 202.881 458.02 203.46 458.02 204.139C458.02 204.694 457.902 205.202 457.668 205.663C457.441 206.124 457.109 206.522 456.672 206.858C456.242 207.186 455.727 207.444 455.125 207.631C454.531 207.811 453.863 207.901 453.121 207.901C452.004 207.901 451.059 207.702 450.285 207.303C449.512 206.905 448.926 206.389 448.527 205.756C448.129 205.124 447.93 204.456 447.93 203.753H450.109C450.141 204.346 450.312 204.819 450.625 205.171C450.938 205.514 451.32 205.76 451.773 205.909C452.227 206.049 452.676 206.12 453.121 206.12C453.715 206.12 454.211 206.042 454.609 205.885C455.016 205.729 455.324 205.514 455.535 205.241C455.746 204.967 455.852 204.655 455.852 204.303ZM466.129 207.901C465.246 207.901 464.445 207.753 463.727 207.456C463.016 207.151 462.402 206.725 461.887 206.178C461.379 205.631 460.988 204.983 460.715 204.233C460.441 203.483 460.305 202.663 460.305 201.772V201.28C460.305 200.249 460.457 199.331 460.762 198.526C461.066 197.714 461.48 197.026 462.004 196.464C462.527 195.901 463.121 195.475 463.785 195.186C464.449 194.897 465.137 194.753 465.848 194.753C466.754 194.753 467.535 194.909 468.191 195.221C468.855 195.534 469.398 195.971 469.82 196.534C470.242 197.089 470.555 197.745 470.758 198.503C470.961 199.253 471.062 200.073 471.062 200.964V201.936H461.594V200.167H468.895V200.003C468.863 199.44 468.746 198.893 468.543 198.362C468.348 197.831 468.035 197.393 467.605 197.049C467.176 196.706 466.59 196.534 465.848 196.534C465.355 196.534 464.902 196.639 464.488 196.85C464.074 197.053 463.719 197.358 463.422 197.764C463.125 198.171 462.895 198.667 462.73 199.253C462.566 199.839 462.484 200.514 462.484 201.28V201.772C462.484 202.374 462.566 202.94 462.73 203.471C462.902 203.995 463.148 204.456 463.469 204.854C463.797 205.253 464.191 205.565 464.652 205.792C465.121 206.018 465.652 206.131 466.246 206.131C467.012 206.131 467.66 205.975 468.191 205.663C468.723 205.35 469.188 204.932 469.586 204.409L470.898 205.452C470.625 205.866 470.277 206.26 469.855 206.635C469.434 207.01 468.914 207.315 468.297 207.549C467.688 207.784 466.965 207.901 466.129 207.901ZM488.969 203.354C488.969 202.956 488.906 202.604 488.781 202.299C488.664 201.987 488.453 201.706 488.148 201.456C487.852 201.206 487.438 200.967 486.906 200.741C486.383 200.514 485.719 200.284 484.914 200.049C484.07 199.799 483.309 199.522 482.629 199.217C481.949 198.905 481.367 198.549 480.883 198.151C480.398 197.753 480.027 197.296 479.77 196.78C479.512 196.264 479.383 195.674 479.383 195.01C479.383 194.346 479.52 193.733 479.793 193.171C480.066 192.608 480.457 192.12 480.965 191.706C481.48 191.284 482.094 190.956 482.805 190.721C483.516 190.487 484.309 190.37 485.184 190.37C486.465 190.37 487.551 190.616 488.441 191.108C489.34 191.592 490.023 192.229 490.492 193.018C490.961 193.799 491.195 194.635 491.195 195.526H488.945C488.945 194.885 488.809 194.319 488.535 193.827C488.262 193.327 487.848 192.936 487.293 192.655C486.738 192.366 486.035 192.221 485.184 192.221C484.379 192.221 483.715 192.342 483.191 192.585C482.668 192.827 482.277 193.155 482.02 193.569C481.77 193.983 481.645 194.456 481.645 194.987C481.645 195.346 481.719 195.674 481.867 195.971C482.023 196.26 482.262 196.53 482.582 196.78C482.91 197.03 483.324 197.26 483.824 197.471C484.332 197.682 484.938 197.885 485.641 198.081C486.609 198.354 487.445 198.659 488.148 198.995C488.852 199.331 489.43 199.71 489.883 200.131C490.344 200.546 490.684 201.018 490.902 201.549C491.129 202.073 491.242 202.667 491.242 203.331C491.242 204.026 491.102 204.655 490.82 205.217C490.539 205.78 490.137 206.26 489.613 206.659C489.09 207.057 488.461 207.366 487.727 207.585C487 207.796 486.188 207.901 485.289 207.901C484.5 207.901 483.723 207.792 482.957 207.573C482.199 207.354 481.508 207.026 480.883 206.589C480.266 206.151 479.77 205.612 479.395 204.971C479.027 204.323 478.844 203.573 478.844 202.721H481.094C481.094 203.307 481.207 203.811 481.434 204.233C481.66 204.647 481.969 204.991 482.359 205.264C482.758 205.538 483.207 205.741 483.707 205.874C484.215 205.999 484.742 206.061 485.289 206.061C486.078 206.061 486.746 205.952 487.293 205.733C487.84 205.514 488.254 205.202 488.535 204.796C488.824 204.389 488.969 203.909 488.969 203.354ZM499.059 207.901C498.176 207.901 497.375 207.753 496.656 207.456C495.945 207.151 495.332 206.725 494.816 206.178C494.309 205.631 493.918 204.983 493.645 204.233C493.371 203.483 493.234 202.663 493.234 201.772V201.28C493.234 200.249 493.387 199.331 493.691 198.526C493.996 197.714 494.41 197.026 494.934 196.464C495.457 195.901 496.051 195.475 496.715 195.186C497.379 194.897 498.066 194.753 498.777 194.753C499.684 194.753 500.465 194.909 501.121 195.221C501.785 195.534 502.328 195.971 502.75 196.534C503.172 197.089 503.484 197.745 503.688 198.503C503.891 199.253 503.992 200.073 503.992 200.964V201.936H494.523V200.167H501.824V200.003C501.793 199.44 501.676 198.893 501.473 198.362C501.277 197.831 500.965 197.393 500.535 197.049C500.105 196.706 499.52 196.534 498.777 196.534C498.285 196.534 497.832 196.639 497.418 196.85C497.004 197.053 496.648 197.358 496.352 197.764C496.055 198.171 495.824 198.667 495.66 199.253C495.496 199.839 495.414 200.514 495.414 201.28V201.772C495.414 202.374 495.496 202.94 495.66 203.471C495.832 203.995 496.078 204.456 496.398 204.854C496.727 205.253 497.121 205.565 497.582 205.792C498.051 206.018 498.582 206.131 499.176 206.131C499.941 206.131 500.59 205.975 501.121 205.663C501.652 205.35 502.117 204.932 502.516 204.409L503.828 205.452C503.555 205.866 503.207 206.26 502.785 206.635C502.363 207.01 501.844 207.315 501.227 207.549C500.617 207.784 499.895 207.901 499.059 207.901ZM508.691 196.979V207.667H506.523V194.987H508.633L508.691 196.979ZM512.652 194.917L512.641 196.932C512.461 196.893 512.289 196.87 512.125 196.862C511.969 196.846 511.789 196.839 511.586 196.839C511.086 196.839 510.645 196.917 510.262 197.073C509.879 197.229 509.555 197.448 509.289 197.729C509.023 198.01 508.812 198.346 508.656 198.737C508.508 199.12 508.41 199.542 508.363 200.003L507.754 200.354C507.754 199.589 507.828 198.87 507.977 198.198C508.133 197.526 508.371 196.932 508.691 196.417C509.012 195.893 509.418 195.487 509.91 195.198C510.41 194.901 511.004 194.753 511.691 194.753C511.848 194.753 512.027 194.772 512.23 194.811C512.434 194.842 512.574 194.878 512.652 194.917ZM517.012 194.987V207.667H514.832V194.987H517.012ZM514.668 191.624C514.668 191.272 514.773 190.975 514.984 190.733C515.203 190.491 515.523 190.37 515.945 190.37C516.359 190.37 516.676 190.491 516.895 190.733C517.121 190.975 517.234 191.272 517.234 191.624C517.234 191.96 517.121 192.249 516.895 192.491C516.676 192.725 516.359 192.842 515.945 192.842C515.523 192.842 515.203 192.725 514.984 192.491C514.773 192.249 514.668 191.96 514.668 191.624ZM525.754 207.901C524.871 207.901 524.07 207.753 523.352 207.456C522.641 207.151 522.027 206.725 521.512 206.178C521.004 205.631 520.613 204.983 520.34 204.233C520.066 203.483 519.93 202.663 519.93 201.772V201.28C519.93 200.249 520.082 199.331 520.387 198.526C520.691 197.714 521.105 197.026 521.629 196.464C522.152 195.901 522.746 195.475 523.41 195.186C524.074 194.897 524.762 194.753 525.473 194.753C526.379 194.753 527.16 194.909 527.816 195.221C528.48 195.534 529.023 195.971 529.445 196.534C529.867 197.089 530.18 197.745 530.383 198.503C530.586 199.253 530.688 200.073 530.688 200.964V201.936H521.219V200.167H528.52V200.003C528.488 199.44 528.371 198.893 528.168 198.362C527.973 197.831 527.66 197.393 527.23 197.049C526.801 196.706 526.215 196.534 525.473 196.534C524.98 196.534 524.527 196.639 524.113 196.85C523.699 197.053 523.344 197.358 523.047 197.764C522.75 198.171 522.52 198.667 522.355 199.253C522.191 199.839 522.109 200.514 522.109 201.28V201.772C522.109 202.374 522.191 202.94 522.355 203.471C522.527 203.995 522.773 204.456 523.094 204.854C523.422 205.253 523.816 205.565 524.277 205.792C524.746 206.018 525.277 206.131 525.871 206.131C526.637 206.131 527.285 205.975 527.816 205.663C528.348 205.35 528.812 204.932 529.211 204.409L530.523 205.452C530.25 205.866 529.902 206.26 529.48 206.635C529.059 207.01 528.539 207.315 527.922 207.549C527.312 207.784 526.59 207.901 525.754 207.901ZM540.602 204.303C540.602 203.991 540.531 203.702 540.391 203.436C540.258 203.163 539.98 202.917 539.559 202.698C539.145 202.471 538.52 202.276 537.684 202.112C536.98 201.964 536.344 201.788 535.773 201.585C535.211 201.381 534.73 201.135 534.332 200.846C533.941 200.557 533.641 200.217 533.43 199.827C533.219 199.436 533.113 198.979 533.113 198.456C533.113 197.956 533.223 197.483 533.441 197.038C533.668 196.592 533.984 196.198 534.391 195.854C534.805 195.51 535.301 195.241 535.879 195.046C536.457 194.85 537.102 194.753 537.812 194.753C538.828 194.753 539.695 194.932 540.414 195.292C541.133 195.651 541.684 196.131 542.066 196.733C542.449 197.327 542.641 197.987 542.641 198.714H540.473C540.473 198.362 540.367 198.022 540.156 197.694C539.953 197.358 539.652 197.081 539.254 196.862C538.863 196.643 538.383 196.534 537.812 196.534C537.211 196.534 536.723 196.628 536.348 196.815C535.98 196.995 535.711 197.225 535.539 197.506C535.375 197.788 535.293 198.085 535.293 198.397C535.293 198.631 535.332 198.842 535.41 199.03C535.496 199.21 535.645 199.378 535.855 199.534C536.066 199.682 536.363 199.823 536.746 199.956C537.129 200.089 537.617 200.221 538.211 200.354C539.25 200.589 540.105 200.87 540.777 201.198C541.449 201.526 541.949 201.928 542.277 202.405C542.605 202.881 542.77 203.46 542.77 204.139C542.77 204.694 542.652 205.202 542.418 205.663C542.191 206.124 541.859 206.522 541.422 206.858C540.992 207.186 540.477 207.444 539.875 207.631C539.281 207.811 538.613 207.901 537.871 207.901C536.754 207.901 535.809 207.702 535.035 207.303C534.262 206.905 533.676 206.389 533.277 205.756C532.879 205.124 532.68 204.456 532.68 203.753H534.859C534.891 204.346 535.062 204.819 535.375 205.171C535.688 205.514 536.07 205.76 536.523 205.909C536.977 206.049 537.426 206.12 537.871 206.12C538.465 206.12 538.961 206.042 539.359 205.885C539.766 205.729 540.074 205.514 540.285 205.241C540.496 204.967 540.602 204.655 540.602 204.303ZM557.98 199.686H553.656L553.633 197.87H557.559C558.207 197.87 558.773 197.76 559.258 197.542C559.742 197.323 560.117 197.01 560.383 196.604C560.656 196.19 560.793 195.698 560.793 195.128C560.793 194.503 560.672 193.995 560.43 193.604C560.195 193.206 559.832 192.917 559.34 192.737C558.855 192.549 558.238 192.456 557.488 192.456H554.16V207.667H551.898V190.604H557.488C558.363 190.604 559.145 190.694 559.832 190.874C560.52 191.046 561.102 191.319 561.578 191.694C562.062 192.061 562.43 192.53 562.68 193.1C562.93 193.671 563.055 194.354 563.055 195.151C563.055 195.854 562.875 196.491 562.516 197.061C562.156 197.624 561.656 198.085 561.016 198.444C560.383 198.803 559.641 199.034 558.789 199.135L557.98 199.686ZM557.875 207.667H552.766L554.043 205.827H557.875C558.594 205.827 559.203 205.702 559.703 205.452C560.211 205.202 560.598 204.85 560.863 204.397C561.129 203.936 561.262 203.393 561.262 202.768C561.262 202.135 561.148 201.589 560.922 201.128C560.695 200.667 560.34 200.311 559.855 200.061C559.371 199.811 558.746 199.686 557.98 199.686H554.758L554.781 197.87H559.188L559.668 198.526C560.488 198.596 561.184 198.831 561.754 199.229C562.324 199.62 562.758 200.12 563.055 200.729C563.359 201.339 563.512 202.01 563.512 202.745C563.512 203.807 563.277 204.706 562.809 205.44C562.348 206.167 561.695 206.721 560.852 207.104C560.008 207.479 559.016 207.667 557.875 207.667Z" fill="black"/>
</svg>
