<?xml version="1.0" encoding="UTF-8"?>
<svg version="1.1" xmlns="http://www.w3.org/2000/svg" width="852" height="121">
<path d="M0 0 C1.26972656 0.00257812 2.53945312 0.00515625 3.84765625 0.0078125 C5.11480469 0.00523438 6.38195313 0.00265625 7.6875 0 C10.91015625 0.1328125 10.91015625 0.1328125 12.91015625 1.1328125 C12.92228653 2.42280655 12.92228653 2.42280655 12.93466187 3.73886108 C13.01251052 11.8322481 13.09977136 19.92546655 13.19768333 28.0186367 C13.24769024 32.17970808 13.29401966 36.34075351 13.33203125 40.50195312 C13.36882887 44.51560117 13.41517328 48.5290345 13.46821976 52.54249954 C13.48679321 54.07590606 13.50189021 55.60935866 13.51350021 57.14283371 C13.53031266 59.28603996 13.55933413 61.42875131 13.59130859 63.57177734 C13.60463226 64.79311371 13.61795593 66.01445007 13.63168335 67.27279663 C13.61718969 70.26334817 13.61718969 70.26334817 15.91015625 72.1328125 C18.1185696 72.44561233 18.1185696 72.44561233 20.6953125 72.4074707 C21.68974365 72.41700272 22.6841748 72.42653473 23.70874023 72.43635559 C24.78583252 72.43544418 25.8629248 72.43453278 26.97265625 72.43359375 C28.07488525 72.43787888 29.17711426 72.442164 30.31274414 72.44657898 C32.64631462 72.45232949 34.97990302 72.45281727 37.31347656 72.44848633 C40.89549123 72.44532544 44.47668124 72.46878065 48.05859375 72.49414062 C50.32161354 72.49641334 52.58463555 72.49711725 54.84765625 72.49609375 C55.92474854 72.5053035 57.00184082 72.51451324 58.11157227 72.52400208 C59.10600342 72.51777328 60.10043457 72.51154449 61.125 72.50512695 C62.002771 72.50575638 62.88054199 72.5063858 63.78491211 72.5070343 C64.48624268 72.38354111 65.18757324 72.26004791 65.91015625 72.1328125 C68.31268347 68.52902167 68.17625189 66.85388054 68.21313477 62.56591797 C68.22579376 61.57280609 68.22579376 61.57280609 68.2387085 60.55963135 C68.26448233 58.37308025 68.27662361 56.18666403 68.2890625 54 C68.30523445 52.48209561 68.32241412 50.96420165 68.34056091 49.44631958 C68.38625135 45.45189216 68.42105909 41.45745094 68.45275879 37.46289062 C68.50463908 31.06156293 68.56962221 24.66038792 68.64097404 18.25925064 C68.66387386 16.01845921 68.6800997 13.77768742 68.69569397 11.53683472 C68.7090949 10.17152691 68.7227092 8.80622117 68.73657227 7.44091797 C68.75084007 5.64580276 68.75084007 5.64580276 68.76539612 3.81442261 C68.91015625 1.1328125 68.91015625 1.1328125 69.91015625 0.1328125 C72.22089793 0.03348858 74.53478567 0.00311632 76.84765625 0.0078125 C78.11480469 0.00523438 79.38195312 0.00265625 80.6875 0 C83.91015625 0.1328125 83.91015625 0.1328125 85.91015625 1.1328125 C86.00319618 10.21728646 86.07409244 19.30159419 86.11740494 28.38644218 C86.13820203 32.60578217 86.16637369 36.82479408 86.21191406 41.04394531 C86.25565557 45.12236847 86.27935247 49.2004778 86.28966522 53.27911758 C86.2970062 54.82832905 86.31134041 56.37752504 86.33307648 57.92660141 C86.58393627 76.560703 86.58393627 76.560703 80.56866455 83.73214722 C73.21593693 90.42086871 65.65008725 90.58031391 56.22265625 90.53125 C54.397948 90.53555527 54.397948 90.53555527 52.53637695 90.53994751 C49.97118666 90.54198383 47.40598068 90.53648431 44.84082031 90.52392578 C40.92347356 90.50786709 37.00715857 90.52379033 33.08984375 90.54296875 C30.59244565 90.54098624 28.09504819 90.53714242 25.59765625 90.53125 C24.43081299 90.53732269 23.26396973 90.54339539 22.06176758 90.5496521 C14.21385176 90.48206467 8.32739096 89.61027811 2.16015625 84.3828125 C1.33257812 83.70992187 1.33257812 83.70992187 0.48828125 83.0234375 C-3.65893745 78.05498737 -4.46428795 72.96383001 -4.44628906 66.65283203 C-4.44833344 65.94140549 -4.45037781 65.22997894 -4.45248413 64.49699402 C-4.45546763 62.16960071 -4.43709754 59.84293283 -4.41796875 57.515625 C-4.41490824 55.89134903 -4.41303434 54.26707043 -4.41229248 52.64279175 C-4.40770564 49.25199215 -4.39333572 45.86143219 -4.37109375 42.47070312 C-4.3426769 38.11587196 -4.33186697 33.76122805 -4.32741165 29.40631294 C-4.32326623 26.05899167 -4.31345835 22.71170849 -4.30153656 19.36440659 C-4.29582712 17.75757019 -4.29107065 16.15073013 -4.28726959 14.54388809 C-4.28043116 12.30800085 -4.2668141 10.07226506 -4.25097656 7.83642578 C-4.24414856 6.56292267 -4.23732056 5.28941956 -4.23028564 3.97732544 C-4.03475447 0.01703307 -3.99985033 0.17192783 0 0 Z " fill="#1F3E75" transform="translate(4.08984375,30.8671875)"/>
<path d="M0 0 C1.47821732 -0.00956978 1.47821732 -0.00956978 2.98629761 -0.01933289 C4.6001384 -0.02100212 4.6001384 -0.02100212 6.24658203 -0.02270508 C7.35107697 -0.02603348 8.4555719 -0.02936188 9.59353638 -0.03279114 C11.94239891 -0.03786908 14.2912687 -0.0401992 16.64013672 -0.04003906 C20.20438933 -0.04220593 23.76832257 -0.06029773 27.33251953 -0.0793457 C29.61637264 -0.08228352 31.90022722 -0.08426571 34.18408203 -0.08520508 C35.76755936 -0.09598335 35.76755936 -0.09598335 37.38302612 -0.10697937 C56.46840504 -0.04924225 56.46840504 -0.04924225 62.37939453 5.14526367 C67.07200819 11.59960942 67.53602861 17.73389665 67.54736328 25.58666992 C67.55235588 26.79370827 67.55235588 26.79370827 67.55744934 28.02513123 C67.56249611 29.72036164 67.56485836 31.41560192 67.56469727 33.11083984 C67.56689013 35.70255806 67.5850868 38.29385467 67.60400391 40.88549805 C67.60693703 42.53588722 67.60892237 44.18627841 67.60986328 45.83666992 C67.6170488 46.60966934 67.62423431 47.38266876 67.63163757 48.17909241 C67.60242624 55.05628072 67.60242624 55.05628072 65.37939453 58.14526367 C62.70635643 59.48178272 60.64121029 59.28713571 57.64794922 59.30639648 C56.44620056 59.31600403 55.2444519 59.32561157 54.00628662 59.33551025 C52.04855316 59.34188507 52.04855316 59.34188507 50.05126953 59.34838867 C48.70086668 59.35414174 47.35046385 59.35989945 46.00006104 59.36566162 C43.1654014 59.37617338 40.33077013 59.3820143 37.49609375 59.38549805 C33.87349558 59.39097102 30.25127552 59.41497208 26.62879562 59.44347 C23.83714731 59.46215009 21.04558888 59.46730491 18.25388336 59.46883392 C16.27197412 59.47331362 14.29011309 59.49193808 12.30828857 59.51080322 C11.09393127 59.50780212 9.87957397 59.50480103 8.62841797 59.50170898 C7.5641156 59.50535461 6.49981323 59.50900024 5.40325928 59.51275635 C0.6372931 58.93354471 -3.60326873 56.9566364 -6.62060547 53.14526367 C-7.88924711 49.33933874 -7.84380619 45.73655727 -7.87060547 41.77026367 C-7.89123047 41.01487305 -7.91185547 40.25948242 -7.93310547 39.48120117 C-7.9655243 34.8453079 -7.55937547 31.94416148 -4.62060547 28.14526367 C-0.53507585 24.33210269 3.8487588 24.01714875 9.26147461 24.03173828 C10.2020723 24.03181381 11.14266998 24.03188934 12.11177063 24.03196716 C13.61516243 24.03970909 13.61516243 24.03970909 15.14892578 24.04760742 C16.18506516 24.04902237 17.22120453 24.05043732 18.28874207 24.05189514 C21.58982257 24.05748125 24.89083462 24.07003125 28.19189453 24.08276367 C30.43343001 24.08778046 32.67496655 24.09234306 34.91650391 24.09643555 C40.40415737 24.10744614 45.89177106 24.12417049 51.37939453 24.14526367 C50.9563233 22.82804189 50.51541967 21.51653703 50.06689453 20.20776367 C49.82326172 19.47686523 49.57962891 18.7459668 49.32861328 17.99291992 C48.46699012 15.78594343 48.46699012 15.78594343 45.37939453 15.14526367 C43.70788466 15.03012536 42.03239824 14.96889583 40.35717773 14.93994141 C38.8259301 14.91002357 38.8259301 14.91002357 37.26374817 14.87950134 C36.16366928 14.86278885 35.06359039 14.84607635 33.93017578 14.82885742 C32.23854561 14.79768578 32.23854561 14.79768578 30.51274109 14.7658844 C26.90585493 14.7004352 23.29889524 14.64152524 19.69189453 14.58276367 C17.24852751 14.53957407 14.80516797 14.49595963 12.36181641 14.4519043 C6.36775379 14.34475852 0.37361783 14.24298338 -5.62060547 14.14526367 C-5.64746485 11.99949731 -5.66693635 9.85363722 -5.68310547 7.70776367 C-5.69470703 6.51280273 -5.70630859 5.3178418 -5.71826172 4.08666992 C-5.56353731 -0.57362923 -4.21713142 0.01846388 0 0 Z M9.37939453 35.14526367 C6.91409509 40.6120053 6.91409509 40.6120053 8.25439453 44.02026367 C8.62564453 44.72151367 8.99689453 45.42276367 9.37939453 46.14526367 C15.20011076 46.16991005 21.02079687 46.18809797 26.84155273 46.20019531 C28.82332895 46.20523634 30.80510142 46.21206905 32.78686523 46.22070312 C35.62891562 46.23277882 38.470917 46.23849412 41.31298828 46.24291992 C42.65048378 46.25066185 42.65048378 46.25066185 44.01499939 46.25856018 C46.13680054 46.25875544 48.25850233 46.20736397 50.37939453 46.14526367 C50.70939453 45.81526367 51.03939453 45.48526367 51.37939453 45.14526367 C51.37939453 41.84526367 51.37939453 38.54526367 51.37939453 35.14526367 C37.51939453 35.14526367 23.65939453 35.14526367 9.37939453 35.14526367 Z " fill="#19A1DB" transform="translate(251.62060546875,61.854736328125)"/>
<path d="M0 0 C16 0 16 0 19.84375 2.98046875 C21.2175293 4.97998047 21.2175293 4.97998047 22.5 7.1875 C23.53520805 8.73738492 24.57310496 10.28547629 25.61328125 11.83203125 C26.41499756 13.07847412 26.41499756 13.07847412 27.23291016 14.35009766 C30.47179374 19.20708058 34.11118809 23.76426066 37.6875 28.375 C39.04805276 30.15174963 40.40630097 31.93026749 41.76171875 33.7109375 C42.33881592 34.46681152 42.91591309 35.22268555 43.51049805 36.00146484 C44.72480081 37.63075224 45.87283765 39.30925648 47 41 C47.33 27.47 47.66 13.94 48 0 C52.29 0 56.58 0 61 0 C61 19.8 61 39.6 61 60 C45 60 45 60 41.375 57.23828125 C40.13818359 55.37573242 40.13818359 55.37573242 39 53.3125 C38.0585315 51.85428184 37.11298298 50.39869237 36.1640625 48.9453125 C35.67067383 48.15543945 35.17728516 47.36556641 34.66894531 46.55175781 C31.51421955 41.72829472 27.90707399 37.23756368 24.375 32.6875 C23.00556265 30.9014624 21.63822119 29.11381492 20.2734375 27.32421875 C19.39824463 26.1808606 19.39824463 26.1808606 18.50537109 25.0144043 C17.28456039 23.38078296 16.13124811 21.69687217 15 20 C14.67 33.2 14.34 46.4 14 60 C9.38 60 4.76 60 0 60 C0 40.2 0 20.4 0 0 Z " fill="#1F396F" transform="translate(406,61)"/>
<path d="M0 0 C1.93166016 0.01740234 1.93166016 0.01740234 3.90234375 0.03515625 C5.19269531 0.04417969 6.48304688 0.05320313 7.8125 0.0625 C8.81152344 0.07410156 9.81054688 0.08570313 10.83984375 0.09765625 C12.34141249 3.10079373 11.93265579 5.88833147 11.90234375 9.22265625 C11.89332031 10.50398438 11.88429687 11.7853125 11.875 13.10546875 C11.86339844 14.09289063 11.85179687 15.0803125 11.83984375 16.09765625 C12.69533813 16.08980103 12.69533813 16.08980103 13.56811523 16.08178711 C16.13784698 16.06107404 18.70756122 16.04801435 21.27734375 16.03515625 C22.6240918 16.02258789 22.6240918 16.02258789 23.99804688 16.00976562 C24.85205078 16.00654297 25.70605469 16.00332031 26.5859375 16 C27.37669678 15.99476318 28.16745605 15.98952637 28.98217773 15.98413086 C30.83984375 16.09765625 30.83984375 16.09765625 31.83984375 17.09765625 C31.93858191 19.09565197 31.96956174 21.09722783 31.96484375 23.09765625 C31.96871094 24.73734375 31.96871094 24.73734375 31.97265625 26.41015625 C31.83984375 29.09765625 31.83984375 29.09765625 30.83984375 30.09765625 C29.42414252 30.18417236 28.00424875 30.20470529 26.5859375 30.1953125 C25.81693115 30.19281494 25.0479248 30.19031738 24.25561523 30.18774414 C23.27278564 30.17864014 22.28995605 30.16953613 21.27734375 30.16015625 C18.16296875 30.13953125 15.04859375 30.11890625 11.83984375 30.09765625 C12.16984375 39.99765625 12.49984375 49.89765625 12.83984375 60.09765625 C19.10984375 60.75765625 25.37984375 61.41765625 31.83984375 62.09765625 C31.83984375 66.38765625 31.83984375 70.67765625 31.83984375 75.09765625 C28.33936721 75.17913286 24.84081636 75.23838753 21.33984375 75.28515625 C20.35757813 75.31029297 19.3753125 75.33542969 18.36328125 75.36132812 C10.73513153 75.43760962 4.90893125 74.70964561 -1.09765625 69.59765625 C-4.56172347 65.3987869 -4.29458668 61.555791 -4.2578125 56.3671875 C-4.25639755 55.61676682 -4.2549826 54.86634613 -4.25352478 54.09318542 C-4.24793185 51.69880165 -4.23538069 49.30451172 -4.22265625 46.91015625 C-4.21764033 45.28580864 -4.21307759 43.66145957 -4.20898438 42.03710938 C-4.19796473 38.05725556 -4.18070498 34.07747181 -4.16015625 30.09765625 C-4.94261719 30.10925781 -5.72507813 30.12085937 -6.53125 30.1328125 C-7.54316406 30.14183594 -8.55507812 30.15085937 -9.59765625 30.16015625 C-10.60699219 30.17175781 -11.61632812 30.18335937 -12.65625 30.1953125 C-15.16015625 30.09765625 -15.16015625 30.09765625 -16.16015625 29.09765625 C-16.25889441 27.09966053 -16.28987424 25.09808467 -16.28515625 23.09765625 C-16.28773437 22.00453125 -16.2903125 20.91140625 -16.29296875 19.78515625 C-16.16015625 17.09765625 -16.16015625 17.09765625 -15.16015625 16.09765625 C-13.30728123 16.02539123 -11.45181747 16.01384405 -9.59765625 16.03515625 C-8.58574219 16.04417969 -7.57382813 16.05320312 -6.53125 16.0625 C-5.35755859 16.07990234 -5.35755859 16.07990234 -4.16015625 16.09765625 C-4.17175781 15.02644531 -4.18335938 13.95523438 -4.1953125 12.8515625 C-4.20468924 11.45442882 -4.21378956 10.05729326 -4.22265625 8.66015625 C-4.23522461 7.59958008 -4.23522461 7.59958008 -4.24804688 6.51757812 C-4.25669213 4.71072066 -4.21235636 2.90378022 -4.16015625 1.09765625 C-3.16015625 0.09765625 -3.16015625 0.09765625 0 0 Z " fill="#19A1DB" transform="translate(142.16015625,45.90234375)"/>
<path d="M0 0 C1.35106087 0.0001133 1.35106087 0.0001133 2.72941589 0.00022888 C3.69825211 0.00539017 4.66708832 0.01055145 5.6652832 0.01586914 C7.15714897 0.01799156 7.15714897 0.01799156 8.67915344 0.02015686 C11.85815428 0.02575779 15.03708488 0.03831043 18.21606445 0.05102539 C20.37036031 0.05604027 22.52465727 0.0606032 24.67895508 0.06469727 C29.9621853 0.07572752 35.24536296 0.09299277 40.52856445 0.11352539 C40.52856445 3.08352539 40.52856445 6.05352539 40.52856445 9.11352539 C27.65856445 9.11352539 14.78856445 9.11352539 1.52856445 9.11352539 C1.52856445 13.73352539 1.52856445 18.35352539 1.52856445 23.11352539 C3.16269287 23.11968872 3.16269287 23.11968872 4.82983398 23.12597656 C8.88939084 23.14782346 12.94798607 23.20216969 17.00708008 23.26611328 C18.76056673 23.28924507 20.51419137 23.30367768 22.26782227 23.30908203 C24.79571029 23.31840738 27.32144263 23.35947174 29.84887695 23.40649414 C30.62723907 23.40256149 31.4056012 23.39862885 32.20755005 23.39457703 C36.12764167 23.49859056 38.82978125 23.92162957 42.0234375 26.29638672 C44.86062559 29.4869445 45.28857527 30.70010028 45.2902832 34.89477539 C45.29350586 35.9840332 45.29672852 37.07329102 45.30004883 38.19555664 C45.27233398 39.32348633 45.24461914 40.45141602 45.21606445 41.61352539 C45.23088867 42.74145508 45.24571289 43.86938477 45.26098633 45.03149414 C45.17856342 53.22530127 45.17856342 53.22530127 42.1730957 57.33227539 C38.54825446 59.77382282 35.95662126 60.23801911 31.68994141 60.22705078 C30.21875603 60.22693748 30.21875603 60.22693748 28.71784973 60.2268219 C27.6615184 60.22166061 26.60518707 60.21649933 25.5168457 60.21118164 C23.89180367 60.20905922 23.89180367 60.20905922 22.2339325 60.20689392 C18.7696152 60.20129098 15.30536225 60.18873797 11.84106445 60.17602539 C9.49406018 60.17101077 7.14705489 60.1664478 4.80004883 60.16235352 C-0.95713747 60.15132059 -6.71427559 60.13405397 -12.47143555 60.11352539 C-12.47143555 57.14352539 -12.47143555 54.17352539 -12.47143555 51.11352539 C1.71856445 50.78352539 15.90856445 50.45352539 30.52856445 50.11352539 C30.85856445 44.50352539 31.18856445 38.89352539 31.52856445 33.11352539 C27.60916992 33.05745117 27.60916992 33.05745117 23.6105957 33.00024414 C21.07201909 32.95399501 18.53358796 32.90277375 15.99511719 32.85107422 C14.23479091 32.81787885 12.47435957 32.78983015 10.71386719 32.76708984 C8.1789892 32.73344419 5.64506922 32.68112479 3.1105957 32.62524414 C2.3270723 32.61885422 1.54354889 32.61246429 0.73628235 32.60588074 C-3.82699135 32.48388268 -6.82465012 31.91482461 -10.47143555 29.11352539 C-13.3516653 25.45414534 -12.87656903 20.6907194 -12.90893555 16.23852539 C-12.94180664 15.44833008 -12.97467773 14.65813477 -13.00854492 13.84399414 C-13.04672109 9.67238021 -12.77819983 6.93259353 -10.1315918 3.60571289 C-6.73249868 0.4212468 -4.48037555 -0.01255007 0 0 Z " fill="#213E79" transform="translate(807.471435546875,60.886474609375)"/>
<path d="M0 0 C5.28 0 10.56 0 16 0 C23.78471892 15.94484306 31.56287499 31.88928779 39 48 C39.50950195 49.1019873 40.01900391 50.20397461 40.54394531 51.33935547 C44 58.867839 44 58.867839 44 60 C39.38 60 34.76 60 30 60 C28.82823482 57.87767021 27.66245215 55.75242209 26.5 53.625 C26.16613281 53.02171875 25.83226562 52.4184375 25.48828125 51.796875 C23 47.2265625 23 47.2265625 23 45 C13.1 45 3.2 45 -7 45 C-7.66 46.98 -8.32 48.96 -9 51 C-10.27009074 54.03153046 -11.63956262 57.00703777 -13 60 C-17.62 60 -22.24 60 -27 60 C-26.27296758 56.36483788 -25.77529747 54.16751179 -24.25341797 50.99853516 C-23.89569305 50.24649811 -23.53796814 49.49446106 -23.16940308 48.71963501 C-22.78092194 47.91754608 -22.3924408 47.11545715 -21.9921875 46.2890625 C-21.58847931 45.44387054 -21.18477112 44.59867859 -20.76882935 43.72787476 C-19.47615765 41.02435437 -18.17582793 38.32460395 -16.875 35.625 C-15.60116244 32.96834639 -14.32891392 30.31093564 -13.05670166 27.65350342 C-12.22615027 25.919156 -11.39489905 24.18514354 -10.56292725 22.45147705 C-6.98608246 14.99308203 -3.48248103 7.50290629 0 0 Z M8 14 C6.72660518 16.51956743 5.45623358 19.04058649 4.1875 21.5625 C3.83107422 22.26697266 3.47464844 22.97144531 3.10742188 23.69726562 C2.75615234 24.39658203 2.40488281 25.09589844 2.04296875 25.81640625 C1.72352295 26.45006104 1.40407715 27.08371582 1.07495117 27.73657227 C-0.37221963 30.78374929 -1.67116644 33.89938836 -3 37 C4.26 37 11.52 37 19 37 C16.83172672 32.04954863 16.83172672 32.04954863 14.6628418 27.09936523 C12.75512958 22.74133969 10.86843478 18.37501191 9 14 C8.67 14 8.34 14 8 14 Z " fill="#1F396F" transform="translate(501,61)"/>
<path d="M0 0 C5.28 0 10.56 0 16 0 C23.78471892 15.94484306 31.56287499 31.88928779 39 48 C39.50950195 49.1019873 40.01900391 50.20397461 40.54394531 51.33935547 C44 58.867839 44 58.867839 44 60 C39.38 60 34.76 60 30 60 C28.82823482 57.87767021 27.66245215 55.75242209 26.5 53.625 C26.16613281 53.02171875 25.83226562 52.4184375 25.48828125 51.796875 C23 47.2265625 23 47.2265625 23 45 C13.1 45 3.2 45 -7 45 C-7.66 46.98 -8.32 48.96 -9 51 C-10.27009074 54.03153046 -11.63956262 57.00703777 -13 60 C-17.62 60 -22.24 60 -27 60 C-26.27296758 56.36483788 -25.77529747 54.16751179 -24.25341797 50.99853516 C-23.89569305 50.24649811 -23.53796814 49.49446106 -23.16940308 48.71963501 C-22.78092194 47.91754608 -22.3924408 47.11545715 -21.9921875 46.2890625 C-21.58847931 45.44387054 -21.18477112 44.59867859 -20.76882935 43.72787476 C-19.47615765 41.02435437 -18.17582793 38.32460395 -16.875 35.625 C-15.60116244 32.96834639 -14.32891392 30.31093564 -13.05670166 27.65350342 C-12.22615027 25.919156 -11.39489905 24.18514354 -10.56292725 22.45147705 C-6.98608246 14.99308203 -3.48248103 7.50290629 0 0 Z M8 14 C6.72660518 16.51956743 5.45623358 19.04058649 4.1875 21.5625 C3.83107422 22.26697266 3.47464844 22.97144531 3.10742188 23.69726562 C2.75615234 24.39658203 2.40488281 25.09589844 2.04296875 25.81640625 C1.72352295 26.45006104 1.40407715 27.08371582 1.07495117 27.73657227 C-0.37221963 30.78374929 -1.67116644 33.89938836 -3 37 C4.26 37 11.52 37 19 37 C16.83172672 32.04954863 16.83172672 32.04954863 14.6628418 27.09936523 C12.75512958 22.74133969 10.86843478 18.37501191 9 14 C8.67 14 8.34 14 8 14 Z " fill="#1F396F" transform="translate(356,61)"/>
<path d="M0 0 C0.94074875 0.00007553 1.8814975 0.00015106 2.85075378 0.00022888 C3.86333755 0.00539017 4.87592133 0.01055145 5.91918945 0.01586914 C6.95815872 0.01728409 7.99712799 0.01869904 9.06758118 0.02015686 C12.38924018 0.02575884 15.71083203 0.03831167 19.0324707 0.05102539 C21.28312077 0.05604014 23.5337719 0.06060309 25.78442383 0.06469727 C31.30463204 0.07572891 36.82478998 0.09299488 42.3449707 0.11352539 C42.3449707 3.08352539 42.3449707 6.05352539 42.3449707 9.11352539 C28.8149707 9.44352539 15.2849707 9.77352539 1.3449707 10.11352539 C1.3449707 23.31352539 1.3449707 36.51352539 1.3449707 50.11352539 C21.6399707 50.60852539 21.6399707 50.60852539 42.3449707 51.11352539 C42.3449707 54.08352539 42.3449707 57.05352539 42.3449707 60.11352539 C35.76133682 60.18781127 29.17794821 60.24219238 22.59399414 60.27832031 C20.35534412 60.29338503 18.11672351 60.31384073 15.87817383 60.33984375 C12.65609469 60.37632822 9.43440659 60.39327522 6.2121582 60.40649414 C4.71650833 60.42971992 4.71650833 60.42971992 3.19064331 60.45341492 C-2.16228337 60.45470456 -6.08190498 60.23455264 -10.6550293 57.11352539 C-12.77321787 53.93624253 -12.91471783 53.09395159 -12.96142578 49.44604492 C-12.97741318 48.50141388 -12.99340057 47.55678284 -13.00987244 46.58352661 C-13.01523514 45.56475433 -13.02059784 44.54598206 -13.02612305 43.49633789 C-13.03966576 41.92237747 -13.03966576 41.92237747 -13.05348206 40.31661987 C-13.06799571 38.09579323 -13.07687405 35.87492373 -13.08056641 33.65405273 C-13.09246004 30.25829915 -13.14163433 26.86436395 -13.19213867 23.46899414 C-13.20160307 21.31145093 -13.20883803 19.15389655 -13.21362305 16.99633789 C-13.23315536 15.98161407 -13.25268768 14.96689026 -13.27281189 13.92141724 C-13.22777091 6.87420251 -13.22777091 6.87420251 -10.30761719 2.99584961 C-6.75868474 0.47746312 -4.23942457 -0.01136575 0 0 Z " fill="#213E79" transform="translate(742.655029296875,60.886474609375)"/>
<path d="M0 0 C1.18017197 -0.00143509 1.18017197 -0.00143509 2.38418579 -0.00289917 C4.03298015 -0.00357535 5.68177726 -0.00176057 7.33056641 0.00244141 C9.86496848 0.00784106 12.39919681 0.00245543 14.93359375 -0.00390625 C16.53906289 -0.00324621 18.14453193 -0.0019666 19.75 0 C20.89050308 -0.00303635 20.89050308 -0.00303635 22.05404663 -0.00613403 C27.36158207 0.01783207 27.36158207 0.01783207 28.4765625 1.1328125 C28.57530066 3.13080822 28.60628049 5.13238408 28.6015625 7.1328125 C28.60542969 8.7725 28.60542969 8.7725 28.609375 10.4453125 C28.4765625 13.1328125 28.4765625 13.1328125 27.4765625 14.1328125 C25.0043943 14.26813559 22.5561876 14.34333293 20.08203125 14.37890625 C18.55403094 14.41185446 17.02603629 14.44506594 15.49804688 14.47851562 C13.08199092 14.52587965 10.66595631 14.57028167 8.24975586 14.60961914 C5.92276382 14.64940696 3.59625558 14.70094662 1.26953125 14.75390625 C0.54960495 14.7623204 -0.17032135 14.77073456 -0.9120636 14.77940369 C-4.56566798 14.8691932 -7.47449362 15.00143394 -10.5234375 17.1328125 C-12.18277922 20.45149594 -11.74563598 24.17198289 -11.8046875 27.82421875 C-11.82309692 28.68466293 -11.84150635 29.54510712 -11.86047363 30.43162537 C-11.93931945 34.12250081 -12.00703925 37.81356162 -12.07568359 41.50463867 C-12.12728151 44.19459424 -12.18457379 46.88438642 -12.2421875 49.57421875 C-12.25576294 50.41586075 -12.26933838 51.25750275 -12.2833252 52.12464905 C-12.41061208 58.01998708 -12.41061208 58.01998708 -13.5234375 59.1328125 C-16.05393152 59.20594817 -18.55648587 59.22528777 -21.0859375 59.1953125 C-22.15231445 59.18854492 -22.15231445 59.18854492 -23.24023438 59.18164062 C-25.00133763 59.16982114 -26.76239786 59.15188513 -28.5234375 59.1328125 C-28.59965852 52.69164633 -28.65210908 46.250597 -28.68823242 39.80908203 C-28.70329556 37.61893365 -28.72375009 35.42881531 -28.74975586 33.23876953 C-28.78624739 30.08618747 -28.80318889 26.93400513 -28.81640625 23.78125 C-28.83189011 22.80602386 -28.84737396 21.83079773 -28.86332703 20.82601929 C-28.86463948 15.49436962 -28.54907141 11.72677335 -25.5234375 7.1328125 C-18.22942887 0.22269906 -9.56149124 -0.02586865 0 0 Z " fill="#19A1DB" transform="translate(210.5234375,61.8671875)"/>
<path d="M0 0 C2.31243792 -0.02685412 4.6249627 -0.04632841 6.9375 -0.0625 C8.22527344 -0.07410156 9.51304688 -0.08570313 10.83984375 -0.09765625 C14 0 14 0 15 1 C15.10029857 3.42857035 15.13618425 5.82871613 15.12939453 8.2578125 C15.13114685 9.01713074 15.13289917 9.77644897 15.13470459 10.55877686 C15.1391233 13.08087416 15.13618506 15.60290193 15.1328125 18.125 C15.13348553 19.86995456 15.13445555 21.61490904 15.13571167 23.35986328 C15.13718867 27.02181895 15.13503403 30.68375028 15.13037109 34.34570312 C15.1246738 39.05044492 15.1279528 43.75512968 15.13394356 48.45986938 C15.13754912 52.06453891 15.13641061 55.66919482 15.13381577 59.27386475 C15.13314648 61.00909431 15.13397496 62.74432509 15.13629532 64.47955322 C15.13882177 66.90046487 15.13498138 69.32128286 15.12939453 71.7421875 C15.13141876 72.46637878 15.13344299 73.19057007 15.13552856 73.93670654 C15.11426266 78.88573734 15.11426266 78.88573734 14 80 C11.66839945 80.09909302 9.33370058 80.12970504 7 80.125 C5.72125 80.12757812 4.4425 80.13015625 3.125 80.1328125 C0 80 0 80 -1 79 C-1.10027985 76.60717729 -1.13618677 74.2432066 -1.12939453 71.84985352 C-1.13114685 71.10189514 -1.13289917 70.35393677 -1.13470459 69.58331299 C-1.13912375 67.09848748 -1.13618461 64.61373254 -1.1328125 62.12890625 C-1.13348559 60.40876756 -1.13445566 58.68862896 -1.13571167 56.9684906 C-1.13718879 53.35780942 -1.13503391 49.74715293 -1.13037109 46.13647461 C-1.12467807 41.50133323 -1.12795002 36.86624981 -1.13394356 32.23111057 C-1.13755244 28.67701275 -1.136409 25.12292872 -1.13381577 21.56883049 C-1.13314718 19.85954723 -1.13397254 18.15026273 -1.13629532 16.44098091 C-1.13882672 14.05380041 -1.13497414 11.66671445 -1.12939453 9.27954102 C-1.13243088 8.21267311 -1.13243088 8.21267311 -1.13552856 7.12425232 C-1.11426361 2.22852721 -1.11426361 2.22852721 0 0 Z " fill="#19A1DB" transform="translate(103,41)"/>
<path d="M0 0 C4.62 0 9.24 0 14 0 C14 16.83 14 33.66 14 51 C26.87 51 39.74 51 53 51 C53 53.97 53 56.94 53 60 C35.51 60 18.02 60 0 60 C0 40.2 0 20.4 0 0 Z " fill="#1F396F" transform="translate(551,61)"/>
<path d="M0 0 C1.26972656 0.00257812 2.53945312 0.00515625 3.84765625 0.0078125 C5.11480469 0.00523438 6.38195312 0.00265625 7.6875 0 C10.91015625 0.1328125 10.91015625 0.1328125 12.91015625 1.1328125 C12.98650658 8.80079742 13.03888212 16.4686835 13.07495117 24.13696289 C13.08999509 26.74311995 13.1104352 29.34925187 13.13647461 31.95532227 C13.17305049 35.71116355 13.1899272 39.46666874 13.203125 43.22265625 C13.21860886 44.37926254 13.23409271 45.53586884 13.25004578 46.7275238 C13.2516004 54.27762597 12.7401798 61.23992942 8.18359375 67.5078125 C3.24567155 71.73451134 -0.56081738 73.23860691 -7.08984375 73.1328125 C-6.76609268 72.61059616 -6.44234161 72.08837982 -6.10877991 71.55033875 C-4.7849391 68.40939623 -4.81623651 65.86073738 -4.78686523 62.45239258 C-4.7784259 61.79017197 -4.76998657 61.12795135 -4.7612915 60.44566345 C-4.73557357 58.26454935 -4.72339009 56.08357031 -4.7109375 53.90234375 C-4.6947609 52.38586864 -4.67758073 50.86940393 -4.65943909 49.35295105 C-4.61379922 45.36675815 -4.57896343 41.38055141 -4.54724121 37.39422607 C-4.49531083 31.00280733 -4.43037348 24.61154066 -4.35902596 18.22031212 C-4.33613309 15.9839502 -4.31990427 13.74760789 -4.30430603 11.51118469 C-4.29090575 10.14913716 -4.27729151 8.78709172 -4.26342773 7.42504883 C-4.25391586 6.23132156 -4.24440399 5.0375943 -4.23460388 3.80769348 C-4.02724874 -0.02381944 -3.89321981 0.16734447 0 0 Z " fill="#19A0DA" transform="translate(77.08984375,30.8671875)"/>
<path d="M0 0 C13.2 0 26.4 0 40 0 C40 2.97 40 5.94 40 9 C35.71 9 31.42 9 27 9 C27 25.83 27 42.66 27 60 C22.38 60 17.76 60 13 60 C13 43.17 13 26.34 13 9 C8.71 9 4.42 9 0 9 C0 6.03 0 3.06 0 0 Z " fill="#1F396F" transform="translate(654,61)"/>
<path d="M0 0 C3 2.0625 3 2.0625 5 5 C5.625 8.5 5.625 8.5 5 12 C2.43130078 15.50277166 0.8723835 16.80602533 -3.390625 17.75390625 C-7.7549812 19.26064827 -9.32454215 21.38078634 -11.6875 25.125 C-12.53141274 26.38445184 -13.37788213 27.64219338 -14.2265625 28.8984375 C-14.6690332 29.56198242 -15.11150391 30.22552734 -15.56738281 30.90917969 C-18.10706113 34.61569045 -20.84289104 38.17458712 -23.5625 41.75 C-28.5115403 47.92811356 -28.5115403 47.92811356 -30.3125 55.375 C-30.64650264 58.42523004 -30.93632994 59.8955811 -32.5625 62.5625 C-36.06498881 64.62807032 -39.03515446 64.7815712 -43 64 C-45.4375 62.5 -45.4375 62.5 -47 60 C-47.04125 58.824375 -47.0825 57.64875 -47.125 56.4375 C-47.57700159 50.73367043 -51.42341539 47.18535616 -55.2265625 43.21875 C-58.6563202 40.47494384 -60.80167052 40.05883039 -65.08203125 40.06640625 C-67 40 -67 40 -69.5625 38.5 C-71.73762366 34.71717624 -71.88876086 31.24890061 -71 27 C-68.33120085 23.68421924 -66.68392436 23.10991641 -62.5 22.4375 C-59 23 -59 23 -56.0625 24.9375 C-53.84189805 28.23475743 -53.82806169 28.67906572 -54.125 32.375 C-54.31065327 35.3112531 -54.31055848 36.55671681 -52.6015625 38.99609375 C-50.80215929 40.76133108 -48.92628181 42.37588004 -47 44 C-46.360625 44.825 -45.72125 45.65 -45.0625 46.5 C-42.30760236 48.50356192 -40.27183395 48.10075268 -36.99926758 47.60693359 C-33.60655213 46.57697992 -32.29237165 44.40967629 -30.3125 41.5625 C-29.47950351 40.37997099 -28.64614957 39.1976937 -27.8125 38.015625 C-27.37035156 37.37302734 -26.92820312 36.73042969 -26.47265625 36.06835938 C-24.86555538 33.81117128 -23.1643196 31.65118381 -21.4375 29.484375 C-20.22864212 27.92749048 -19.02030385 26.37020236 -17.8125 24.8125 C-17.22315674 24.0894165 -16.63381348 23.36633301 -16.02661133 22.62133789 C-12.88524291 18.45555913 -11.61494369 15.91878276 -12.21875 10.640625 C-12.37923828 9.82754883 -12.53972656 9.01447266 -12.70507812 8.17675781 C-13 6 -13 6 -11.6875 2.9375 C-8.50020989 -0.72198123 -4.59479895 -0.76433558 0 0 Z " fill="#F79522" transform="translate(668,17)"/>
<path d="M0 0 C4.62 0 9.24 0 14 0 C14 19.8 14 39.6 14 60 C9.38 60 4.76 60 0 60 C0 40.2 0 20.4 0 0 Z " fill="#1F396F" transform="translate(705,61)"/>
<path d="M0 0 C4.62 0 9.24 0 14 0 C14 11.55 14 23.1 14 35 C9.38 35 4.76 35 0 35 C0 23.45 0 11.9 0 0 Z " fill="#19A1DB" transform="translate(622,86)"/>
<path d="M0 0 C1.10794922 0.39445313 1.10794922 0.39445313 2.23828125 0.796875 C4.7644439 1.9576729 6.23073527 2.82608592 8 5 C8.70379181 9.73313423 8.46280444 14.24982661 8 19 C-1.75371901 25.14380165 -1.75371901 25.14380165 -6.25 24.625 C-7.1575 24.08875 -8.065 23.5525 -9 23 C-9.63164063 22.65453125 -10.26328125 22.3090625 -10.9140625 21.953125 C-12.63192064 21.00864523 -14.31899045 20.00860573 -16 19 C-16.66247563 14.17530372 -16.9500437 9.79719868 -16 5 C-11.41913527 -0.15544054 -6.46924084 -3.40265265 0 0 Z " fill="#213E79" transform="translate(75,2)"/>
<path d="M0 0 C0.63292969 0.34546875 1.26585938 0.6909375 1.91796875 1.046875 C3.63404458 1.99225809 5.31995592 2.99197355 7 4 C7.72446595 9.21213005 8.06985388 13.81573292 7 19 C2.90787526 23.07343924 -2.1327413 26 -8 26 C-8.33 25.01 -8.66 24.02 -9 23 C-10.62948064 21.77554716 -10.62948064 21.77554716 -12.5625 20.8125 C-13.696875 20.214375 -14.83125 19.61625 -16 19 C-16.59002735 13.84709447 -16.87790884 9.13362548 -16 4 C-11.67604573 -1.15355015 -6.07517226 -3.51009953 0 0 Z " fill="#1CA2DB" transform="translate(62,26)"/>
<path d="M0 0 C2.8203125 1.21484375 2.8203125 1.21484375 6.125 2.9375 C7.76855469 3.78634766 7.76855469 3.78634766 9.4453125 4.65234375 C10.70988281 5.31943359 10.70988281 5.31943359 12 6 C12.58996621 11.15237154 12.88395153 15.86772386 12 21 C9.1753785 24.26042025 6.16637993 25.92951406 2 27 C-3.02729815 26.47121407 -7.71517462 24.97307451 -11 21 C-12.25330819 16.10500387 -12.27714871 11.89096412 -11 7 C-8.38528499 4.05779583 -5.59550319 2.52516832 -2 1 C-1.34 0.67 -0.68 0.34 0 0 Z " fill="#F89939" transform="translate(43,0)"/>
<path d="M0 0 C4.55555556 0.55555556 4.55555556 0.55555556 6 2 C6.04080783 3.99958364 6.04254356 6.00045254 6 8 C3.125 8.625 3.125 8.625 0 9 C-2 7 -2 7 -2.25 4.5 C-2 2 -2 2 0 0 Z " fill="#FEF7F0" transform="translate(603,44)"/>
<path d="M0 0 C4.55555556 0.55555556 4.55555556 0.55555556 6 2 C6.1875 4.4375 6.1875 4.4375 6 7 C5.34 7.66 4.68 8.32 4 9 C-0.55555556 8.44444444 -0.55555556 8.44444444 -2 7 C-2.1875 4.5625 -2.1875 4.5625 -2 2 C-1.34 1.34 -0.68 0.68 0 0 Z " fill="#FEFBF8" transform="translate(662,21)"/>
<path d="M0 0 C2.625 0.375 2.625 0.375 5 1 C5.625 3.375 5.625 3.375 6 6 C4 8 4 8 1.375 8.125 C0.59125 8.08375 -0.1925 8.0425 -1 8 C-1.625 5.125 -1.625 5.125 -2 2 C-1.34 1.34 -0.68 0.68 0 0 Z " fill="#FEFAF6" transform="translate(627,69)"/>
</svg>
