<svg width="600" height="400" viewBox="0 0 600 400" fill="none" xmlns="http://www.w3.org/2000/svg">
<circle cx="200" cy="200" r="199" fill="#7ABDEF" stroke="black" stroke-width="2"/>
<circle cx="400" cy="200" r="199" fill="#7ABDEF" stroke="black" stroke-width="2"/>
<path d="M399 199.91C399 273.36 359.208 337.517 300 371.998C240.792 337.517 201 273.36 201 199.91C201 126.46 240.792 62.3031 300 27.8229C359.208 62.3031 399 126.46 399 199.91Z" fill="#7ABDEF" stroke="black" stroke-width="2"/>
<path d="M39.2252 202.241H41.4752C41.358 203.319 41.0494 204.284 40.5494 205.135C40.0494 205.987 39.3424 206.663 38.4283 207.163C37.5143 207.655 36.3737 207.901 35.0065 207.901C34.0065 207.901 33.0963 207.714 32.276 207.339C31.4635 206.964 30.7643 206.432 30.1783 205.745C29.5924 205.049 29.1393 204.217 28.819 203.249C28.5065 202.272 28.3502 201.186 28.3502 199.991V198.292C28.3502 197.096 28.5065 196.014 28.819 195.046C29.1393 194.069 29.5963 193.233 30.1901 192.538C30.7916 191.842 31.5143 191.307 32.358 190.932C33.2018 190.557 34.151 190.37 35.2057 190.37C36.4948 190.37 37.5846 190.612 38.4752 191.096C39.3658 191.581 40.0573 192.253 40.5494 193.112C41.0494 193.964 41.358 194.952 41.4752 196.077H39.2252C39.1158 195.28 38.9127 194.596 38.6158 194.026C38.319 193.448 37.8971 193.003 37.3502 192.69C36.8033 192.378 36.0885 192.221 35.2057 192.221C34.4479 192.221 33.7799 192.366 33.2018 192.655C32.6315 192.944 32.151 193.354 31.7604 193.885C31.3776 194.417 31.0885 195.053 30.8932 195.796C30.6979 196.538 30.6002 197.362 30.6002 198.268V199.991C30.6002 200.827 30.6862 201.612 30.858 202.346C31.0377 203.081 31.3073 203.725 31.6666 204.28C32.026 204.835 32.483 205.272 33.0377 205.592C33.5924 205.905 34.2487 206.061 35.0065 206.061C35.9674 206.061 36.733 205.909 37.3033 205.604C37.8737 205.299 38.3033 204.862 38.5924 204.292C38.8893 203.721 39.1002 203.038 39.2252 202.241ZM51.7057 205.499V198.971C51.7057 198.471 51.6041 198.038 51.401 197.671C51.2057 197.296 50.9088 197.006 50.5104 196.803C50.1119 196.6 49.6198 196.499 49.0338 196.499C48.4869 196.499 48.0065 196.592 47.5924 196.78C47.1862 196.967 46.8658 197.214 46.6315 197.518C46.4049 197.823 46.2916 198.151 46.2916 198.503H44.1237C44.1237 198.049 44.2408 197.6 44.4752 197.155C44.7096 196.71 45.0455 196.307 45.483 195.948C45.9283 195.581 46.4596 195.292 47.0768 195.081C47.7018 194.862 48.3971 194.753 49.1627 194.753C50.0846 194.753 50.8971 194.909 51.6002 195.221C52.3112 195.534 52.8658 196.006 53.2643 196.639C53.6705 197.264 53.8737 198.049 53.8737 198.995V204.901C53.8737 205.323 53.9088 205.772 53.9791 206.249C54.0573 206.725 54.1705 207.135 54.319 207.479V207.667H52.0573C51.9479 207.417 51.8619 207.085 51.7994 206.671C51.7369 206.249 51.7057 205.858 51.7057 205.499ZM52.0807 199.979L52.1041 201.503H49.9127C49.2955 201.503 48.7448 201.553 48.2604 201.655C47.776 201.749 47.3698 201.893 47.0416 202.089C46.7135 202.284 46.4635 202.53 46.2916 202.827C46.1198 203.116 46.0338 203.456 46.0338 203.846C46.0338 204.245 46.1237 204.608 46.3033 204.936C46.483 205.264 46.7526 205.526 47.1119 205.721C47.4791 205.909 47.9283 206.003 48.4596 206.003C49.1237 206.003 49.7096 205.862 50.2174 205.581C50.7252 205.299 51.1276 204.956 51.4244 204.549C51.7291 204.143 51.8932 203.749 51.9166 203.366L52.8424 204.409C52.7877 204.737 52.6393 205.1 52.3971 205.499C52.1549 205.897 51.8307 206.28 51.4244 206.647C51.026 207.006 50.5494 207.307 49.9948 207.549C49.4479 207.784 48.8307 207.901 48.1432 207.901C47.2838 207.901 46.5299 207.733 45.8815 207.397C45.2408 207.061 44.7408 206.612 44.3815 206.049C44.0299 205.479 43.8541 204.842 43.8541 204.139C43.8541 203.46 43.9869 202.862 44.2526 202.346C44.5182 201.823 44.901 201.389 45.401 201.046C45.901 200.694 46.5026 200.428 47.2057 200.249C47.9088 200.069 48.694 199.979 49.5612 199.979H52.0807ZM64.6666 204.303C64.6666 203.991 64.5963 203.702 64.4557 203.436C64.3229 203.163 64.0455 202.917 63.6237 202.698C63.2096 202.471 62.5846 202.276 61.7487 202.112C61.0455 201.964 60.4088 201.788 59.8385 201.585C59.276 201.381 58.7955 201.135 58.3971 200.846C58.0065 200.557 57.7057 200.217 57.4948 199.827C57.2838 199.436 57.1783 198.979 57.1783 198.456C57.1783 197.956 57.2877 197.483 57.5065 197.038C57.733 196.592 58.0494 196.198 58.4557 195.854C58.8698 195.51 59.3658 195.241 59.944 195.046C60.5221 194.85 61.1666 194.753 61.8776 194.753C62.8932 194.753 63.7604 194.932 64.4791 195.292C65.1979 195.651 65.7487 196.131 66.1315 196.733C66.5143 197.327 66.7057 197.987 66.7057 198.714H64.5377C64.5377 198.362 64.4323 198.022 64.2213 197.694C64.0182 197.358 63.7174 197.081 63.319 196.862C62.9283 196.643 62.4479 196.534 61.8776 196.534C61.276 196.534 60.7877 196.628 60.4127 196.815C60.0455 196.995 59.776 197.225 59.6041 197.506C59.4401 197.788 59.358 198.085 59.358 198.397C59.358 198.631 59.3971 198.842 59.4752 199.03C59.5612 199.21 59.7096 199.378 59.9205 199.534C60.1315 199.682 60.4283 199.823 60.8112 199.956C61.194 200.089 61.6823 200.221 62.276 200.354C63.3151 200.589 64.1705 200.87 64.8424 201.198C65.5143 201.526 66.0143 201.928 66.3424 202.405C66.6705 202.881 66.8346 203.46 66.8346 204.139C66.8346 204.694 66.7174 205.202 66.483 205.663C66.2565 206.124 65.9244 206.522 65.4869 206.858C65.0573 207.186 64.5416 207.444 63.9401 207.631C63.3463 207.811 62.6783 207.901 61.9362 207.901C60.819 207.901 59.8737 207.702 59.1002 207.303C58.3268 206.905 57.7408 206.389 57.3424 205.756C56.944 205.124 56.7448 204.456 56.7448 203.753H58.9244C58.9557 204.346 59.1276 204.819 59.4401 205.171C59.7526 205.514 60.1354 205.76 60.5885 205.909C61.0416 206.049 61.4908 206.12 61.9362 206.12C62.5299 206.12 63.026 206.042 63.4244 205.885C63.8307 205.729 64.1393 205.514 64.3502 205.241C64.5612 204.967 64.6666 204.655 64.6666 204.303ZM74.944 207.901C74.0612 207.901 73.2604 207.753 72.5416 207.456C71.8307 207.151 71.2174 206.725 70.7018 206.178C70.194 205.631 69.8033 204.983 69.5299 204.233C69.2565 203.483 69.1198 202.663 69.1198 201.772V201.28C69.1198 200.249 69.2721 199.331 69.5768 198.526C69.8815 197.714 70.2955 197.026 70.819 196.464C71.3424 195.901 71.9362 195.475 72.6002 195.186C73.2643 194.897 73.9518 194.753 74.6627 194.753C75.569 194.753 76.3502 194.909 77.0065 195.221C77.6705 195.534 78.2135 195.971 78.6354 196.534C79.0573 197.089 79.3698 197.745 79.5729 198.503C79.776 199.253 79.8776 200.073 79.8776 200.964V201.936H70.4088V200.167H77.7096V200.003C77.6783 199.44 77.5612 198.893 77.358 198.362C77.1627 197.831 76.8502 197.393 76.4205 197.049C75.9908 196.706 75.4049 196.534 74.6627 196.534C74.1705 196.534 73.7174 196.639 73.3033 196.85C72.8893 197.053 72.5338 197.358 72.2369 197.764C71.9401 198.171 71.7096 198.667 71.5455 199.253C71.3815 199.839 71.2994 200.514 71.2994 201.28V201.772C71.2994 202.374 71.3815 202.94 71.5455 203.471C71.7174 203.995 71.9635 204.456 72.2838 204.854C72.6119 205.253 73.0065 205.565 73.4674 205.792C73.9362 206.018 74.4674 206.131 75.0612 206.131C75.8268 206.131 76.4752 205.975 77.0065 205.663C77.5377 205.35 78.0026 204.932 78.401 204.409L79.7135 205.452C79.4401 205.866 79.0924 206.26 78.6705 206.635C78.2487 207.01 77.7291 207.315 77.1119 207.549C76.5026 207.784 75.7799 207.901 74.944 207.901ZM97.7838 203.354C97.7838 202.956 97.7213 202.604 97.5963 202.299C97.4791 201.987 97.2682 201.706 96.9635 201.456C96.6666 201.206 96.2526 200.967 95.7213 200.741C95.1979 200.514 94.5338 200.284 93.7291 200.049C92.8854 199.799 92.1237 199.522 91.444 199.217C90.7643 198.905 90.1823 198.549 89.6979 198.151C89.2135 197.753 88.8424 197.296 88.5846 196.78C88.3268 196.264 88.1979 195.674 88.1979 195.01C88.1979 194.346 88.3346 193.733 88.608 193.171C88.8815 192.608 89.2721 192.12 89.7799 191.706C90.2955 191.284 90.9088 190.956 91.6198 190.721C92.3307 190.487 93.1237 190.37 93.9987 190.37C95.2799 190.37 96.3658 190.616 97.2565 191.108C98.1549 191.592 98.8385 192.229 99.3073 193.018C99.776 193.799 100.01 194.635 100.01 195.526H97.7604C97.7604 194.885 97.6237 194.319 97.3502 193.827C97.0768 193.327 96.6627 192.936 96.108 192.655C95.5533 192.366 94.8502 192.221 93.9987 192.221C93.194 192.221 92.5299 192.342 92.0065 192.585C91.483 192.827 91.0924 193.155 90.8346 193.569C90.5846 193.983 90.4596 194.456 90.4596 194.987C90.4596 195.346 90.5338 195.674 90.6823 195.971C90.8385 196.26 91.0768 196.53 91.3971 196.78C91.7252 197.03 92.1393 197.26 92.6393 197.471C93.1471 197.682 93.7526 197.885 94.4557 198.081C95.4244 198.354 96.2604 198.659 96.9635 198.995C97.6666 199.331 98.2448 199.71 98.6979 200.131C99.1588 200.546 99.4987 201.018 99.7174 201.549C99.944 202.073 100.057 202.667 100.057 203.331C100.057 204.026 99.9166 204.655 99.6354 205.217C99.3541 205.78 98.9518 206.26 98.4283 206.659C97.9049 207.057 97.276 207.366 96.5416 207.585C95.8151 207.796 95.0026 207.901 94.1041 207.901C93.3151 207.901 92.5377 207.792 91.7721 207.573C91.0143 207.354 90.3229 207.026 89.6979 206.589C89.0807 206.151 88.5846 205.612 88.2096 204.971C87.8424 204.323 87.6588 203.573 87.6588 202.721H89.9088C89.9088 203.307 90.0221 203.811 90.2487 204.233C90.4752 204.647 90.7838 204.991 91.1744 205.264C91.5729 205.538 92.0221 205.741 92.5221 205.874C93.0299 205.999 93.5573 206.061 94.1041 206.061C94.8932 206.061 95.5612 205.952 96.108 205.733C96.6549 205.514 97.069 205.202 97.3502 204.796C97.6393 204.389 97.7838 203.909 97.7838 203.354ZM107.874 207.901C106.991 207.901 106.19 207.753 105.471 207.456C104.76 207.151 104.147 206.725 103.631 206.178C103.124 205.631 102.733 204.983 102.46 204.233C102.186 203.483 102.049 202.663 102.049 201.772V201.28C102.049 200.249 102.202 199.331 102.506 198.526C102.811 197.714 103.225 197.026 103.749 196.464C104.272 195.901 104.866 195.475 105.53 195.186C106.194 194.897 106.881 194.753 107.592 194.753C108.499 194.753 109.28 194.909 109.936 195.221C110.6 195.534 111.143 195.971 111.565 196.534C111.987 197.089 112.299 197.745 112.503 198.503C112.706 199.253 112.807 200.073 112.807 200.964V201.936H103.339V200.167H110.639V200.003C110.608 199.44 110.491 198.893 110.288 198.362C110.092 197.831 109.78 197.393 109.35 197.049C108.921 196.706 108.335 196.534 107.592 196.534C107.1 196.534 106.647 196.639 106.233 196.85C105.819 197.053 105.464 197.358 105.167 197.764C104.87 198.171 104.639 198.667 104.475 199.253C104.311 199.839 104.229 200.514 104.229 201.28V201.772C104.229 202.374 104.311 202.94 104.475 203.471C104.647 203.995 104.893 204.456 105.214 204.854C105.542 205.253 105.936 205.565 106.397 205.792C106.866 206.018 107.397 206.131 107.991 206.131C108.756 206.131 109.405 205.975 109.936 205.663C110.467 205.35 110.932 204.932 111.331 204.409L112.643 205.452C112.37 205.866 112.022 206.26 111.6 206.635C111.178 207.01 110.659 207.315 110.042 207.549C109.432 207.784 108.71 207.901 107.874 207.901ZM117.506 196.979V207.667H115.339V194.987H117.448L117.506 196.979ZM121.467 194.917L121.456 196.932C121.276 196.893 121.104 196.87 120.94 196.862C120.784 196.846 120.604 196.839 120.401 196.839C119.901 196.839 119.46 196.917 119.077 197.073C118.694 197.229 118.37 197.448 118.104 197.729C117.839 198.01 117.628 198.346 117.471 198.737C117.323 199.12 117.225 199.542 117.178 200.003L116.569 200.354C116.569 199.589 116.643 198.87 116.792 198.198C116.948 197.526 117.186 196.932 117.506 196.417C117.827 195.893 118.233 195.487 118.725 195.198C119.225 194.901 119.819 194.753 120.506 194.753C120.663 194.753 120.842 194.772 121.046 194.811C121.249 194.842 121.389 194.878 121.467 194.917ZM125.827 194.987V207.667H123.647V194.987H125.827ZM123.483 191.624C123.483 191.272 123.589 190.975 123.799 190.733C124.018 190.491 124.339 190.37 124.76 190.37C125.174 190.37 125.491 190.491 125.71 190.733C125.936 190.975 126.049 191.272 126.049 191.624C126.049 191.96 125.936 192.249 125.71 192.491C125.491 192.725 125.174 192.842 124.76 192.842C124.339 192.842 124.018 192.725 123.799 192.491C123.589 192.249 123.483 191.96 123.483 191.624ZM134.569 207.901C133.686 207.901 132.885 207.753 132.167 207.456C131.456 207.151 130.842 206.725 130.327 206.178C129.819 205.631 129.428 204.983 129.155 204.233C128.881 203.483 128.745 202.663 128.745 201.772V201.28C128.745 200.249 128.897 199.331 129.202 198.526C129.506 197.714 129.921 197.026 130.444 196.464C130.967 195.901 131.561 195.475 132.225 195.186C132.889 194.897 133.577 194.753 134.288 194.753C135.194 194.753 135.975 194.909 136.631 195.221C137.296 195.534 137.839 195.971 138.26 196.534C138.682 197.089 138.995 197.745 139.198 198.503C139.401 199.253 139.503 200.073 139.503 200.964V201.936H130.034V200.167H137.335V200.003C137.303 199.44 137.186 198.893 136.983 198.362C136.788 197.831 136.475 197.393 136.046 197.049C135.616 196.706 135.03 196.534 134.288 196.534C133.796 196.534 133.342 196.639 132.928 196.85C132.514 197.053 132.159 197.358 131.862 197.764C131.565 198.171 131.335 198.667 131.171 199.253C131.006 199.839 130.924 200.514 130.924 201.28V201.772C130.924 202.374 131.006 202.94 131.171 203.471C131.342 203.995 131.589 204.456 131.909 204.854C132.237 205.253 132.631 205.565 133.092 205.792C133.561 206.018 134.092 206.131 134.686 206.131C135.452 206.131 136.1 205.975 136.631 205.663C137.163 205.35 137.628 204.932 138.026 204.409L139.339 205.452C139.065 205.866 138.717 206.26 138.296 206.635C137.874 207.01 137.354 207.315 136.737 207.549C136.128 207.784 135.405 207.901 134.569 207.901ZM149.417 204.303C149.417 203.991 149.346 203.702 149.206 203.436C149.073 203.163 148.796 202.917 148.374 202.698C147.96 202.471 147.335 202.276 146.499 202.112C145.796 201.964 145.159 201.788 144.589 201.585C144.026 201.381 143.546 201.135 143.147 200.846C142.756 200.557 142.456 200.217 142.245 199.827C142.034 199.436 141.928 198.979 141.928 198.456C141.928 197.956 142.038 197.483 142.256 197.038C142.483 196.592 142.799 196.198 143.206 195.854C143.62 195.51 144.116 195.241 144.694 195.046C145.272 194.85 145.917 194.753 146.628 194.753C147.643 194.753 148.51 194.932 149.229 195.292C149.948 195.651 150.499 196.131 150.881 196.733C151.264 197.327 151.456 197.987 151.456 198.714H149.288C149.288 198.362 149.182 198.022 148.971 197.694C148.768 197.358 148.467 197.081 148.069 196.862C147.678 196.643 147.198 196.534 146.628 196.534C146.026 196.534 145.538 196.628 145.163 196.815C144.796 196.995 144.526 197.225 144.354 197.506C144.19 197.788 144.108 198.085 144.108 198.397C144.108 198.631 144.147 198.842 144.225 199.03C144.311 199.21 144.46 199.378 144.671 199.534C144.881 199.682 145.178 199.823 145.561 199.956C145.944 200.089 146.432 200.221 147.026 200.354C148.065 200.589 148.921 200.87 149.592 201.198C150.264 201.526 150.764 201.928 151.092 202.405C151.421 202.881 151.585 203.46 151.585 204.139C151.585 204.694 151.467 205.202 151.233 205.663C151.006 206.124 150.674 206.522 150.237 206.858C149.807 207.186 149.292 207.444 148.69 207.631C148.096 207.811 147.428 207.901 146.686 207.901C145.569 207.901 144.624 207.702 143.85 207.303C143.077 206.905 142.491 206.389 142.092 205.756C141.694 205.124 141.495 204.456 141.495 203.753H143.674C143.706 204.346 143.878 204.819 144.19 205.171C144.503 205.514 144.885 205.76 145.339 205.909C145.792 206.049 146.241 206.12 146.686 206.12C147.28 206.12 147.776 206.042 148.174 205.885C148.581 205.729 148.889 205.514 149.1 205.241C149.311 204.967 149.417 204.655 149.417 204.303ZM167.03 192.116L161.381 207.667H159.073L165.577 190.604H167.065L167.03 192.116ZM171.764 207.667L166.104 192.116L166.069 190.604H167.557L174.085 207.667H171.764ZM171.471 201.35V203.202H161.885V201.35H171.471Z" fill="black"/>
<path d="M429.744 202.241H431.994C431.876 203.319 431.568 204.284 431.068 205.135C430.568 205.987 429.861 206.663 428.947 207.163C428.033 207.655 426.892 207.901 425.525 207.901C424.525 207.901 423.615 207.714 422.794 207.339C421.982 206.964 421.283 206.432 420.697 205.745C420.111 205.049 419.658 204.217 419.337 203.249C419.025 202.272 418.869 201.186 418.869 199.991V198.292C418.869 197.096 419.025 196.014 419.337 195.046C419.658 194.069 420.115 193.233 420.708 192.538C421.31 191.842 422.033 191.307 422.876 190.932C423.72 190.557 424.669 190.37 425.724 190.37C427.013 190.37 428.103 190.612 428.994 191.096C429.884 191.581 430.576 192.253 431.068 193.112C431.568 193.964 431.876 194.952 431.994 196.077H429.744C429.634 195.28 429.431 194.596 429.134 194.026C428.837 193.448 428.415 193.003 427.869 192.69C427.322 192.378 426.607 192.221 425.724 192.221C424.966 192.221 424.298 192.366 423.72 192.655C423.15 192.944 422.669 193.354 422.279 193.885C421.896 194.417 421.607 195.053 421.411 195.796C421.216 196.538 421.119 197.362 421.119 198.268V199.991C421.119 200.827 421.204 201.612 421.376 202.346C421.556 203.081 421.826 203.725 422.185 204.28C422.544 204.835 423.001 205.272 423.556 205.592C424.111 205.905 424.767 206.061 425.525 206.061C426.486 206.061 427.251 205.909 427.822 205.604C428.392 205.299 428.822 204.862 429.111 204.292C429.408 203.721 429.619 203.038 429.744 202.241ZM442.224 205.499V198.971C442.224 198.471 442.122 198.038 441.919 197.671C441.724 197.296 441.427 197.006 441.029 196.803C440.63 196.6 440.138 196.499 439.552 196.499C439.005 196.499 438.525 196.592 438.111 196.78C437.704 196.967 437.384 197.214 437.15 197.518C436.923 197.823 436.81 198.151 436.81 198.503H434.642C434.642 198.049 434.759 197.6 434.994 197.155C435.228 196.71 435.564 196.307 436.001 195.948C436.447 195.581 436.978 195.292 437.595 195.081C438.22 194.862 438.915 194.753 439.681 194.753C440.603 194.753 441.415 194.909 442.119 195.221C442.829 195.534 443.384 196.006 443.783 196.639C444.189 197.264 444.392 198.049 444.392 198.995V204.901C444.392 205.323 444.427 205.772 444.497 206.249C444.576 206.725 444.689 207.135 444.837 207.479V207.667H442.576C442.466 207.417 442.38 207.085 442.318 206.671C442.255 206.249 442.224 205.858 442.224 205.499ZM442.599 199.979L442.622 201.503H440.431C439.814 201.503 439.263 201.553 438.779 201.655C438.294 201.749 437.888 201.893 437.56 202.089C437.232 202.284 436.982 202.53 436.81 202.827C436.638 203.116 436.552 203.456 436.552 203.846C436.552 204.245 436.642 204.608 436.822 204.936C437.001 205.264 437.271 205.526 437.63 205.721C437.997 205.909 438.447 206.003 438.978 206.003C439.642 206.003 440.228 205.862 440.736 205.581C441.244 205.299 441.646 204.956 441.943 204.549C442.247 204.143 442.411 203.749 442.435 203.366L443.361 204.409C443.306 204.737 443.158 205.1 442.915 205.499C442.673 205.897 442.349 206.28 441.943 206.647C441.544 207.006 441.068 207.307 440.513 207.549C439.966 207.784 439.349 207.901 438.661 207.901C437.802 207.901 437.048 207.733 436.4 207.397C435.759 207.061 435.259 206.612 434.9 206.049C434.548 205.479 434.372 204.842 434.372 204.139C434.372 203.46 434.505 202.862 434.771 202.346C435.036 201.823 435.419 201.389 435.919 201.046C436.419 200.694 437.021 200.428 437.724 200.249C438.427 200.069 439.212 199.979 440.079 199.979H442.599ZM455.185 204.303C455.185 203.991 455.115 203.702 454.974 203.436C454.841 203.163 454.564 202.917 454.142 202.698C453.728 202.471 453.103 202.276 452.267 202.112C451.564 201.964 450.927 201.788 450.357 201.585C449.794 201.381 449.314 201.135 448.915 200.846C448.525 200.557 448.224 200.217 448.013 199.827C447.802 199.436 447.697 198.979 447.697 198.456C447.697 197.956 447.806 197.483 448.025 197.038C448.251 196.592 448.568 196.198 448.974 195.854C449.388 195.51 449.884 195.241 450.462 195.046C451.04 194.85 451.685 194.753 452.396 194.753C453.411 194.753 454.279 194.932 454.997 195.292C455.716 195.651 456.267 196.131 456.65 196.733C457.033 197.327 457.224 197.987 457.224 198.714H455.056C455.056 198.362 454.951 198.022 454.74 197.694C454.536 197.358 454.236 197.081 453.837 196.862C453.447 196.643 452.966 196.534 452.396 196.534C451.794 196.534 451.306 196.628 450.931 196.815C450.564 196.995 450.294 197.225 450.122 197.506C449.958 197.788 449.876 198.085 449.876 198.397C449.876 198.631 449.915 198.842 449.994 199.03C450.079 199.21 450.228 199.378 450.439 199.534C450.65 199.682 450.947 199.823 451.329 199.956C451.712 200.089 452.201 200.221 452.794 200.354C453.833 200.589 454.689 200.87 455.361 201.198C456.033 201.526 456.533 201.928 456.861 202.405C457.189 202.881 457.353 203.46 457.353 204.139C457.353 204.694 457.236 205.202 457.001 205.663C456.775 206.124 456.443 206.522 456.005 206.858C455.576 207.186 455.06 207.444 454.458 207.631C453.865 207.811 453.197 207.901 452.454 207.901C451.337 207.901 450.392 207.702 449.619 207.303C448.845 206.905 448.259 206.389 447.861 205.756C447.462 205.124 447.263 204.456 447.263 203.753H449.443C449.474 204.346 449.646 204.819 449.958 205.171C450.271 205.514 450.654 205.76 451.107 205.909C451.56 206.049 452.009 206.12 452.454 206.12C453.048 206.12 453.544 206.042 453.943 205.885C454.349 205.729 454.658 205.514 454.869 205.241C455.079 204.967 455.185 204.655 455.185 204.303ZM465.462 207.901C464.579 207.901 463.779 207.753 463.06 207.456C462.349 207.151 461.736 206.725 461.22 206.178C460.712 205.631 460.322 204.983 460.048 204.233C459.775 203.483 459.638 202.663 459.638 201.772V201.28C459.638 200.249 459.79 199.331 460.095 198.526C460.4 197.714 460.814 197.026 461.337 196.464C461.861 195.901 462.454 195.475 463.119 195.186C463.783 194.897 464.47 194.753 465.181 194.753C466.087 194.753 466.869 194.909 467.525 195.221C468.189 195.534 468.732 195.971 469.154 196.534C469.576 197.089 469.888 197.745 470.091 198.503C470.294 199.253 470.396 200.073 470.396 200.964V201.936H460.927V200.167H468.228V200.003C468.197 199.44 468.079 198.893 467.876 198.362C467.681 197.831 467.369 197.393 466.939 197.049C466.509 196.706 465.923 196.534 465.181 196.534C464.689 196.534 464.236 196.639 463.822 196.85C463.408 197.053 463.052 197.358 462.755 197.764C462.458 198.171 462.228 198.667 462.064 199.253C461.9 199.839 461.818 200.514 461.818 201.28V201.772C461.818 202.374 461.9 202.94 462.064 203.471C462.236 203.995 462.482 204.456 462.802 204.854C463.13 205.253 463.525 205.565 463.986 205.792C464.454 206.018 464.986 206.131 465.579 206.131C466.345 206.131 466.994 205.975 467.525 205.663C468.056 205.35 468.521 204.932 468.919 204.409L470.232 205.452C469.958 205.866 469.611 206.26 469.189 206.635C468.767 207.01 468.247 207.315 467.63 207.549C467.021 207.784 466.298 207.901 465.462 207.901ZM488.302 203.354C488.302 202.956 488.24 202.604 488.115 202.299C487.997 201.987 487.786 201.706 487.482 201.456C487.185 201.206 486.771 200.967 486.24 200.741C485.716 200.514 485.052 200.284 484.247 200.049C483.404 199.799 482.642 199.522 481.962 199.217C481.283 198.905 480.701 198.549 480.216 198.151C479.732 197.753 479.361 197.296 479.103 196.78C478.845 196.264 478.716 195.674 478.716 195.01C478.716 194.346 478.853 193.733 479.126 193.171C479.4 192.608 479.79 192.12 480.298 191.706C480.814 191.284 481.427 190.956 482.138 190.721C482.849 190.487 483.642 190.37 484.517 190.37C485.798 190.37 486.884 190.616 487.775 191.108C488.673 191.592 489.357 192.229 489.826 193.018C490.294 193.799 490.529 194.635 490.529 195.526H488.279C488.279 194.885 488.142 194.319 487.869 193.827C487.595 193.327 487.181 192.936 486.626 192.655C486.072 192.366 485.369 192.221 484.517 192.221C483.712 192.221 483.048 192.342 482.525 192.585C482.001 192.827 481.611 193.155 481.353 193.569C481.103 193.983 480.978 194.456 480.978 194.987C480.978 195.346 481.052 195.674 481.201 195.971C481.357 196.26 481.595 196.53 481.915 196.78C482.244 197.03 482.658 197.26 483.158 197.471C483.665 197.682 484.271 197.885 484.974 198.081C485.943 198.354 486.779 198.659 487.482 198.995C488.185 199.331 488.763 199.71 489.216 200.131C489.677 200.546 490.017 201.018 490.236 201.549C490.462 202.073 490.576 202.667 490.576 203.331C490.576 204.026 490.435 204.655 490.154 205.217C489.872 205.78 489.47 206.26 488.947 206.659C488.423 207.057 487.794 207.366 487.06 207.585C486.333 207.796 485.521 207.901 484.622 207.901C483.833 207.901 483.056 207.792 482.29 207.573C481.533 207.354 480.841 207.026 480.216 206.589C479.599 206.151 479.103 205.612 478.728 204.971C478.361 204.323 478.177 203.573 478.177 202.721H480.427C480.427 203.307 480.54 203.811 480.767 204.233C480.994 204.647 481.302 204.991 481.693 205.264C482.091 205.538 482.54 205.741 483.04 205.874C483.548 205.999 484.076 206.061 484.622 206.061C485.411 206.061 486.079 205.952 486.626 205.733C487.173 205.514 487.587 205.202 487.869 204.796C488.158 204.389 488.302 203.909 488.302 203.354ZM498.392 207.901C497.509 207.901 496.708 207.753 495.99 207.456C495.279 207.151 494.665 206.725 494.15 206.178C493.642 205.631 493.251 204.983 492.978 204.233C492.704 203.483 492.568 202.663 492.568 201.772V201.28C492.568 200.249 492.72 199.331 493.025 198.526C493.329 197.714 493.744 197.026 494.267 196.464C494.79 195.901 495.384 195.475 496.048 195.186C496.712 194.897 497.4 194.753 498.111 194.753C499.017 194.753 499.798 194.909 500.454 195.221C501.119 195.534 501.661 195.971 502.083 196.534C502.505 197.089 502.818 197.745 503.021 198.503C503.224 199.253 503.326 200.073 503.326 200.964V201.936H493.857V200.167H501.158V200.003C501.126 199.44 501.009 198.893 500.806 198.362C500.611 197.831 500.298 197.393 499.869 197.049C499.439 196.706 498.853 196.534 498.111 196.534C497.619 196.534 497.165 196.639 496.751 196.85C496.337 197.053 495.982 197.358 495.685 197.764C495.388 198.171 495.158 198.667 494.994 199.253C494.829 199.839 494.747 200.514 494.747 201.28V201.772C494.747 202.374 494.829 202.94 494.994 203.471C495.165 203.995 495.411 204.456 495.732 204.854C496.06 205.253 496.454 205.565 496.915 205.792C497.384 206.018 497.915 206.131 498.509 206.131C499.275 206.131 499.923 205.975 500.454 205.663C500.986 205.35 501.451 204.932 501.849 204.409L503.161 205.452C502.888 205.866 502.54 206.26 502.119 206.635C501.697 207.01 501.177 207.315 500.56 207.549C499.951 207.784 499.228 207.901 498.392 207.901ZM508.025 196.979V207.667H505.857V194.987H507.966L508.025 196.979ZM511.986 194.917L511.974 196.932C511.794 196.893 511.622 196.87 511.458 196.862C511.302 196.846 511.122 196.839 510.919 196.839C510.419 196.839 509.978 196.917 509.595 197.073C509.212 197.229 508.888 197.448 508.622 197.729C508.357 198.01 508.146 198.346 507.99 198.737C507.841 199.12 507.744 199.542 507.697 200.003L507.087 200.354C507.087 199.589 507.161 198.87 507.31 198.198C507.466 197.526 507.704 196.932 508.025 196.417C508.345 195.893 508.751 195.487 509.244 195.198C509.744 194.901 510.337 194.753 511.025 194.753C511.181 194.753 511.361 194.772 511.564 194.811C511.767 194.842 511.908 194.878 511.986 194.917ZM516.345 194.987V207.667H514.165V194.987H516.345ZM514.001 191.624C514.001 191.272 514.107 190.975 514.318 190.733C514.536 190.491 514.857 190.37 515.279 190.37C515.693 190.37 516.009 190.491 516.228 190.733C516.454 190.975 516.568 191.272 516.568 191.624C516.568 191.96 516.454 192.249 516.228 192.491C516.009 192.725 515.693 192.842 515.279 192.842C514.857 192.842 514.536 192.725 514.318 192.491C514.107 192.249 514.001 191.96 514.001 191.624ZM525.087 207.901C524.204 207.901 523.404 207.753 522.685 207.456C521.974 207.151 521.361 206.725 520.845 206.178C520.337 205.631 519.947 204.983 519.673 204.233C519.4 203.483 519.263 202.663 519.263 201.772V201.28C519.263 200.249 519.415 199.331 519.72 198.526C520.025 197.714 520.439 197.026 520.962 196.464C521.486 195.901 522.079 195.475 522.744 195.186C523.408 194.897 524.095 194.753 524.806 194.753C525.712 194.753 526.494 194.909 527.15 195.221C527.814 195.534 528.357 195.971 528.779 196.534C529.201 197.089 529.513 197.745 529.716 198.503C529.919 199.253 530.021 200.073 530.021 200.964V201.936H520.552V200.167H527.853V200.003C527.822 199.44 527.704 198.893 527.501 198.362C527.306 197.831 526.994 197.393 526.564 197.049C526.134 196.706 525.548 196.534 524.806 196.534C524.314 196.534 523.861 196.639 523.447 196.85C523.033 197.053 522.677 197.358 522.38 197.764C522.083 198.171 521.853 198.667 521.689 199.253C521.525 199.839 521.443 200.514 521.443 201.28V201.772C521.443 202.374 521.525 202.94 521.689 203.471C521.861 203.995 522.107 204.456 522.427 204.854C522.755 205.253 523.15 205.565 523.611 205.792C524.079 206.018 524.611 206.131 525.204 206.131C525.97 206.131 526.619 205.975 527.15 205.663C527.681 205.35 528.146 204.932 528.544 204.409L529.857 205.452C529.583 205.866 529.236 206.26 528.814 206.635C528.392 207.01 527.872 207.315 527.255 207.549C526.646 207.784 525.923 207.901 525.087 207.901ZM539.935 204.303C539.935 203.991 539.865 203.702 539.724 203.436C539.591 203.163 539.314 202.917 538.892 202.698C538.478 202.471 537.853 202.276 537.017 202.112C536.314 201.964 535.677 201.788 535.107 201.585C534.544 201.381 534.064 201.135 533.665 200.846C533.275 200.557 532.974 200.217 532.763 199.827C532.552 199.436 532.447 198.979 532.447 198.456C532.447 197.956 532.556 197.483 532.775 197.038C533.001 196.592 533.318 196.198 533.724 195.854C534.138 195.51 534.634 195.241 535.212 195.046C535.79 194.85 536.435 194.753 537.146 194.753C538.161 194.753 539.029 194.932 539.747 195.292C540.466 195.651 541.017 196.131 541.4 196.733C541.783 197.327 541.974 197.987 541.974 198.714H539.806C539.806 198.362 539.701 198.022 539.49 197.694C539.286 197.358 538.986 197.081 538.587 196.862C538.197 196.643 537.716 196.534 537.146 196.534C536.544 196.534 536.056 196.628 535.681 196.815C535.314 196.995 535.044 197.225 534.872 197.506C534.708 197.788 534.626 198.085 534.626 198.397C534.626 198.631 534.665 198.842 534.744 199.03C534.829 199.21 534.978 199.378 535.189 199.534C535.4 199.682 535.697 199.823 536.079 199.956C536.462 200.089 536.951 200.221 537.544 200.354C538.583 200.589 539.439 200.87 540.111 201.198C540.783 201.526 541.283 201.928 541.611 202.405C541.939 202.881 542.103 203.46 542.103 204.139C542.103 204.694 541.986 205.202 541.751 205.663C541.525 206.124 541.193 206.522 540.755 206.858C540.326 207.186 539.81 207.444 539.208 207.631C538.615 207.811 537.947 207.901 537.204 207.901C536.087 207.901 535.142 207.702 534.369 207.303C533.595 206.905 533.009 206.389 532.611 205.756C532.212 205.124 532.013 204.456 532.013 203.753H534.193C534.224 204.346 534.396 204.819 534.708 205.171C535.021 205.514 535.404 205.76 535.857 205.909C536.31 206.049 536.759 206.12 537.204 206.12C537.798 206.12 538.294 206.042 538.693 205.885C539.099 205.729 539.408 205.514 539.619 205.241C539.829 204.967 539.935 204.655 539.935 204.303ZM557.314 199.686H552.99L552.966 197.87H556.892C557.54 197.87 558.107 197.76 558.591 197.542C559.076 197.323 559.451 197.01 559.716 196.604C559.99 196.19 560.126 195.698 560.126 195.128C560.126 194.503 560.005 193.995 559.763 193.604C559.529 193.206 559.165 192.917 558.673 192.737C558.189 192.549 557.572 192.456 556.822 192.456H553.494V207.667H551.232V190.604H556.822C557.697 190.604 558.478 190.694 559.165 190.874C559.853 191.046 560.435 191.319 560.911 191.694C561.396 192.061 561.763 192.53 562.013 193.1C562.263 193.671 562.388 194.354 562.388 195.151C562.388 195.854 562.208 196.491 561.849 197.061C561.49 197.624 560.99 198.085 560.349 198.444C559.716 198.803 558.974 199.034 558.122 199.135L557.314 199.686ZM557.208 207.667H552.099L553.376 205.827H557.208C557.927 205.827 558.536 205.702 559.036 205.452C559.544 205.202 559.931 204.85 560.197 204.397C560.462 203.936 560.595 203.393 560.595 202.768C560.595 202.135 560.482 201.589 560.255 201.128C560.029 200.667 559.673 200.311 559.189 200.061C558.704 199.811 558.079 199.686 557.314 199.686H554.091L554.115 197.87H558.521L559.001 198.526C559.822 198.596 560.517 198.831 561.087 199.229C561.658 199.62 562.091 200.12 562.388 200.729C562.693 201.339 562.845 202.01 562.845 202.745C562.845 203.807 562.611 204.706 562.142 205.44C561.681 206.167 561.029 206.721 560.185 207.104C559.341 207.479 558.349 207.667 557.208 207.667Z" fill="black"/>
</svg>
